<svg width="800" height="800" viewBox="0 0 800 800" fill="none" xmlns="http://www.w3.org/2000/svg">
<g clip-path="url(#clip0_124_42)">
<path d="M640 0H160C71.6344 0 0 71.6344 0 160V640C0 728.366 71.6344 800 160 800H640C728.366 800 800 728.366 800 640V160C800 71.6344 728.366 0 640 0Z" fill="black"/>
<path d="M569.744 311.111H308.748C296.136 311.114 283.795 314.852 273.218 321.872C262.642 328.892 254.283 338.894 249.154 350.667L200 463.778V244.444C200 232.657 204.583 221.352 212.741 213.017C220.898 204.683 231.963 200 243.499 200H330.498C341.827 200.045 352.714 204.495 360.948 212.444L413.799 266.667H526.245C537.782 266.667 548.846 271.349 557.004 279.684C565.161 288.019 569.744 299.324 569.744 311.111ZM630.861 364.889C628.86 362.017 626.218 359.673 623.155 358.05C620.092 356.427 616.694 355.572 613.244 355.556H308.748C304.565 355.564 300.472 356.806 296.962 359.132C293.451 361.457 290.672 364.768 288.956 368.667L201.957 568.667C200.47 572.047 199.834 575.754 200.107 579.45C200.38 583.146 201.554 586.714 203.521 589.828C205.488 592.942 208.186 595.504 211.37 597.281C214.554 599.057 218.122 599.992 221.75 600H547.995C552.554 600.012 557.003 598.559 560.71 595.848C564.418 593.136 567.198 589.303 568.657 584.889L633.906 384.889C634.985 381.547 635.271 377.991 634.742 374.514C634.212 371.037 632.882 367.738 630.861 364.889Z" fill="#FFD500"/>
</g>
<defs>
<clipPath id="clip0_124_42">
<rect width="800" height="800" fill="white"/>
</clipPath>
</defs>
</svg>
