<svg width="335" height="280" viewBox="0 0 335 280" fill="none" xmlns="http://www.w3.org/2000/svg">
<g filter="url(#filter0_bi_1_6)">
<rect width="335" height="280" rx="32" fill="url(#paint0_linear_1_6)"/>
<rect x="0.15" y="0.15" width="334.7" height="279.7" rx="31.85" stroke="#A0A0A0" stroke-width="0.3"/>
</g>
<path d="M26.886 29.644C28.4993 29.644 29.9147 29.9593 31.132 30.59C32.364 31.2207 33.31 32.1227 33.97 33.296C34.6447 34.4547 34.982 35.804 34.982 37.344C34.982 38.884 34.6447 40.2333 33.97 41.392C33.31 42.536 32.364 43.4233 31.132 44.054C29.9147 44.6847 28.4993 45 26.886 45H21.518V29.644H26.886ZM26.776 42.382C28.3893 42.382 29.636 41.942 30.516 41.062C31.396 40.182 31.836 38.9427 31.836 37.344C31.836 35.7453 31.396 34.4987 30.516 33.604C29.636 32.6947 28.3893 32.24 26.776 32.24H24.598V42.382H26.776ZM48.6175 38.642C48.6175 39.082 48.5882 39.478 48.5295 39.83H39.6195C39.6929 40.71 40.0009 41.3993 40.5435 41.898C41.0862 42.3967 41.7535 42.646 42.5455 42.646C43.6895 42.646 44.5035 42.1547 44.9875 41.172H48.3095C47.9575 42.3453 47.2829 43.3133 46.2855 44.076C45.2882 44.824 44.0635 45.198 42.6115 45.198C41.4382 45.198 40.3822 44.9413 39.4435 44.428C38.5195 43.9 37.7935 43.1593 37.2655 42.206C36.7522 41.2527 36.4955 40.1527 36.4955 38.906C36.4955 37.6447 36.7522 36.5373 37.2655 35.584C37.7789 34.6307 38.4975 33.8973 39.4215 33.384C40.3455 32.8707 41.4089 32.614 42.6115 32.614C43.7702 32.614 44.8042 32.8633 45.7135 33.362C46.6375 33.8607 47.3489 34.572 47.8475 35.496C48.3609 36.4053 48.6175 37.454 48.6175 38.642ZM45.4275 37.762C45.4129 36.97 45.1269 36.3393 44.5695 35.87C44.0122 35.386 43.3302 35.144 42.5235 35.144C41.7609 35.144 41.1155 35.3787 40.5875 35.848C40.0742 36.3027 39.7589 36.9407 39.6415 37.762H45.4275ZM50.0737 38.862C50.0737 37.63 50.3157 36.5373 50.7997 35.584C51.2983 34.6307 51.9657 33.8973 52.8017 33.384C53.6523 32.8707 54.5983 32.614 55.6397 32.614C56.549 32.614 57.341 32.7973 58.0157 33.164C58.705 33.5307 59.255 33.9927 59.6657 34.55V32.812H62.7677V45H59.6657V43.218C59.2697 43.79 58.7197 44.2667 58.0157 44.648C57.3263 45.0147 56.527 45.198 55.6177 45.198C54.591 45.198 53.6523 44.934 52.8017 44.406C51.9657 43.878 51.2983 43.1373 50.7997 42.184C50.3157 41.216 50.0737 40.1087 50.0737 38.862ZM59.6657 38.906C59.6657 38.158 59.519 37.52 59.2257 36.992C58.9323 36.4493 58.5363 36.0387 58.0377 35.76C57.539 35.4667 57.0037 35.32 56.4317 35.32C55.8597 35.32 55.3317 35.4593 54.8477 35.738C54.3637 36.0167 53.9677 36.4273 53.6597 36.97C53.3663 37.498 53.2197 38.1287 53.2197 38.862C53.2197 39.5953 53.3663 40.2407 53.6597 40.798C53.9677 41.3407 54.3637 41.7587 54.8477 42.052C55.3463 42.3453 55.8743 42.492 56.4317 42.492C57.0037 42.492 57.539 42.3527 58.0377 42.074C58.5363 41.7807 58.9323 41.37 59.2257 40.842C59.519 40.2993 59.6657 39.654 59.6657 38.906ZM68.8558 28.72V45H65.7758V28.72H68.8558ZM81.3149 42.074H75.1989L74.1869 45H70.9529L76.4749 29.622H80.0609L85.5829 45H82.3269L81.3149 42.074ZM80.4789 39.61L78.2569 33.186L76.0349 39.61H80.4789ZM90.7269 29.644V45H87.6469V29.644H90.7269ZM108.428 42.074H102.312L101.3 45H98.0661L103.588 29.622H107.174L112.696 45H109.44L108.428 42.074ZM107.592 39.61L105.37 33.186L103.148 39.61H107.592ZM113.968 38.906C113.968 37.6447 114.225 36.5447 114.738 35.606C115.252 34.6527 115.963 33.9193 116.872 33.406C117.782 32.878 118.823 32.614 119.996 32.614C121.507 32.614 122.754 32.9953 123.736 33.758C124.734 34.506 125.401 35.562 125.738 36.926H122.416C122.24 36.398 121.94 35.9873 121.514 35.694C121.104 35.386 120.59 35.232 119.974 35.232C119.094 35.232 118.398 35.5547 117.884 36.2C117.371 36.8307 117.114 37.7327 117.114 38.906C117.114 40.0647 117.371 40.9667 117.884 41.612C118.398 42.2427 119.094 42.558 119.974 42.558C121.221 42.558 122.035 42.0007 122.416 40.886H125.738C125.401 42.206 124.734 43.2547 123.736 44.032C122.739 44.8093 121.492 45.198 119.996 45.198C118.823 45.198 117.782 44.9413 116.872 44.428C115.963 43.9 115.252 43.1667 114.738 42.228C114.225 41.2747 113.968 40.1673 113.968 38.906ZM127.203 38.906C127.203 37.6447 127.459 36.5447 127.973 35.606C128.486 34.6527 129.197 33.9193 130.107 33.406C131.016 32.878 132.057 32.614 133.231 32.614C134.741 32.614 135.988 32.9953 136.971 33.758C137.968 34.506 138.635 35.562 138.973 36.926H135.651C135.475 36.398 135.174 35.9873 134.749 35.694C134.338 35.386 133.825 35.232 133.209 35.232C132.329 35.232 131.632 35.5547 131.119 36.2C130.605 36.8307 130.349 37.7327 130.349 38.906C130.349 40.0647 130.605 40.9667 131.119 41.612C131.632 42.2427 132.329 42.558 133.209 42.558C134.455 42.558 135.269 42.0007 135.651 40.886H138.973C138.635 42.206 137.968 43.2547 136.971 44.032C135.973 44.8093 134.727 45.198 133.231 45.198C132.057 45.198 131.016 44.9413 130.107 44.428C129.197 43.9 128.486 43.1667 127.973 42.228C127.459 41.2747 127.203 40.1673 127.203 38.906ZM152.559 38.642C152.559 39.082 152.53 39.478 152.471 39.83H143.561C143.634 40.71 143.942 41.3993 144.485 41.898C145.028 42.3967 145.695 42.646 146.487 42.646C147.631 42.646 148.445 42.1547 148.929 41.172H152.251C151.899 42.3453 151.224 43.3133 150.227 44.076C149.23 44.824 148.005 45.198 146.553 45.198C145.38 45.198 144.324 44.9413 143.385 44.428C142.461 43.9 141.735 43.1593 141.207 42.206C140.694 41.2527 140.437 40.1527 140.437 38.906C140.437 37.6447 140.694 36.5373 141.207 35.584C141.72 34.6307 142.439 33.8973 143.363 33.384C144.287 32.8707 145.35 32.614 146.553 32.614C147.712 32.614 148.746 32.8633 149.655 33.362C150.579 33.8607 151.29 34.572 151.789 35.496C152.302 36.4053 152.559 37.454 152.559 38.642ZM149.369 37.762C149.354 36.97 149.068 36.3393 148.511 35.87C147.954 35.386 147.272 35.144 146.465 35.144C145.702 35.144 145.057 35.3787 144.529 35.848C144.016 36.3027 143.7 36.9407 143.583 37.762H149.369ZM157.887 28.72V45H154.807V28.72H157.887ZM160.138 38.862C160.138 37.63 160.38 36.5373 160.864 35.584C161.363 34.6307 162.03 33.8973 162.866 33.384C163.717 32.8707 164.663 32.614 165.704 32.614C166.613 32.614 167.405 32.7973 168.08 33.164C168.769 33.5307 169.319 33.9927 169.73 34.55V32.812H172.832V45H169.73V43.218C169.334 43.79 168.784 44.2667 168.08 44.648C167.391 45.0147 166.591 45.198 165.682 45.198C164.655 45.198 163.717 44.934 162.866 44.406C162.03 43.878 161.363 43.1373 160.864 42.184C160.38 41.216 160.138 40.1087 160.138 38.862ZM169.73 38.906C169.73 38.158 169.583 37.52 169.29 36.992C168.997 36.4493 168.601 36.0387 168.102 35.76C167.603 35.4667 167.068 35.32 166.496 35.32C165.924 35.32 165.396 35.4593 164.912 35.738C164.428 36.0167 164.032 36.4273 163.724 36.97C163.431 37.498 163.284 38.1287 163.284 38.862C163.284 39.5953 163.431 40.2407 163.724 40.798C164.032 41.3407 164.428 41.7587 164.912 42.052C165.411 42.3453 165.939 42.492 166.496 42.492C167.068 42.492 167.603 42.3527 168.102 42.074C168.601 41.7807 168.997 41.37 169.29 40.842C169.583 40.2993 169.73 39.654 169.73 38.906ZM179.426 35.342V41.238C179.426 41.6487 179.522 41.9493 179.712 42.14C179.918 42.316 180.255 42.404 180.724 42.404H182.154V45H180.218C177.622 45 176.324 43.7387 176.324 41.216V35.342H174.872V32.812H176.324V29.798H179.426V32.812H182.154V35.342H179.426ZM189.782 45.198C188.608 45.198 187.552 44.9413 186.614 44.428C185.675 43.9 184.934 43.1593 184.392 42.206C183.864 41.2527 183.6 40.1527 183.6 38.906C183.6 37.6593 183.871 36.5593 184.414 35.606C184.971 34.6527 185.726 33.9193 186.68 33.406C187.633 32.878 188.696 32.614 189.87 32.614C191.043 32.614 192.106 32.878 193.06 33.406C194.013 33.9193 194.761 34.6527 195.304 35.606C195.861 36.5593 196.14 37.6593 196.14 38.906C196.14 40.1527 195.854 41.2527 195.282 42.206C194.724 43.1593 193.962 43.9 192.994 44.428C192.04 44.9413 190.97 45.198 189.782 45.198ZM189.782 42.514C190.339 42.514 190.86 42.382 191.344 42.118C191.842 41.8393 192.238 41.4287 192.532 40.886C192.825 40.3433 192.972 39.6833 192.972 38.906C192.972 37.7473 192.664 36.86 192.048 36.244C191.446 35.6133 190.706 35.298 189.826 35.298C188.946 35.298 188.205 35.6133 187.604 36.244C187.017 36.86 186.724 37.7473 186.724 38.906C186.724 40.0647 187.01 40.9593 187.582 41.59C188.168 42.206 188.902 42.514 189.782 42.514ZM201.479 34.704C201.875 34.0587 202.388 33.5527 203.019 33.186C203.664 32.8193 204.398 32.636 205.219 32.636V35.87H204.405C203.437 35.87 202.704 36.0973 202.205 36.552C201.721 37.0067 201.479 37.7987 201.479 38.928V45H198.399V32.812H201.479V34.704Z" fill="white"/>
<path d="M76.96 107.112C76.1813 107.112 75.4773 106.979 74.848 106.712C74.2293 106.445 73.7387 106.061 73.376 105.56C73.0133 105.059 72.8267 104.467 72.816 103.784H75.216C75.248 104.243 75.408 104.605 75.696 104.872C75.9947 105.139 76.4 105.272 76.912 105.272C77.4347 105.272 77.8453 105.149 78.144 104.904C78.4427 104.648 78.592 104.317 78.592 103.912C78.592 103.581 78.4907 103.309 78.288 103.096C78.0853 102.883 77.8293 102.717 77.52 102.6C77.2213 102.472 76.8053 102.333 76.272 102.184C75.5467 101.971 74.9547 101.763 74.496 101.56C74.048 101.347 73.6587 101.032 73.328 100.616C73.008 100.189 72.848 99.624 72.848 98.92C72.848 98.2587 73.0133 97.6827 73.344 97.192C73.6747 96.7013 74.1387 96.328 74.736 96.072C75.3333 95.8053 76.016 95.672 76.784 95.672C77.936 95.672 78.8693 95.9547 79.584 96.52C80.3093 97.0747 80.7093 97.8533 80.784 98.856H78.32C78.2987 98.472 78.1333 98.1573 77.824 97.912C77.5253 97.656 77.1253 97.528 76.624 97.528C76.1867 97.528 75.8347 97.64 75.568 97.864C75.312 98.088 75.184 98.4133 75.184 98.84C75.184 99.1387 75.28 99.3893 75.472 99.592C75.6747 99.784 75.92 99.944 76.208 100.072C76.5067 100.189 76.9227 100.328 77.456 100.488C78.1813 100.701 78.7733 100.915 79.232 101.128C79.6907 101.341 80.0853 101.661 80.416 102.088C80.7467 102.515 80.912 103.075 80.912 103.768C80.912 104.365 80.7573 104.92 80.448 105.432C80.1387 105.944 79.6853 106.355 79.088 106.664C78.4907 106.963 77.7813 107.112 76.96 107.112ZM85.462 99.976V104.264C85.462 104.563 85.5313 104.781 85.67 104.92C85.8193 105.048 86.0647 105.112 86.406 105.112H87.446V107H86.038C84.15 107 83.206 106.083 83.206 104.248V99.976H82.15V98.136H83.206V95.944H85.462V98.136H87.446V99.976H85.462ZM88.4811 102.536C88.4811 101.64 88.6571 100.845 89.0091 100.152C89.3718 99.4587 89.8571 98.9253 90.4651 98.552C91.0838 98.1787 91.7718 97.992 92.5291 97.992C93.1905 97.992 93.7665 98.1253 94.2571 98.392C94.7585 98.6587 95.1585 98.9947 95.4571 99.4V98.136H97.7131V107H95.4571V105.704C95.1691 106.12 94.7691 106.467 94.2571 106.744C93.7558 107.011 93.1745 107.144 92.5131 107.144C91.7665 107.144 91.0838 106.952 90.4651 106.568C89.8571 106.184 89.3718 105.645 89.0091 104.952C88.6571 104.248 88.4811 103.443 88.4811 102.536ZM95.4571 102.568C95.4571 102.024 95.3505 101.56 95.1371 101.176C94.9238 100.781 94.6358 100.483 94.2731 100.28C93.9105 100.067 93.5211 99.96 93.1051 99.96C92.6891 99.96 92.3051 100.061 91.9531 100.264C91.6011 100.467 91.3131 100.765 91.0891 101.16C90.8758 101.544 90.7691 102.003 90.7691 102.536C90.7691 103.069 90.8758 103.539 91.0891 103.944C91.3131 104.339 91.6011 104.643 91.9531 104.856C92.3158 105.069 92.6998 105.176 93.1051 105.176C93.5211 105.176 93.9105 105.075 94.2731 104.872C94.6358 104.659 94.9238 104.36 95.1371 103.976C95.3505 103.581 95.4571 103.112 95.4571 102.568ZM102.141 99.512C102.429 99.0427 102.802 98.6747 103.261 98.408C103.73 98.1413 104.264 98.008 104.861 98.008V100.36H104.269C103.565 100.36 103.032 100.525 102.669 100.856C102.317 101.187 102.141 101.763 102.141 102.584V107H99.9009V98.136H102.141V99.512ZM108.978 99.976V104.264C108.978 104.563 109.047 104.781 109.186 104.92C109.335 105.048 109.58 105.112 109.922 105.112H110.962V107H109.554C107.666 107 106.722 106.083 106.722 104.248V99.976H105.666V98.136H106.722V95.944H108.978V98.136H110.962V99.976H108.978Z" fill="white"/>
<path d="M82.656 172H80.416L75.344 164.336V172H73.104V160.816H75.344L80.416 168.496V160.816H82.656V172ZM86.0056 162.08C85.611 162.08 85.2803 161.957 85.0136 161.712C84.7576 161.456 84.6296 161.141 84.6296 160.768C84.6296 160.395 84.7576 160.085 85.0136 159.84C85.2803 159.584 85.611 159.456 86.0056 159.456C86.4003 159.456 86.7256 159.584 86.9816 159.84C87.2483 160.085 87.3816 160.395 87.3816 160.768C87.3816 161.141 87.2483 161.456 86.9816 161.712C86.7256 161.957 86.4003 162.08 86.0056 162.08ZM87.1096 163.136V172H84.8696V163.136H87.1096ZM88.7467 167.568C88.7467 166.651 88.9334 165.851 89.3068 165.168C89.6801 164.475 90.1974 163.941 90.8588 163.568C91.5201 163.184 92.2774 162.992 93.1308 162.992C94.2294 162.992 95.1361 163.269 95.8508 163.824C96.5761 164.368 97.0614 165.136 97.3068 166.128H94.8908C94.7628 165.744 94.5441 165.445 94.2348 165.232C93.9361 165.008 93.5628 164.896 93.1148 164.896C92.4748 164.896 91.9681 165.131 91.5948 165.6C91.2214 166.059 91.0348 166.715 91.0348 167.568C91.0348 168.411 91.2214 169.067 91.5948 169.536C91.9681 169.995 92.4748 170.224 93.1148 170.224C94.0214 170.224 94.6134 169.819 94.8908 169.008H97.3068C97.0614 169.968 96.5761 170.731 95.8508 171.296C95.1254 171.861 94.2188 172.144 93.1308 172.144C92.2774 172.144 91.5201 171.957 90.8588 171.584C90.1974 171.2 89.6801 170.667 89.3068 169.984C88.9334 169.291 88.7467 168.485 88.7467 167.568ZM103.94 163.008C104.612 163.008 105.209 163.157 105.732 163.456C106.254 163.744 106.66 164.176 106.948 164.752C107.246 165.317 107.396 166 107.396 166.8V172H105.156V167.104C105.156 166.4 104.98 165.861 104.628 165.488C104.276 165.104 103.796 164.912 103.188 164.912C102.569 164.912 102.078 165.104 101.716 165.488C101.364 165.861 101.188 166.4 101.188 167.104V172H98.9478V160.16H101.188V164.24C101.476 163.856 101.86 163.557 102.34 163.344C102.82 163.12 103.353 163.008 103.94 163.008ZM117.766 167.376C117.766 167.696 117.745 167.984 117.702 168.24H111.222C111.275 168.88 111.499 169.381 111.894 169.744C112.289 170.107 112.774 170.288 113.35 170.288C114.182 170.288 114.774 169.931 115.126 169.216H117.542C117.286 170.069 116.795 170.773 116.07 171.328C115.345 171.872 114.454 172.144 113.398 172.144C112.545 172.144 111.777 171.957 111.094 171.584C110.422 171.2 109.894 170.661 109.51 169.968C109.137 169.275 108.95 168.475 108.95 167.568C108.95 166.651 109.137 165.845 109.51 165.152C109.883 164.459 110.406 163.925 111.078 163.552C111.75 163.179 112.523 162.992 113.398 162.992C114.241 162.992 114.993 163.173 115.654 163.536C116.326 163.899 116.843 164.416 117.206 165.088C117.579 165.749 117.766 166.512 117.766 167.376ZM115.446 166.736C115.435 166.16 115.227 165.701 114.822 165.36C114.417 165.008 113.921 164.832 113.334 164.832C112.779 164.832 112.31 165.003 111.926 165.344C111.553 165.675 111.323 166.139 111.238 166.736H115.446ZM131.805 172L130.589 170.8C129.555 171.728 128.291 172.192 126.797 172.192C125.976 172.192 125.251 172.053 124.621 171.776C124.003 171.488 123.523 171.088 123.181 170.576C122.84 170.053 122.669 169.451 122.669 168.768C122.669 168.032 122.877 167.371 123.293 166.784C123.709 166.197 124.323 165.723 125.133 165.36C124.845 165.008 124.637 164.672 124.509 164.352C124.381 164.021 124.317 163.669 124.317 163.296C124.317 162.784 124.451 162.325 124.717 161.92C124.984 161.504 125.363 161.179 125.853 160.944C126.355 160.709 126.936 160.592 127.597 160.592C128.269 160.592 128.845 160.72 129.325 160.976C129.805 161.232 130.163 161.573 130.397 162C130.632 162.427 130.733 162.901 130.701 163.424H128.525C128.536 163.072 128.451 162.805 128.269 162.624C128.088 162.432 127.843 162.336 127.533 162.336C127.235 162.336 126.984 162.427 126.781 162.608C126.589 162.779 126.493 163.003 126.493 163.28C126.493 163.547 126.573 163.813 126.733 164.08C126.893 164.336 127.155 164.656 127.517 165.04L130.333 167.824C130.355 167.803 130.371 167.781 130.381 167.76C130.392 167.739 130.403 167.717 130.413 167.696L131.325 166.176H133.661L132.541 168.144C132.328 168.56 132.099 168.955 131.853 169.328L134.557 172H131.805ZM126.861 170.336C127.736 170.336 128.509 170.027 129.181 169.408L126.429 166.688C125.395 167.147 124.877 167.797 124.877 168.64C124.877 169.12 125.059 169.525 125.421 169.856C125.784 170.176 126.264 170.336 126.861 170.336ZM144.663 172.112C143.618 172.112 142.658 171.867 141.783 171.376C140.908 170.885 140.215 170.208 139.703 169.344C139.191 168.469 138.935 167.483 138.935 166.384C138.935 165.296 139.191 164.32 139.703 163.456C140.215 162.581 140.908 161.899 141.783 161.408C142.658 160.917 143.618 160.672 144.663 160.672C145.719 160.672 146.679 160.917 147.543 161.408C148.418 161.899 149.106 162.581 149.607 163.456C150.119 164.32 150.375 165.296 150.375 166.384C150.375 167.483 150.119 168.469 149.607 169.344C149.106 170.208 148.418 170.885 147.543 171.376C146.668 171.867 145.708 172.112 144.663 172.112ZM144.663 170.112C145.335 170.112 145.927 169.963 146.439 169.664C146.951 169.355 147.351 168.917 147.639 168.352C147.927 167.787 148.071 167.131 148.071 166.384C148.071 165.637 147.927 164.987 147.639 164.432C147.351 163.867 146.951 163.435 146.439 163.136C145.927 162.837 145.335 162.688 144.663 162.688C143.991 162.688 143.394 162.837 142.871 163.136C142.359 163.435 141.959 163.867 141.671 164.432C141.383 164.987 141.239 165.637 141.239 166.384C141.239 167.131 141.383 167.787 141.671 168.352C141.959 168.917 142.359 169.355 142.871 169.664C143.394 169.963 143.991 170.112 144.663 170.112ZM156.106 164.976H154.554V172H152.282V164.976H151.274V163.136H152.282V162.688C152.282 161.6 152.591 160.8 153.21 160.288C153.828 159.776 154.762 159.536 156.01 159.568V161.456C155.466 161.445 155.087 161.536 154.874 161.728C154.66 161.92 154.554 162.267 154.554 162.768V163.136H156.106V164.976ZM161.621 164.976H160.069V172H157.797V164.976H156.789V163.136H157.797V162.688C157.797 161.6 158.106 160.8 158.725 160.288C159.344 159.776 160.277 159.536 161.525 159.568V161.456C160.981 161.445 160.602 161.536 160.389 161.728C160.176 161.92 160.069 162.267 160.069 162.768V163.136H161.621V164.976ZM171.313 167.376C171.313 167.696 171.291 167.984 171.249 168.24H164.769C164.822 168.88 165.046 169.381 165.441 169.744C165.835 170.107 166.321 170.288 166.897 170.288C167.729 170.288 168.321 169.931 168.673 169.216H171.089C170.833 170.069 170.342 170.773 169.617 171.328C168.891 171.872 168.001 172.144 166.945 172.144C166.091 172.144 165.323 171.957 164.641 171.584C163.969 171.2 163.441 170.661 163.057 169.968C162.683 169.275 162.497 168.475 162.497 167.568C162.497 166.651 162.683 165.845 163.057 165.152C163.43 164.459 163.953 163.925 164.625 163.552C165.297 163.179 166.07 162.992 166.945 162.992C167.787 162.992 168.539 163.173 169.201 163.536C169.873 163.899 170.39 164.416 170.753 165.088C171.126 165.749 171.313 166.512 171.313 167.376ZM168.993 166.736C168.982 166.16 168.774 165.701 168.369 165.36C167.963 165.008 167.467 164.832 166.881 164.832C166.326 164.832 165.857 165.003 165.473 165.344C165.099 165.675 164.87 166.139 164.785 166.736H168.993ZM175.188 164.512C175.476 164.043 175.849 163.675 176.308 163.408C176.777 163.141 177.31 163.008 177.908 163.008V165.36H177.316C176.612 165.36 176.078 165.525 175.716 165.856C175.364 166.187 175.188 166.763 175.188 167.584V172H172.948V163.136H175.188V164.512Z" fill="white"/>
<path d="M76.96 236.112C76.1813 236.112 75.4773 235.979 74.848 235.712C74.2293 235.445 73.7387 235.061 73.376 234.56C73.0133 234.059 72.8267 233.467 72.816 232.784H75.216C75.248 233.243 75.408 233.605 75.696 233.872C75.9947 234.139 76.4 234.272 76.912 234.272C77.4347 234.272 77.8453 234.149 78.144 233.904C78.4427 233.648 78.592 233.317 78.592 232.912C78.592 232.581 78.4907 232.309 78.288 232.096C78.0853 231.883 77.8293 231.717 77.52 231.6C77.2213 231.472 76.8053 231.333 76.272 231.184C75.5467 230.971 74.9547 230.763 74.496 230.56C74.048 230.347 73.6587 230.032 73.328 229.616C73.008 229.189 72.848 228.624 72.848 227.92C72.848 227.259 73.0133 226.683 73.344 226.192C73.6747 225.701 74.1387 225.328 74.736 225.072C75.3333 224.805 76.016 224.672 76.784 224.672C77.936 224.672 78.8693 224.955 79.584 225.52C80.3093 226.075 80.7093 226.853 80.784 227.856H78.32C78.2987 227.472 78.1333 227.157 77.824 226.912C77.5253 226.656 77.1253 226.528 76.624 226.528C76.1867 226.528 75.8347 226.64 75.568 226.864C75.312 227.088 75.184 227.413 75.184 227.84C75.184 228.139 75.28 228.389 75.472 228.592C75.6747 228.784 75.92 228.944 76.208 229.072C76.5067 229.189 76.9227 229.328 77.456 229.488C78.1813 229.701 78.7733 229.915 79.232 230.128C79.6907 230.341 80.0853 230.661 80.416 231.088C80.7467 231.515 80.912 232.075 80.912 232.768C80.912 233.365 80.7573 233.92 80.448 234.432C80.1387 234.944 79.6853 235.355 79.088 235.664C78.4907 235.963 77.7813 236.112 76.96 236.112ZM91.094 231.376C91.094 231.696 91.0727 231.984 91.03 232.24H84.55C84.6033 232.88 84.8273 233.381 85.222 233.744C85.6167 234.107 86.102 234.288 86.678 234.288C87.51 234.288 88.102 233.931 88.454 233.216H90.87C90.614 234.069 90.1233 234.773 89.398 235.328C88.6727 235.872 87.782 236.144 86.726 236.144C85.8727 236.144 85.1047 235.957 84.422 235.584C83.75 235.2 83.222 234.661 82.838 233.968C82.4647 233.275 82.278 232.475 82.278 231.568C82.278 230.651 82.4647 229.845 82.838 229.152C83.2113 228.459 83.734 227.925 84.406 227.552C85.078 227.179 85.8513 226.992 86.726 226.992C87.5687 226.992 88.3207 227.173 88.982 227.536C89.654 227.899 90.1713 228.416 90.534 229.088C90.9073 229.749 91.094 230.512 91.094 231.376ZM88.774 230.736C88.7633 230.16 88.5553 229.701 88.15 229.36C87.7447 229.008 87.2487 228.832 86.662 228.832C86.1073 228.832 85.638 229.003 85.254 229.344C84.8807 229.675 84.6513 230.139 84.566 230.736H88.774ZM95.337 228.976V233.264C95.337 233.563 95.4063 233.781 95.545 233.92C95.6943 234.048 95.9397 234.112 96.281 234.112H97.321V236H95.913C94.025 236 93.081 235.083 93.081 233.248V228.976H92.025V227.136H93.081V224.944H95.337V227.136H97.321V228.976H95.337ZM107.3 227.136V236H105.044V234.88C104.756 235.264 104.377 235.568 103.908 235.792C103.449 236.005 102.948 236.112 102.404 236.112C101.711 236.112 101.097 235.968 100.564 235.68C100.031 235.381 99.6095 234.949 99.3001 234.384C99.0015 233.808 98.8521 233.125 98.8521 232.336V227.136H101.092V232.016C101.092 232.72 101.268 233.264 101.62 233.648C101.972 234.021 102.452 234.208 103.06 234.208C103.679 234.208 104.164 234.021 104.516 233.648C104.868 233.264 105.044 232.72 105.044 232.016V227.136H107.3ZM111.75 228.416C112.038 228.011 112.433 227.675 112.934 227.408C113.446 227.131 114.028 226.992 114.678 226.992C115.436 226.992 116.118 227.179 116.726 227.552C117.345 227.925 117.83 228.459 118.182 229.152C118.545 229.835 118.726 230.629 118.726 231.536C118.726 232.443 118.545 233.248 118.182 233.952C117.83 234.645 117.345 235.184 116.726 235.568C116.118 235.952 115.436 236.144 114.678 236.144C114.028 236.144 113.452 236.011 112.95 235.744C112.46 235.477 112.06 235.141 111.75 234.736V240.224H109.51V227.136H111.75V228.416ZM116.438 231.536C116.438 231.003 116.326 230.544 116.102 230.16C115.889 229.765 115.601 229.467 115.238 229.264C114.886 229.061 114.502 228.96 114.086 228.96C113.681 228.96 113.297 229.067 112.934 229.28C112.582 229.483 112.294 229.781 112.07 230.176C111.857 230.571 111.75 231.035 111.75 231.568C111.75 232.101 111.857 232.565 112.07 232.96C112.294 233.355 112.582 233.659 112.934 233.872C113.297 234.075 113.681 234.176 114.086 234.176C114.502 234.176 114.886 234.069 115.238 233.856C115.601 233.643 115.889 233.339 116.102 232.944C116.326 232.549 116.438 232.08 116.438 231.536Z" fill="white"/>
<g clip-path="url(#clip0_1_6)">
<path d="M65 166C65 152.193 53.8071 141 40 141C26.1929 141 15 152.193 15 166C15 179.807 26.1929 191 40 191C53.8071 191 65 179.807 65 166Z" fill="black"/>
<path d="M43.3958 155.792H37.9792C32.8723 155.792 30.3189 155.792 28.7323 157.317C27.59 158.416 27.2702 159.996 27.1807 162.628H54.1944C54.1049 159.996 53.785 158.416 52.6426 157.317C51.0562 155.792 48.5027 155.792 43.3958 155.792Z" fill="#FC56FF"/>
<path d="M37.9791 176.625H43.3958C48.5026 176.625 51.0562 176.625 52.6426 175.1C54.2291 173.574 54.2291 171.119 54.2291 166.208C54.2291 165.633 54.2291 165.091 54.2266 164.581H27.1484C27.1458 165.091 27.1458 165.633 27.1458 166.208C27.1458 171.119 27.1458 173.574 28.7323 175.1C30.3188 176.625 32.8723 176.625 37.9791 176.625Z" fill="#FC56FF"/>
<path fill-rule="evenodd" clip-rule="evenodd" d="M31.5469 171.417C31.5469 170.877 32.0016 170.44 32.5625 170.44H37.9792C38.5401 170.44 38.9948 170.877 38.9948 171.417C38.9948 171.956 38.5401 172.393 37.9792 172.393H32.5625C32.0016 172.393 31.5469 171.956 31.5469 171.417Z" fill="white"/>
<path fill-rule="evenodd" clip-rule="evenodd" d="M40.3489 171.417C40.3489 170.877 40.8037 170.44 41.3646 170.44H43.3958C43.9567 170.44 44.4114 170.877 44.4114 171.417C44.4114 171.956 43.9567 172.393 43.3958 172.393H41.3646C40.8037 172.393 40.3489 171.956 40.3489 171.417Z" fill="white"/>
</g>
<g clip-path="url(#clip1_1_6)">
<path d="M65 101C65 87.1929 53.8071 76 40 76C26.1929 76 15 87.1929 15 101C15 114.807 26.1929 126 40 126C53.8071 126 65 114.807 65 101Z" fill="black"/>
<path fill-rule="evenodd" clip-rule="evenodd" d="M30.6038 100.377C29.7988 100.866 29.7987 101.66 30.6038 102.149L45.6396 111.292C46.4446 111.781 47.0972 111.479 47.0972 110.616V91.9102C47.0972 91.0474 46.4447 90.7447 45.6396 91.2342L30.6038 100.377Z" fill="#00C2FF" stroke="#00C2FF" stroke-width="0.416667"/>
</g>
<g clip-path="url(#clip2_1_6)">
<path d="M65 228C65 214.193 53.8071 203 40 203C26.1929 203 15 214.193 15 228C15 241.807 26.1929 253 40 253C53.8071 253 65 241.807 65 228Z" fill="black"/>
<path d="M52.1364 223.877C49.4228 223.877 48.3133 221.978 49.6627 219.649C50.4423 218.3 49.9775 216.579 48.6132 215.808L46.0195 214.34C44.8351 213.642 43.3058 214.058 42.6012 215.229L42.4363 215.511C41.087 217.84 38.8681 217.84 37.5037 215.511L37.3388 215.229C36.6642 214.058 35.1349 213.642 33.9505 214.34L31.3568 215.808C29.9925 216.579 29.5277 218.315 30.3073 219.664C31.6717 221.978 30.5622 223.877 27.8486 223.877C26.2894 223.877 25 225.137 25 226.695V229.305C25 230.848 26.2744 232.123 27.8486 232.123C30.5622 232.123 31.6717 234.022 30.3073 236.351C29.5277 237.7 29.9925 239.421 31.3568 240.192L33.9505 241.66C35.1349 242.358 36.6642 241.942 37.3688 240.771L37.5337 240.489C38.8831 238.16 41.1019 238.16 42.4663 240.489L42.6312 240.771C43.3358 241.942 44.8651 242.358 46.0495 241.66L48.6432 240.192C50.0075 239.421 50.4723 237.685 49.6927 236.351C48.3283 234.022 49.4378 232.123 52.1514 232.123C53.7106 232.123 55 230.863 55 229.305V226.695C54.985 225.152 53.7106 223.877 52.1364 223.877ZM39.9925 232.82C37.3088 232.82 35.1199 230.655 35.1199 228C35.1199 225.345 37.3088 223.18 39.9925 223.18C42.6762 223.18 44.8651 225.345 44.8651 228C44.8651 230.655 42.6762 232.82 39.9925 232.82Z" fill="#FF9B26" stroke="#FF9B26" stroke-width="0.00666667"/>
</g>
<defs>
<filter id="filter0_bi_1_6" x="-30.4021" y="-30.4021" width="395.804" height="340.804" filterUnits="userSpaceOnUse" color-interpolation-filters="sRGB">
<feFlood flood-opacity="0" result="BackgroundImageFix"/>
<feGaussianBlur in="BackgroundImageFix" stdDeviation="15.2011"/>
<feComposite in2="SourceAlpha" operator="in" result="effect1_backgroundBlur_1_6"/>
<feBlend mode="normal" in="SourceGraphic" in2="effect1_backgroundBlur_1_6" result="shape"/>
<feColorMatrix in="SourceAlpha" type="matrix" values="0 0 0 0 0 0 0 0 0 0 0 0 0 0 0 0 0 0 127 0" result="hardAlpha"/>
<feOffset dx="-0.243217" dy="-0.243217"/>
<feGaussianBlur stdDeviation="0.182413"/>
<feComposite in2="hardAlpha" operator="arithmetic" k2="-1" k3="1"/>
<feColorMatrix type="matrix" values="0 0 0 0 0 0 0 0 0 0 0 0 0 0 0 0 0 0 0.36 0"/>
<feBlend mode="normal" in2="shape" result="effect2_innerShadow_1_6"/>
</filter>
<linearGradient id="paint0_linear_1_6" x1="-1717.5" y1="-637" x2="337.282" y2="278.88" gradientUnits="userSpaceOnUse">
<stop stop-color="white"/>
<stop offset="0.973958" stop-color="#212121"/>
</linearGradient>
<clipPath id="clip0_1_6">
<rect x="15" y="141" width="50" height="50" rx="25" fill="white"/>
</clipPath>
<clipPath id="clip1_1_6">
<rect x="15" y="76" width="50" height="50" rx="25" fill="white"/>
</clipPath>
<clipPath id="clip2_1_6">
<rect x="15" y="203" width="50" height="50" rx="25" fill="white"/>
</clipPath>
</defs>
</svg>
