<svg width="193" height="160" viewBox="0 0 193 160" fill="none" xmlns="http://www.w3.org/2000/svg">
<g filter="url(#filter0_b_1_18)">
<rect x="1" y="1" width="191" height="158" rx="20" fill="url(#paint0_linear_1_18)"/>
<rect x="0.5" y="0.5" width="192" height="159" rx="20.5" stroke="#3D3D3D"/>
</g>
<rect x="80" y="16" width="34" height="34" rx="10" fill="#00030C"/>
<path d="M14.8881 61.395V63.67H17.9431V65.113H14.8881V67.518H18.3331V69H13.0681V59.913H18.3331V61.395H14.8881ZM24.1081 61.694C24.9661 61.694 25.6594 61.967 26.1881 62.513C26.7167 63.0503 26.9811 63.8043 26.9811 64.775V69H25.1611V65.022C25.1611 64.45 25.0181 64.0123 24.7321 63.709C24.4461 63.397 24.0561 63.241 23.5621 63.241C23.0594 63.241 22.6607 63.397 22.3661 63.709C22.0801 64.0123 21.9371 64.45 21.9371 65.022V69H20.1171V61.798H21.9371V62.695C22.1797 62.383 22.4874 62.1403 22.8601 61.967C23.2414 61.785 23.6574 61.694 24.1081 61.694ZM32.8978 61.694C33.4438 61.694 33.9291 61.8153 34.3538 62.058C34.7785 62.292 35.1078 62.643 35.3418 63.111C35.5845 63.5703 35.7058 64.125 35.7058 64.775V69H33.8858V65.022C33.8858 64.45 33.7428 64.0123 33.4568 63.709C33.1708 63.397 32.7808 63.241 32.2868 63.241C31.7841 63.241 31.3855 63.397 31.0908 63.709C30.8048 64.0123 30.6618 64.45 30.6618 65.022V69H28.8418V59.38H30.6618V62.695C30.8958 62.383 31.2078 62.1403 31.5978 61.967C31.9878 61.785 32.4211 61.694 32.8978 61.694ZM37.0985 65.373C37.0985 64.645 37.2415 63.9993 37.5275 63.436C37.8222 62.8727 38.2165 62.4393 38.7105 62.136C39.2132 61.8327 39.7722 61.681 40.3875 61.681C40.9249 61.681 41.3929 61.7893 41.7915 62.006C42.1989 62.2227 42.5239 62.4957 42.7665 62.825V61.798H44.5995V69H42.7665V67.947C42.5325 68.285 42.2075 68.5667 41.7915 68.792C41.3842 69.0087 40.9119 69.117 40.3745 69.117C39.7679 69.117 39.2132 68.961 38.7105 68.649C38.2165 68.337 37.8222 67.8993 37.5275 67.336C37.2415 66.764 37.0985 66.1097 37.0985 65.373ZM42.7665 65.399C42.7665 64.957 42.6799 64.58 42.5065 64.268C42.3332 63.9473 42.0992 63.7047 41.8045 63.54C41.5099 63.3667 41.1935 63.28 40.8555 63.28C40.5175 63.28 40.2055 63.3623 39.9195 63.527C39.6335 63.6917 39.3995 63.9343 39.2175 64.255C39.0442 64.567 38.9575 64.9397 38.9575 65.373C38.9575 65.8063 39.0442 66.1877 39.2175 66.517C39.3995 66.8377 39.6335 67.0847 39.9195 67.258C40.2142 67.4313 40.5262 67.518 40.8555 67.518C41.1935 67.518 41.5099 67.4357 41.8045 67.271C42.0992 67.0977 42.3332 66.855 42.5065 66.543C42.6799 66.2223 42.7665 65.841 42.7665 65.399ZM50.4981 61.694C51.3561 61.694 52.0494 61.967 52.5781 62.513C53.1067 63.0503 53.3711 63.8043 53.3711 64.775V69H51.5511V65.022C51.5511 64.45 51.4081 64.0123 51.1221 63.709C50.8361 63.397 50.4461 63.241 49.9521 63.241C49.4494 63.241 49.0507 63.397 48.7561 63.709C48.4701 64.0123 48.3271 64.45 48.3271 65.022V69H46.5071V61.798H48.3271V62.695C48.5697 62.383 48.8774 62.1403 49.2501 61.967C49.6314 61.785 50.0474 61.694 50.4981 61.694ZM54.7638 65.399C54.7638 64.6537 54.9155 64.0037 55.2188 63.449C55.5221 62.8857 55.9425 62.4523 56.4798 62.149C57.0171 61.837 57.6325 61.681 58.3258 61.681C59.2185 61.681 59.9551 61.9063 60.5358 62.357C61.1251 62.799 61.5195 63.423 61.7188 64.229H59.7558C59.6518 63.917 59.4741 63.6743 59.2228 63.501C58.9801 63.319 58.6768 63.228 58.3128 63.228C57.7928 63.228 57.3811 63.4187 57.0778 63.8C56.7745 64.1727 56.6228 64.7057 56.6228 65.399C56.6228 66.0837 56.7745 66.6167 57.0778 66.998C57.3811 67.3707 57.7928 67.557 58.3128 67.557C59.0495 67.557 59.5305 67.2277 59.7558 66.569H61.7188C61.5195 67.349 61.1251 67.9687 60.5358 68.428C59.9465 68.8873 59.2098 69.117 58.3258 69.117C57.6325 69.117 57.0171 68.9653 56.4798 68.662C55.9425 68.35 55.5221 67.9167 55.2188 67.362C54.9155 66.7987 54.7638 66.1443 54.7638 65.399ZM69.8771 65.243C69.8771 65.503 69.8598 65.737 69.8251 65.945H64.5601C64.6035 66.465 64.7855 66.8723 65.1061 67.167C65.4268 67.4617 65.8211 67.609 66.2891 67.609C66.9651 67.609 67.4461 67.3187 67.7321 66.738H69.6951C69.4871 67.4313 69.0885 68.0033 68.4991 68.454C67.9098 68.896 67.1861 69.117 66.3281 69.117C65.6348 69.117 65.0108 68.9653 64.4561 68.662C63.9101 68.35 63.4811 67.9123 63.1691 67.349C62.8658 66.7857 62.7141 66.1357 62.7141 65.399C62.7141 64.6537 62.8658 63.9993 63.1691 63.436C63.4725 62.8727 63.8971 62.4393 64.4431 62.136C64.9891 61.8327 65.6175 61.681 66.3281 61.681C67.0128 61.681 67.6238 61.8283 68.1611 62.123C68.7071 62.4177 69.1275 62.838 69.4221 63.384C69.7255 63.9213 69.8771 64.541 69.8771 65.243ZM67.9921 64.723C67.9835 64.255 67.8145 63.8823 67.4851 63.605C67.1558 63.319 66.7528 63.176 66.2761 63.176C65.8255 63.176 65.4441 63.3147 65.1321 63.592C64.8288 63.8607 64.6425 64.2377 64.5731 64.723H67.9921ZM84.5472 61.798L82.4412 69H80.4782L79.1652 63.969L77.8522 69H75.8762L73.7572 61.798H75.6032L76.8772 67.284L78.2552 61.798H80.1792L81.5312 67.271L82.8052 61.798H84.5472ZM86.585 60.94C86.2643 60.94 85.9956 60.8403 85.779 60.641C85.571 60.433 85.467 60.1773 85.467 59.874C85.467 59.5707 85.571 59.3193 85.779 59.12C85.9956 58.912 86.2643 58.808 86.585 58.808C86.9056 58.808 87.17 58.912 87.378 59.12C87.5946 59.3193 87.703 59.5707 87.703 59.874C87.703 60.1773 87.5946 60.433 87.378 60.641C87.17 60.8403 86.9056 60.94 86.585 60.94ZM87.482 61.798V69H85.662V61.798H87.482ZM91.5291 63.293V66.777C91.5291 67.0197 91.5855 67.1973 91.6981 67.31C91.8195 67.414 92.0188 67.466 92.2961 67.466H93.1411V69H91.9971C90.4631 69 89.6961 68.2547 89.6961 66.764V63.293H88.8381V61.798H89.6961V60.017H91.5291V61.798H93.1411V63.293H91.5291ZM98.6362 61.694C99.1822 61.694 99.6675 61.8153 100.092 62.058C100.517 62.292 100.846 62.643 101.08 63.111C101.323 63.5703 101.444 64.125 101.444 64.775V69H99.6242V65.022C99.6242 64.45 99.4812 64.0123 99.1952 63.709C98.9092 63.397 98.5192 63.241 98.0252 63.241C97.5225 63.241 97.1238 63.397 96.8292 63.709C96.5432 64.0123 96.4002 64.45 96.4002 65.022V69H94.5802V59.38H96.4002V62.695C96.6342 62.383 96.9462 62.1403 97.3362 61.967C97.7262 61.785 98.1595 61.694 98.6362 61.694ZM106.091 64.45C106.091 63.5573 106.29 62.76 106.689 62.058C107.096 61.3473 107.646 60.797 108.34 60.407C109.042 60.0083 109.826 59.809 110.693 59.809C111.707 59.809 112.595 60.069 113.358 60.589C114.12 61.109 114.653 61.8283 114.957 62.747H112.864C112.656 62.3137 112.361 61.9887 111.98 61.772C111.607 61.5553 111.174 61.447 110.68 61.447C110.151 61.447 109.679 61.5727 109.263 61.824C108.855 62.0667 108.535 62.4133 108.301 62.864C108.075 63.3147 107.963 63.8433 107.963 64.45C107.963 65.048 108.075 65.5767 108.301 66.036C108.535 66.4867 108.855 66.8377 109.263 67.089C109.679 67.3317 110.151 67.453 110.68 67.453C111.174 67.453 111.607 67.3447 111.98 67.128C112.361 66.9027 112.656 66.5733 112.864 66.14H114.957C114.653 67.0673 114.12 67.791 113.358 68.311C112.604 68.8223 111.715 69.078 110.693 69.078C109.826 69.078 109.042 68.883 108.34 68.493C107.646 68.0943 107.096 67.544 106.689 66.842C106.29 66.14 106.091 65.3427 106.091 64.45ZM116.173 65.373C116.173 64.645 116.316 63.9993 116.602 63.436C116.897 62.8727 117.291 62.4393 117.785 62.136C118.288 61.8327 118.847 61.681 119.462 61.681C119.999 61.681 120.467 61.7893 120.866 62.006C121.273 62.2227 121.598 62.4957 121.841 62.825V61.798H123.674V69H121.841V67.947C121.607 68.285 121.282 68.5667 120.866 68.792C120.459 69.0087 119.986 69.117 119.449 69.117C118.842 69.117 118.288 68.961 117.785 68.649C117.291 68.337 116.897 67.8993 116.602 67.336C116.316 66.764 116.173 66.1097 116.173 65.373ZM121.841 65.399C121.841 64.957 121.754 64.58 121.581 64.268C121.408 63.9473 121.174 63.7047 120.879 63.54C120.584 63.3667 120.268 63.28 119.93 63.28C119.592 63.28 119.28 63.3623 118.994 63.527C118.708 63.6917 118.474 63.9343 118.292 64.255C118.119 64.567 118.032 64.9397 118.032 65.373C118.032 65.8063 118.119 66.1877 118.292 66.517C118.474 66.8377 118.708 67.0847 118.994 67.258C119.289 67.4313 119.601 67.518 119.93 67.518C120.268 67.518 120.584 67.4357 120.879 67.271C121.174 67.0977 121.408 66.855 121.581 66.543C121.754 66.2223 121.841 65.841 121.841 65.399ZM134.526 61.694C135.41 61.694 136.12 61.967 136.658 62.513C137.204 63.0503 137.477 63.8043 137.477 64.775V69H135.657V65.022C135.657 64.4587 135.514 64.0297 135.228 63.735C134.942 63.4317 134.552 63.28 134.058 63.28C133.564 63.28 133.169 63.4317 132.875 63.735C132.589 64.0297 132.446 64.4587 132.446 65.022V69H130.626V65.022C130.626 64.4587 130.483 64.0297 130.197 63.735C129.911 63.4317 129.521 63.28 129.027 63.28C128.524 63.28 128.125 63.4317 127.831 63.735C127.545 64.0297 127.402 64.4587 127.402 65.022V69H125.582V61.798H127.402V62.669C127.636 62.3657 127.935 62.1273 128.299 61.954C128.671 61.7807 129.079 61.694 129.521 61.694C130.084 61.694 130.587 61.8153 131.029 62.058C131.471 62.292 131.813 62.63 132.056 63.072C132.29 62.656 132.628 62.3223 133.07 62.071C133.52 61.8197 134.006 61.694 134.526 61.694ZM141.154 62.838C141.388 62.5087 141.708 62.2357 142.116 62.019C142.532 61.7937 143.004 61.681 143.533 61.681C144.148 61.681 144.703 61.8327 145.197 62.136C145.699 62.4393 146.094 62.8727 146.38 63.436C146.674 63.9907 146.822 64.6363 146.822 65.373C146.822 66.1097 146.674 66.764 146.38 67.336C146.094 67.8993 145.699 68.337 145.197 68.649C144.703 68.961 144.148 69.117 143.533 69.117C143.004 69.117 142.536 69.0087 142.129 68.792C141.73 68.5753 141.405 68.3023 141.154 67.973V72.432H139.334V61.798H141.154V62.838ZM144.963 65.373C144.963 64.9397 144.872 64.567 144.69 64.255C144.516 63.9343 144.282 63.6917 143.988 63.527C143.702 63.3623 143.39 63.28 143.052 63.28C142.722 63.28 142.41 63.3667 142.116 63.54C141.83 63.7047 141.596 63.9473 141.414 64.268C141.24 64.5887 141.154 64.9657 141.154 65.399C141.154 65.8323 141.24 66.2093 141.414 66.53C141.596 66.8507 141.83 67.0977 142.116 67.271C142.41 67.4357 142.722 67.518 143.052 67.518C143.39 67.518 143.702 67.4313 143.988 67.258C144.282 67.0847 144.516 66.8377 144.69 66.517C144.872 66.1963 144.963 65.815 144.963 65.373ZM147.806 65.373C147.806 64.645 147.949 63.9993 148.235 63.436C148.53 62.8727 148.924 62.4393 149.418 62.136C149.921 61.8327 150.48 61.681 151.095 61.681C151.633 61.681 152.101 61.7893 152.499 62.006C152.907 62.2227 153.232 62.4957 153.474 62.825V61.798H155.307V69H153.474V67.947C153.24 68.285 152.915 68.5667 152.499 68.792C152.092 69.0087 151.62 69.117 151.082 69.117C150.476 69.117 149.921 68.961 149.418 68.649C148.924 68.337 148.53 67.8993 148.235 67.336C147.949 66.764 147.806 66.1097 147.806 65.373ZM153.474 65.399C153.474 64.957 153.388 64.58 153.214 64.268C153.041 63.9473 152.807 63.7047 152.512 63.54C152.218 63.3667 151.901 63.28 151.563 63.28C151.225 63.28 150.913 63.3623 150.627 63.527C150.341 63.6917 150.107 63.9343 149.925 64.255C149.752 64.567 149.665 64.9397 149.665 65.373C149.665 65.8063 149.752 66.1877 149.925 66.517C150.107 66.8377 150.341 67.0847 150.627 67.258C150.922 67.4313 151.234 67.518 151.563 67.518C151.901 67.518 152.218 67.4357 152.512 67.271C152.807 67.0977 153.041 66.855 153.214 66.543C153.388 66.2223 153.474 65.841 153.474 65.399ZM158.138 60.94C157.817 60.94 157.548 60.8403 157.332 60.641C157.124 60.433 157.02 60.1773 157.02 59.874C157.02 59.5707 157.124 59.3193 157.332 59.12C157.548 58.912 157.817 58.808 158.138 58.808C158.458 58.808 158.723 58.912 158.931 59.12C159.147 59.3193 159.256 59.5707 159.256 59.874C159.256 60.1773 159.147 60.433 158.931 60.641C158.723 60.8403 158.458 60.94 158.138 60.94ZM159.035 61.798V69H157.215V61.798H159.035ZM163.784 61.681C164.321 61.681 164.794 61.7893 165.201 62.006C165.608 62.214 165.929 62.487 166.163 62.825V61.798H167.996V69.052C167.996 69.7193 167.862 70.313 167.593 70.833C167.324 71.3617 166.921 71.7777 166.384 72.081C165.847 72.393 165.197 72.549 164.434 72.549C163.411 72.549 162.571 72.3107 161.912 71.834C161.262 71.3573 160.894 70.7073 160.807 69.884H162.614C162.709 70.2133 162.913 70.4733 163.225 70.664C163.546 70.8633 163.931 70.963 164.382 70.963C164.911 70.963 165.34 70.8027 165.669 70.482C165.998 70.17 166.163 69.6933 166.163 69.052V67.934C165.929 68.272 165.604 68.5537 165.188 68.779C164.781 69.0043 164.313 69.117 163.784 69.117C163.177 69.117 162.623 68.961 162.12 68.649C161.617 68.337 161.219 67.8993 160.924 67.336C160.638 66.764 160.495 66.1097 160.495 65.373C160.495 64.645 160.638 63.9993 160.924 63.436C161.219 62.8727 161.613 62.4393 162.107 62.136C162.61 61.8327 163.169 61.681 163.784 61.681ZM166.163 65.399C166.163 64.957 166.076 64.58 165.903 64.268C165.73 63.9473 165.496 63.7047 165.201 63.54C164.906 63.3667 164.59 63.28 164.252 63.28C163.914 63.28 163.602 63.3623 163.316 63.527C163.03 63.6917 162.796 63.9343 162.614 64.255C162.441 64.567 162.354 64.9397 162.354 65.373C162.354 65.8063 162.441 66.1877 162.614 66.517C162.796 66.8377 163.03 67.0847 163.316 67.258C163.611 67.4313 163.923 67.518 164.252 67.518C164.59 67.518 164.906 67.4357 165.201 67.271C165.496 67.0977 165.73 66.855 165.903 66.543C166.076 66.2223 166.163 65.841 166.163 65.399ZM173.895 61.694C174.753 61.694 175.446 61.967 175.975 62.513C176.503 63.0503 176.768 63.8043 176.768 64.775V69H174.948V65.022C174.948 64.45 174.805 64.0123 174.519 63.709C174.233 63.397 173.843 63.241 173.349 63.241C172.846 63.241 172.447 63.397 172.153 63.709C171.867 64.0123 171.724 64.45 171.724 65.022V69H169.904V61.798H171.724V62.695C171.966 62.383 172.274 62.1403 172.647 61.967C173.028 61.785 173.444 61.694 173.895 61.694ZM69.1968 88.271H65.5828L64.9848 90H63.0738L66.3368 80.913H68.4558L71.7188 90H69.7948L69.1968 88.271ZM68.7028 86.815L67.3898 83.019L66.0768 86.815H68.7028ZM77.0595 82.694C77.9175 82.694 78.6108 82.967 79.1395 83.513C79.6681 84.0503 79.9325 84.8043 79.9325 85.775V90H78.1125V86.022C78.1125 85.45 77.9695 85.0123 77.6835 84.709C77.3975 84.397 77.0075 84.241 76.5135 84.241C76.0108 84.241 75.6121 84.397 75.3175 84.709C75.0315 85.0123 74.8885 85.45 74.8885 86.022V90H73.0685V82.798H74.8885V83.695C75.1311 83.383 75.4388 83.1403 75.8115 82.967C76.1928 82.785 76.6088 82.694 77.0595 82.694ZM81.3252 86.373C81.3252 85.645 81.4682 84.9993 81.7542 84.436C82.0489 83.8727 82.4432 83.4393 82.9372 83.136C83.4399 82.8327 83.9989 82.681 84.6142 82.681C85.1515 82.681 85.6195 82.7893 86.0182 83.006C86.4255 83.2227 86.7505 83.4957 86.9932 83.825V82.798H88.8262V90H86.9932V88.947C86.7592 89.285 86.4342 89.5667 86.0182 89.792C85.6109 90.0087 85.1385 90.117 84.6012 90.117C83.9945 90.117 83.4399 89.961 82.9372 89.649C82.4432 89.337 82.0489 88.8993 81.7542 88.336C81.4682 87.764 81.3252 87.1097 81.3252 86.373ZM86.9932 86.399C86.9932 85.957 86.9065 85.58 86.7332 85.268C86.5599 84.9473 86.3259 84.7047 86.0312 84.54C85.7365 84.3667 85.4202 84.28 85.0822 84.28C84.7442 84.28 84.4322 84.3623 84.1462 84.527C83.8602 84.6917 83.6262 84.9343 83.4442 85.255C83.2709 85.567 83.1842 85.9397 83.1842 86.373C83.1842 86.8063 83.2709 87.1877 83.4442 87.517C83.6262 87.8377 83.8602 88.0847 84.1462 88.258C84.4409 88.4313 84.7529 88.518 85.0822 88.518C85.4202 88.518 85.7365 88.4357 86.0312 88.271C86.3259 88.0977 86.5599 87.855 86.7332 87.543C86.9065 87.2223 86.9932 86.841 86.9932 86.399ZM92.5537 80.38V90H90.7337V80.38H92.5537ZM101.372 82.798L96.9129 93.406H94.9759L96.5359 89.818L93.6499 82.798H95.6909L97.5499 87.829L99.4349 82.798H101.372ZM104.602 84.293V87.777C104.602 88.0197 104.658 88.1973 104.771 88.31C104.892 88.414 105.092 88.466 105.369 88.466H106.214V90H105.07C103.536 90 102.769 89.2547 102.769 87.764V84.293H101.911V82.798H102.769V81.017H104.602V82.798H106.214V84.293H104.602ZM108.576 81.94C108.255 81.94 107.987 81.8403 107.77 81.641C107.562 81.433 107.458 81.1773 107.458 80.874C107.458 80.5707 107.562 80.3193 107.77 80.12C107.987 79.912 108.255 79.808 108.576 79.808C108.897 79.808 109.161 79.912 109.369 80.12C109.586 80.3193 109.694 80.5707 109.694 80.874C109.694 81.1773 109.586 81.433 109.369 81.641C109.161 81.8403 108.897 81.94 108.576 81.94ZM109.473 82.798V90H107.653V82.798H109.473ZM110.933 86.399C110.933 85.6537 111.085 85.0037 111.388 84.449C111.692 83.8857 112.112 83.4523 112.649 83.149C113.187 82.837 113.802 82.681 114.495 82.681C115.388 82.681 116.125 82.9063 116.705 83.357C117.295 83.799 117.689 84.423 117.888 85.229H115.925C115.821 84.917 115.644 84.6743 115.392 84.501C115.15 84.319 114.846 84.228 114.482 84.228C113.962 84.228 113.551 84.4187 113.247 84.8C112.944 85.1727 112.792 85.7057 112.792 86.399C112.792 87.0837 112.944 87.6167 113.247 87.998C113.551 88.3707 113.962 88.557 114.482 88.557C115.219 88.557 115.7 88.2277 115.925 87.569H117.888C117.689 88.349 117.295 88.9687 116.705 89.428C116.116 89.8873 115.379 90.117 114.495 90.117C113.802 90.117 113.187 89.9653 112.649 89.662C112.112 89.35 111.692 88.9167 111.388 88.362C111.085 87.7987 110.933 87.1443 110.933 86.399ZM122.108 90.117C121.518 90.117 120.99 90.013 120.522 89.805C120.054 89.5883 119.681 89.298 119.404 88.934C119.135 88.57 118.988 88.167 118.962 87.725H120.795C120.829 88.0023 120.964 88.232 121.198 88.414C121.44 88.596 121.739 88.687 122.095 88.687C122.441 88.687 122.71 88.6177 122.901 88.479C123.1 88.3403 123.2 88.1627 123.2 87.946C123.2 87.712 123.078 87.5387 122.836 87.426C122.602 87.3047 122.225 87.1747 121.705 87.036C121.167 86.906 120.725 86.7717 120.379 86.633C120.041 86.4943 119.746 86.282 119.495 85.996C119.252 85.71 119.131 85.3243 119.131 84.839C119.131 84.4403 119.243 84.0763 119.469 83.747C119.703 83.4177 120.032 83.1577 120.457 82.967C120.89 82.7763 121.397 82.681 121.978 82.681C122.836 82.681 123.52 82.8977 124.032 83.331C124.543 83.7557 124.825 84.332 124.877 85.06H123.135C123.109 84.774 122.987 84.5487 122.771 84.384C122.563 84.2107 122.281 84.124 121.926 84.124C121.596 84.124 121.341 84.1847 121.159 84.306C120.985 84.4273 120.899 84.5963 120.899 84.813C120.899 85.0557 121.02 85.242 121.263 85.372C121.505 85.4933 121.882 85.619 122.394 85.749C122.914 85.879 123.343 86.0133 123.681 86.152C124.019 86.2907 124.309 86.5073 124.552 86.802C124.803 87.088 124.933 87.4693 124.942 87.946C124.942 88.362 124.825 88.7347 124.591 89.064C124.365 89.3933 124.036 89.6533 123.603 89.844C123.178 90.026 122.68 90.117 122.108 90.117ZM128.918 80.77L128.71 87.049H127.176L126.955 80.77H128.918ZM127.982 90.091C127.653 90.091 127.38 89.9913 127.163 89.792C126.955 89.584 126.851 89.3283 126.851 89.025C126.851 88.7217 126.955 88.4703 127.163 88.271C127.38 88.063 127.653 87.959 127.982 87.959C128.303 87.959 128.567 88.063 128.775 88.271C128.983 88.4703 129.087 88.7217 129.087 89.025C129.087 89.3283 128.983 89.584 128.775 89.792C128.567 89.9913 128.303 90.091 127.982 90.091Z" fill="white"/>
<path d="M29.3996 105.14H25.7516L25.0796 107H23.9276L26.9516 98.684H28.2116L31.2236 107H30.0716L29.3996 105.14ZM29.0876 104.252L27.5756 100.028L26.0636 104.252H29.0876ZM32.2535 103.688C32.2535 103.016 32.3895 102.428 32.6615 101.924C32.9335 101.412 33.3055 101.016 33.7775 100.736C34.2575 100.456 34.7935 100.316 35.3855 100.316C35.8975 100.316 36.3735 100.436 36.8135 100.676C37.2535 100.908 37.5895 101.216 37.8215 101.6V98.12H38.9255V107H37.8215V105.764C37.6055 106.156 37.2855 106.48 36.8615 106.736C36.4375 106.984 35.9415 107.108 35.3735 107.108C34.7895 107.108 34.2575 106.964 33.7775 106.676C33.3055 106.388 32.9335 105.984 32.6615 105.464C32.3895 104.944 32.2535 104.352 32.2535 103.688ZM37.8215 103.7C37.8215 103.204 37.7215 102.772 37.5215 102.404C37.3215 102.036 37.0495 101.756 36.7055 101.564C36.3695 101.364 35.9975 101.264 35.5895 101.264C35.1815 101.264 34.8095 101.36 34.4735 101.552C34.1375 101.744 33.8695 102.024 33.6695 102.392C33.4695 102.76 33.3695 103.192 33.3695 103.688C33.3695 104.192 33.4695 104.632 33.6695 105.008C33.8695 105.376 34.1375 105.66 34.4735 105.86C34.8095 106.052 35.1815 106.148 35.5895 106.148C35.9975 106.148 36.3695 106.052 36.7055 105.86C37.0495 105.66 37.3215 105.376 37.5215 105.008C37.7215 104.632 37.8215 104.196 37.8215 103.7ZM41.4789 99.356C41.2709 99.356 41.0949 99.284 40.9509 99.14C40.8149 98.996 40.7469 98.82 40.7469 98.612C40.7469 98.404 40.8149 98.228 40.9509 98.084C41.0949 97.94 41.2709 97.868 41.4789 97.868C41.6869 97.868 41.8589 97.94 41.9949 98.084C42.1389 98.228 42.2109 98.404 42.2109 98.612C42.2109 98.82 42.1389 98.996 41.9949 99.14C41.8589 99.284 41.6869 99.356 41.4789 99.356ZM42.0189 108.428C42.0189 109.012 41.8709 109.44 41.5749 109.712C41.2789 109.984 40.8469 110.12 40.2789 110.12H39.6429V109.196H40.0989C40.4029 109.196 40.6149 109.136 40.7349 109.016C40.8629 108.896 40.9269 108.692 40.9269 108.404V100.424H42.0189V108.428ZM49.8194 100.424V107H48.7274V106.028C48.5194 106.364 48.2274 106.628 47.8514 106.82C47.4834 107.004 47.0754 107.096 46.6274 107.096C46.1154 107.096 45.6554 106.992 45.2474 106.784C44.8394 106.568 44.5154 106.248 44.2754 105.824C44.0434 105.4 43.9274 104.884 43.9274 104.276V100.424H45.0074V104.132C45.0074 104.78 45.1714 105.28 45.4994 105.632C45.8274 105.976 46.2754 106.148 46.8434 106.148C47.4274 106.148 47.8874 105.968 48.2234 105.608C48.5594 105.248 48.7274 104.724 48.7274 104.036V100.424H49.8194ZM54.1112 107.108C53.6072 107.108 53.1552 107.024 52.7552 106.856C52.3552 106.68 52.0392 106.44 51.8072 106.136C51.5752 105.824 51.4472 105.468 51.4232 105.068H52.5512C52.5832 105.396 52.7352 105.664 53.0072 105.872C53.2872 106.08 53.6512 106.184 54.0992 106.184C54.5152 106.184 54.8432 106.092 55.0832 105.908C55.3232 105.724 55.4432 105.492 55.4432 105.212C55.4432 104.924 55.3152 104.712 55.0592 104.576C54.8032 104.432 54.4072 104.292 53.8712 104.156C53.3832 104.028 52.9832 103.9 52.6712 103.772C52.3672 103.636 52.1032 103.44 51.8792 103.184C51.6632 102.92 51.5552 102.576 51.5552 102.152C51.5552 101.816 51.6552 101.508 51.8552 101.228C52.0552 100.948 52.3392 100.728 52.7072 100.568C53.0752 100.4 53.4952 100.316 53.9672 100.316C54.6952 100.316 55.2832 100.5 55.7312 100.868C56.1792 101.236 56.4192 101.74 56.4512 102.38H55.3592C55.3352 102.036 55.1952 101.76 54.9392 101.552C54.6912 101.344 54.3552 101.24 53.9312 101.24C53.5392 101.24 53.2272 101.324 52.9952 101.492C52.7632 101.66 52.6472 101.88 52.6472 102.152C52.6472 102.368 52.7152 102.548 52.8512 102.692C52.9952 102.828 53.1712 102.94 53.3792 103.028C53.5952 103.108 53.8912 103.2 54.2672 103.304C54.7392 103.432 55.1232 103.56 55.4192 103.688C55.7152 103.808 55.9672 103.992 56.1752 104.24C56.3912 104.488 56.5032 104.812 56.5112 105.212C56.5112 105.572 56.4112 105.896 56.2112 106.184C56.0112 106.472 55.7272 106.7 55.3592 106.868C54.9992 107.028 54.5832 107.108 54.1112 107.108ZM59.5047 101.324V105.2C59.5047 105.52 59.5727 105.748 59.7087 105.884C59.8447 106.012 60.0807 106.076 60.4167 106.076H61.2207V107H60.2367C59.6287 107 59.1727 106.86 58.8687 106.58C58.5647 106.3 58.4127 105.84 58.4127 105.2V101.324H57.5607V100.424H58.4127V98.768H59.5047V100.424H61.2207V101.324H59.5047ZM71.8151 100.424V107H70.7231V106.028C70.5151 106.364 70.2231 106.628 69.8471 106.82C69.4791 107.004 69.0711 107.096 68.6231 107.096C68.1111 107.096 67.6511 106.992 67.2431 106.784C66.8351 106.568 66.5111 106.248 66.2711 105.824C66.0391 105.4 65.9231 104.884 65.9231 104.276V100.424H67.0031V104.132C67.0031 104.78 67.1671 105.28 67.4951 105.632C67.8231 105.976 68.2711 106.148 68.8391 106.148C69.4231 106.148 69.8831 105.968 70.2191 105.608C70.5551 105.248 70.7231 104.724 70.7231 104.036V100.424H71.8151ZM76.9828 100.304C77.7828 100.304 78.4308 100.548 78.9268 101.036C79.4228 101.516 79.6708 102.212 79.6708 103.124V107H78.5908V103.28C78.5908 102.624 78.4268 102.124 78.0988 101.78C77.7708 101.428 77.3228 101.252 76.7548 101.252C76.1788 101.252 75.7188 101.432 75.3748 101.792C75.0388 102.152 74.8708 102.676 74.8708 103.364V107H73.7788V100.424H74.8708V101.36C75.0868 101.024 75.3788 100.764 75.7468 100.58C76.1228 100.396 76.5348 100.304 76.9828 100.304ZM81.1666 103.688C81.1666 103.016 81.3026 102.428 81.5746 101.924C81.8466 101.412 82.2186 101.016 82.6906 100.736C83.1706 100.456 83.7066 100.316 84.2986 100.316C84.8106 100.316 85.2866 100.436 85.7266 100.676C86.1666 100.908 86.5026 101.216 86.7346 101.6V98.12H87.8386V107H86.7346V105.764C86.5186 106.156 86.1986 106.48 85.7746 106.736C85.3506 106.984 84.8546 107.108 84.2866 107.108C83.7026 107.108 83.1706 106.964 82.6906 106.676C82.2186 106.388 81.8466 105.984 81.5746 105.464C81.3026 104.944 81.1666 104.352 81.1666 103.688ZM86.7346 103.7C86.7346 103.204 86.6346 102.772 86.4346 102.404C86.2346 102.036 85.9626 101.756 85.6186 101.564C85.2826 101.364 84.9106 101.264 84.5026 101.264C84.0946 101.264 83.7226 101.36 83.3866 101.552C83.0506 101.744 82.7826 102.024 82.5826 102.392C82.3826 102.76 82.2826 103.192 82.2826 103.688C82.2826 104.192 82.3826 104.632 82.5826 105.008C82.7826 105.376 83.0506 105.66 83.3866 105.86C83.7226 106.052 84.0946 106.148 84.5026 106.148C84.9106 106.148 85.2826 106.052 85.6186 105.86C85.9626 105.66 86.2346 105.376 86.4346 105.008C86.6346 104.632 86.7346 104.196 86.7346 103.7ZM95.804 103.46C95.804 103.668 95.792 103.888 95.768 104.12H90.512C90.552 104.768 90.772 105.276 91.172 105.644C91.58 106.004 92.072 106.184 92.648 106.184C93.12 106.184 93.512 106.076 93.824 105.86C94.144 105.636 94.368 105.34 94.496 104.972H95.672C95.496 105.604 95.144 106.12 94.616 106.52C94.088 106.912 93.432 107.108 92.648 107.108C92.024 107.108 91.464 106.968 90.968 106.688C90.48 106.408 90.096 106.012 89.816 105.5C89.536 104.98 89.396 104.38 89.396 103.7C89.396 103.02 89.532 102.424 89.804 101.912C90.076 101.4 90.456 101.008 90.944 100.736C91.44 100.456 92.008 100.316 92.648 100.316C93.272 100.316 93.824 100.452 94.304 100.724C94.784 100.996 95.152 101.372 95.408 101.852C95.672 102.324 95.804 102.86 95.804 103.46ZM94.676 103.232C94.676 102.816 94.584 102.46 94.4 102.164C94.216 101.86 93.964 101.632 93.644 101.48C93.332 101.32 92.984 101.24 92.6 101.24C92.048 101.24 91.576 101.416 91.184 101.768C90.8 102.12 90.58 102.608 90.524 103.232H94.676ZM98.4574 101.492C98.6494 101.116 98.9214 100.824 99.2734 100.616C99.6334 100.408 100.069 100.304 100.581 100.304V101.432H100.293C99.0694 101.432 98.4574 102.096 98.4574 103.424V107H97.3654V100.424H98.4574V101.492ZM103.054 101.636C103.27 101.26 103.59 100.948 104.014 100.7C104.446 100.444 104.946 100.316 105.514 100.316C106.098 100.316 106.626 100.456 107.098 100.736C107.578 101.016 107.954 101.412 108.226 101.924C108.498 102.428 108.634 103.016 108.634 103.688C108.634 104.352 108.498 104.944 108.226 105.464C107.954 105.984 107.578 106.388 107.098 106.676C106.626 106.964 106.098 107.108 105.514 107.108C104.954 107.108 104.458 106.984 104.026 106.736C103.602 106.48 103.278 106.164 103.054 105.788V110.12H101.962V100.424H103.054V101.636ZM107.518 103.688C107.518 103.192 107.418 102.76 107.218 102.392C107.018 102.024 106.746 101.744 106.402 101.552C106.066 101.36 105.694 101.264 105.286 101.264C104.886 101.264 104.514 101.364 104.17 101.564C103.834 101.756 103.562 102.04 103.354 102.416C103.154 102.784 103.054 103.212 103.054 103.7C103.054 104.196 103.154 104.632 103.354 105.008C103.562 105.376 103.834 105.66 104.17 105.86C104.514 106.052 104.886 106.148 105.286 106.148C105.694 106.148 106.066 106.052 106.402 105.86C106.746 105.66 107.018 105.376 107.218 105.008C107.418 104.632 107.518 104.192 107.518 103.688ZM116.191 103.46C116.191 103.668 116.179 103.888 116.155 104.12H110.899C110.939 104.768 111.159 105.276 111.559 105.644C111.967 106.004 112.459 106.184 113.035 106.184C113.507 106.184 113.899 106.076 114.211 105.86C114.531 105.636 114.755 105.34 114.883 104.972H116.059C115.883 105.604 115.531 106.12 115.003 106.52C114.475 106.912 113.819 107.108 113.035 107.108C112.411 107.108 111.851 106.968 111.355 106.688C110.867 106.408 110.483 106.012 110.203 105.5C109.923 104.98 109.783 104.38 109.783 103.7C109.783 103.02 109.919 102.424 110.191 101.912C110.463 101.4 110.843 101.008 111.331 100.736C111.827 100.456 112.395 100.316 113.035 100.316C113.659 100.316 114.211 100.452 114.691 100.724C115.171 100.996 115.539 101.372 115.795 101.852C116.059 102.324 116.191 102.86 116.191 103.46ZM115.063 103.232C115.063 102.816 114.971 102.46 114.787 102.164C114.603 101.86 114.351 101.632 114.031 101.48C113.719 101.32 113.371 101.24 112.987 101.24C112.435 101.24 111.963 101.416 111.571 101.768C111.187 102.12 110.967 102.608 110.911 103.232H115.063ZM118.845 101.492C119.037 101.116 119.309 100.824 119.661 100.616C120.021 100.408 120.457 100.304 120.969 100.304V101.432H120.681C119.457 101.432 118.845 102.096 118.845 103.424V107H117.753V100.424H118.845V101.492ZM125.025 101.324H123.645V107H122.553V101.324H121.701V100.424H122.553V99.956C122.553 99.22 122.741 98.684 123.117 98.348C123.501 98.004 124.113 97.832 124.953 97.832V98.744C124.473 98.744 124.133 98.84 123.933 99.032C123.741 99.216 123.645 99.524 123.645 99.956V100.424H125.025V101.324ZM129.287 107.108C128.671 107.108 128.111 106.968 127.607 106.688C127.111 106.408 126.719 106.012 126.431 105.5C126.151 104.98 126.011 104.38 126.011 103.7C126.011 103.028 126.155 102.436 126.443 101.924C126.739 101.404 127.139 101.008 127.643 100.736C128.147 100.456 128.711 100.316 129.335 100.316C129.959 100.316 130.523 100.456 131.027 100.736C131.531 101.008 131.927 101.4 132.215 101.912C132.511 102.424 132.659 103.02 132.659 103.7C132.659 104.38 132.507 104.98 132.203 105.5C131.907 106.012 131.503 106.408 130.991 106.688C130.479 106.968 129.911 107.108 129.287 107.108ZM129.287 106.148C129.679 106.148 130.047 106.056 130.391 105.872C130.735 105.688 131.011 105.412 131.219 105.044C131.435 104.676 131.543 104.228 131.543 103.7C131.543 103.172 131.439 102.724 131.231 102.356C131.023 101.988 130.751 101.716 130.415 101.54C130.079 101.356 129.715 101.264 129.323 101.264C128.923 101.264 128.555 101.356 128.219 101.54C127.891 101.716 127.627 101.988 127.427 102.356C127.227 102.724 127.127 103.172 127.127 103.7C127.127 104.236 127.223 104.688 127.415 105.056C127.615 105.424 127.879 105.7 128.207 105.884C128.535 106.06 128.895 106.148 129.287 106.148ZM135.306 101.492C135.498 101.116 135.77 100.824 136.122 100.616C136.482 100.408 136.918 100.304 137.43 100.304V101.432H137.142C135.918 101.432 135.306 102.096 135.306 103.424V107H134.214V100.424H135.306V101.492ZM146.719 100.304C147.231 100.304 147.687 100.412 148.087 100.628C148.487 100.836 148.803 101.152 149.035 101.576C149.267 102 149.383 102.516 149.383 103.124V107H148.303V103.28C148.303 102.624 148.139 102.124 147.811 101.78C147.491 101.428 147.055 101.252 146.503 101.252C145.935 101.252 145.483 101.436 145.147 101.804C144.811 102.164 144.643 102.688 144.643 103.376V107H143.563V103.28C143.563 102.624 143.399 102.124 143.071 101.78C142.751 101.428 142.315 101.252 141.763 101.252C141.195 101.252 140.743 101.436 140.407 101.804C140.071 102.164 139.903 102.688 139.903 103.376V107H138.811V100.424H139.903V101.372C140.119 101.028 140.407 100.764 140.767 100.58C141.135 100.396 141.539 100.304 141.979 100.304C142.531 100.304 143.019 100.428 143.443 100.676C143.867 100.924 144.183 101.288 144.391 101.768C144.575 101.304 144.879 100.944 145.303 100.688C145.727 100.432 146.199 100.304 146.719 100.304ZM151.858 99.356C151.65 99.356 151.474 99.284 151.33 99.14C151.186 98.996 151.114 98.82 151.114 98.612C151.114 98.404 151.186 98.228 151.33 98.084C151.474 97.94 151.65 97.868 151.858 97.868C152.058 97.868 152.226 97.94 152.362 98.084C152.506 98.228 152.578 98.404 152.578 98.612C152.578 98.82 152.506 98.996 152.362 99.14C152.226 99.284 152.058 99.356 151.858 99.356ZM152.386 100.424V107H151.294V100.424H152.386ZM157.571 100.304C158.371 100.304 159.019 100.548 159.515 101.036C160.011 101.516 160.259 102.212 160.259 103.124V107H159.179V103.28C159.179 102.624 159.015 102.124 158.687 101.78C158.359 101.428 157.911 101.252 157.343 101.252C156.767 101.252 156.307 101.432 155.963 101.792C155.627 102.152 155.459 102.676 155.459 103.364V107H154.367V100.424H155.459V101.36C155.675 101.024 155.967 100.764 156.335 100.58C156.711 100.396 157.123 100.304 157.571 100.304ZM164.875 100.316C165.443 100.316 165.939 100.44 166.363 100.688C166.795 100.936 167.115 101.248 167.323 101.624V100.424H168.427V107.144C168.427 107.744 168.299 108.276 168.043 108.74C167.787 109.212 167.419 109.58 166.939 109.844C166.467 110.108 165.915 110.24 165.283 110.24C164.419 110.24 163.699 110.036 163.123 109.628C162.547 109.22 162.207 108.664 162.103 107.96H163.183C163.303 108.36 163.551 108.68 163.927 108.92C164.303 109.168 164.755 109.292 165.283 109.292C165.883 109.292 166.371 109.104 166.747 108.728C167.131 108.352 167.323 107.824 167.323 107.144V105.764C167.107 106.148 166.787 106.468 166.363 106.724C165.939 106.98 165.443 107.108 164.875 107.108C164.291 107.108 163.759 106.964 163.279 106.676C162.807 106.388 162.435 105.984 162.163 105.464C161.891 104.944 161.755 104.352 161.755 103.688C161.755 103.016 161.891 102.428 162.163 101.924C162.435 101.412 162.807 101.016 163.279 100.736C163.759 100.456 164.291 100.316 164.875 100.316ZM167.323 103.7C167.323 103.204 167.223 102.772 167.023 102.404C166.823 102.036 166.551 101.756 166.207 101.564C165.871 101.364 165.499 101.264 165.091 101.264C164.683 101.264 164.311 101.36 163.975 101.552C163.639 101.744 163.371 102.024 163.171 102.392C162.971 102.76 162.871 103.192 162.871 103.688C162.871 104.192 162.971 104.632 163.171 105.008C163.371 105.376 163.639 105.66 163.975 105.86C164.311 106.052 164.683 106.148 165.091 106.148C165.499 106.148 165.871 106.052 166.207 105.86C166.551 105.66 166.823 105.376 167.023 105.008C167.223 104.632 167.323 104.196 167.323 103.7ZM36.119 122.7C36.119 122.02 36.255 121.428 36.527 120.924C36.799 120.412 37.175 120.016 37.655 119.736C38.143 119.456 38.699 119.316 39.323 119.316C40.131 119.316 40.795 119.512 41.315 119.904C41.843 120.296 42.191 120.84 42.359 121.536H41.183C41.071 121.136 40.851 120.82 40.523 120.588C40.203 120.356 39.803 120.24 39.323 120.24C38.699 120.24 38.195 120.456 37.811 120.888C37.427 121.312 37.235 121.916 37.235 122.7C37.235 123.492 37.427 124.104 37.811 124.536C38.195 124.968 38.699 125.184 39.323 125.184C39.803 125.184 40.203 125.072 40.523 124.848C40.843 124.624 41.063 124.304 41.183 123.888H42.359C42.183 124.56 41.831 125.1 41.303 125.508C40.775 125.908 40.115 126.108 39.323 126.108C38.699 126.108 38.143 125.968 37.655 125.688C37.175 125.408 36.799 125.012 36.527 124.5C36.255 123.988 36.119 123.388 36.119 122.7ZM43.5281 122.688C43.5281 122.016 43.6641 121.428 43.9361 120.924C44.2081 120.412 44.5801 120.016 45.0521 119.736C45.5321 119.456 46.0641 119.316 46.6481 119.316C47.2241 119.316 47.7241 119.44 48.1481 119.688C48.5721 119.936 48.8881 120.248 49.0961 120.624V119.424H50.2001V126H49.0961V124.776C48.8801 125.16 48.5561 125.48 48.1241 125.736C47.7001 125.984 47.2041 126.108 46.6361 126.108C46.0521 126.108 45.5241 125.964 45.0521 125.676C44.5801 125.388 44.2081 124.984 43.9361 124.464C43.6641 123.944 43.5281 123.352 43.5281 122.688ZM49.0961 122.7C49.0961 122.204 48.9961 121.772 48.7961 121.404C48.5961 121.036 48.3241 120.756 47.9801 120.564C47.6441 120.364 47.2721 120.264 46.8641 120.264C46.4561 120.264 46.0841 120.36 45.7481 120.552C45.4121 120.744 45.1441 121.024 44.9441 121.392C44.7441 121.76 44.6441 122.192 44.6441 122.688C44.6441 123.192 44.7441 123.632 44.9441 124.008C45.1441 124.376 45.4121 124.66 45.7481 124.86C46.0841 125.052 46.4561 125.148 46.8641 125.148C47.2721 125.148 47.6441 125.052 47.9801 124.86C48.3241 124.66 48.5961 124.376 48.7961 124.008C48.9961 123.632 49.0961 123.196 49.0961 122.7ZM60.0735 119.304C60.5855 119.304 61.0415 119.412 61.4415 119.628C61.8415 119.836 62.1575 120.152 62.3895 120.576C62.6215 121 62.7375 121.516 62.7375 122.124V126H61.6575V122.28C61.6575 121.624 61.4935 121.124 61.1655 120.78C60.8455 120.428 60.4095 120.252 59.8575 120.252C59.2895 120.252 58.8375 120.436 58.5015 120.804C58.1655 121.164 57.9975 121.688 57.9975 122.376V126H56.9175V122.28C56.9175 121.624 56.7535 121.124 56.4255 120.78C56.1055 120.428 55.6695 120.252 55.1175 120.252C54.5495 120.252 54.0975 120.436 53.7615 120.804C53.4255 121.164 53.2575 121.688 53.2575 122.376V126H52.1655V119.424H53.2575V120.372C53.4735 120.028 53.7615 119.764 54.1215 119.58C54.4895 119.396 54.8935 119.304 55.3335 119.304C55.8855 119.304 56.3735 119.428 56.7975 119.676C57.2215 119.924 57.5375 120.288 57.7455 120.768C57.9295 120.304 58.2335 119.944 58.6575 119.688C59.0815 119.432 59.5535 119.304 60.0735 119.304ZM65.7408 120.636C65.9568 120.26 66.2768 119.948 66.7008 119.7C67.1328 119.444 67.6328 119.316 68.2008 119.316C68.7848 119.316 69.3128 119.456 69.7848 119.736C70.2648 120.016 70.6408 120.412 70.9128 120.924C71.1848 121.428 71.3208 122.016 71.3208 122.688C71.3208 123.352 71.1848 123.944 70.9128 124.464C70.6408 124.984 70.2648 125.388 69.7848 125.676C69.3128 125.964 68.7848 126.108 68.2008 126.108C67.6408 126.108 67.1448 125.984 66.7128 125.736C66.2888 125.48 65.9648 125.164 65.7408 124.788V129.12H64.6488V119.424H65.7408V120.636ZM70.2048 122.688C70.2048 122.192 70.1048 121.76 69.9048 121.392C69.7048 121.024 69.4328 120.744 69.0888 120.552C68.7528 120.36 68.3808 120.264 67.9728 120.264C67.5728 120.264 67.2008 120.364 66.8568 120.564C66.5208 120.756 66.2488 121.04 66.0408 121.416C65.8408 121.784 65.7408 122.212 65.7408 122.7C65.7408 123.196 65.8408 123.632 66.0408 124.008C66.2488 124.376 66.5208 124.66 66.8568 124.86C67.2008 125.052 67.5728 125.148 67.9728 125.148C68.3808 125.148 68.7528 125.052 69.0888 124.86C69.4328 124.66 69.7048 124.376 69.9048 124.008C70.1048 123.632 70.2048 123.192 70.2048 122.688ZM72.4701 122.688C72.4701 122.016 72.6061 121.428 72.8781 120.924C73.1501 120.412 73.5221 120.016 73.9941 119.736C74.4741 119.456 75.0061 119.316 75.5901 119.316C76.1661 119.316 76.6661 119.44 77.0901 119.688C77.5141 119.936 77.8301 120.248 78.0381 120.624V119.424H79.1421V126H78.0381V124.776C77.8221 125.16 77.4981 125.48 77.0661 125.736C76.6421 125.984 76.1461 126.108 75.5781 126.108C74.9941 126.108 74.4661 125.964 73.9941 125.676C73.5221 125.388 73.1501 124.984 72.8781 124.464C72.6061 123.944 72.4701 123.352 72.4701 122.688ZM78.0381 122.7C78.0381 122.204 77.9381 121.772 77.7381 121.404C77.5381 121.036 77.2661 120.756 76.9221 120.564C76.5861 120.364 76.2141 120.264 75.8061 120.264C75.3981 120.264 75.0261 120.36 74.6901 120.552C74.3541 120.744 74.0861 121.024 73.8861 121.392C73.6861 121.76 73.5861 122.192 73.5861 122.688C73.5861 123.192 73.6861 123.632 73.8861 124.008C74.0861 124.376 74.3541 124.66 74.6901 124.86C75.0261 125.052 75.3981 125.148 75.8061 125.148C76.2141 125.148 76.5861 125.052 76.9221 124.86C77.2661 124.66 77.5381 124.376 77.7381 124.008C77.9381 123.632 78.0381 123.196 78.0381 122.7ZM81.6715 118.356C81.4635 118.356 81.2875 118.284 81.1435 118.14C80.9995 117.996 80.9275 117.82 80.9275 117.612C80.9275 117.404 80.9995 117.228 81.1435 117.084C81.2875 116.94 81.4635 116.868 81.6715 116.868C81.8715 116.868 82.0395 116.94 82.1755 117.084C82.3195 117.228 82.3915 117.404 82.3915 117.612C82.3915 117.82 82.3195 117.996 82.1755 118.14C82.0395 118.284 81.8715 118.356 81.6715 118.356ZM82.1995 119.424V126H81.1075V119.424H82.1995ZM86.8926 119.316C87.4606 119.316 87.9566 119.44 88.3806 119.688C88.8126 119.936 89.1326 120.248 89.3406 120.624V119.424H90.4446V126.144C90.4446 126.744 90.3166 127.276 90.0606 127.74C89.8046 128.212 89.4366 128.58 88.9566 128.844C88.4846 129.108 87.9326 129.24 87.3006 129.24C86.4366 129.24 85.7166 129.036 85.1406 128.628C84.5646 128.22 84.2246 127.664 84.1206 126.96H85.2006C85.3206 127.36 85.5686 127.68 85.9446 127.92C86.3206 128.168 86.7726 128.292 87.3006 128.292C87.9006 128.292 88.3886 128.104 88.7646 127.728C89.1486 127.352 89.3406 126.824 89.3406 126.144V124.764C89.1246 125.148 88.8046 125.468 88.3806 125.724C87.9566 125.98 87.4606 126.108 86.8926 126.108C86.3086 126.108 85.7766 125.964 85.2966 125.676C84.8246 125.388 84.4526 124.984 84.1806 124.464C83.9086 123.944 83.7726 123.352 83.7726 122.688C83.7726 122.016 83.9086 121.428 84.1806 120.924C84.4526 120.412 84.8246 120.016 85.2966 119.736C85.7766 119.456 86.3086 119.316 86.8926 119.316ZM89.3406 122.7C89.3406 122.204 89.2406 121.772 89.0406 121.404C88.8406 121.036 88.5686 120.756 88.2246 120.564C87.8886 120.364 87.5166 120.264 87.1086 120.264C86.7006 120.264 86.3286 120.36 85.9926 120.552C85.6566 120.744 85.3886 121.024 85.1886 121.392C84.9886 121.76 84.8886 122.192 84.8886 122.688C84.8886 123.192 84.9886 123.632 85.1886 124.008C85.3886 124.376 85.6566 124.66 85.9926 124.86C86.3286 125.052 86.7006 125.148 87.1086 125.148C87.5166 125.148 87.8886 125.052 88.2246 124.86C88.5686 124.66 88.8406 124.376 89.0406 124.008C89.2406 123.632 89.3406 123.196 89.3406 122.7ZM95.614 119.304C96.414 119.304 97.062 119.548 97.558 120.036C98.054 120.516 98.302 121.212 98.302 122.124V126H97.222V122.28C97.222 121.624 97.058 121.124 96.73 120.78C96.402 120.428 95.954 120.252 95.386 120.252C94.81 120.252 94.35 120.432 94.006 120.792C93.67 121.152 93.502 121.676 93.502 122.364V126H92.41V119.424H93.502V120.36C93.718 120.024 94.01 119.764 94.378 119.58C94.754 119.396 95.166 119.304 95.614 119.304ZM102.534 126.108C102.03 126.108 101.578 126.024 101.178 125.856C100.778 125.68 100.462 125.44 100.23 125.136C99.9978 124.824 99.8698 124.468 99.8458 124.068H100.974C101.006 124.396 101.158 124.664 101.43 124.872C101.71 125.08 102.074 125.184 102.522 125.184C102.938 125.184 103.266 125.092 103.506 124.908C103.746 124.724 103.866 124.492 103.866 124.212C103.866 123.924 103.738 123.712 103.482 123.576C103.226 123.432 102.83 123.292 102.294 123.156C101.806 123.028 101.406 122.9 101.094 122.772C100.79 122.636 100.526 122.44 100.302 122.184C100.086 121.92 99.9778 121.576 99.9778 121.152C99.9778 120.816 100.078 120.508 100.278 120.228C100.478 119.948 100.762 119.728 101.13 119.568C101.498 119.4 101.918 119.316 102.39 119.316C103.118 119.316 103.706 119.5 104.154 119.868C104.602 120.236 104.842 120.74 104.874 121.38H103.782C103.758 121.036 103.618 120.76 103.362 120.552C103.114 120.344 102.778 120.24 102.354 120.24C101.962 120.24 101.65 120.324 101.418 120.492C101.186 120.66 101.07 120.88 101.07 121.152C101.07 121.368 101.138 121.548 101.274 121.692C101.418 121.828 101.594 121.94 101.802 122.028C102.018 122.108 102.314 122.2 102.69 122.304C103.162 122.432 103.546 122.56 103.842 122.688C104.138 122.808 104.39 122.992 104.598 123.24C104.814 123.488 104.926 123.812 104.934 124.212C104.934 124.572 104.834 124.896 104.634 125.184C104.434 125.472 104.15 125.7 103.782 125.868C103.422 126.028 103.006 126.108 102.534 126.108ZM107.723 124.488L106.379 127.716H105.647L106.523 124.488H107.723ZM118.413 122.46C118.413 122.668 118.401 122.888 118.377 123.12H113.121C113.161 123.768 113.381 124.276 113.781 124.644C114.189 125.004 114.681 125.184 115.257 125.184C115.729 125.184 116.121 125.076 116.433 124.86C116.753 124.636 116.977 124.34 117.105 123.972H118.281C118.105 124.604 117.753 125.12 117.225 125.52C116.697 125.912 116.041 126.108 115.257 126.108C114.633 126.108 114.073 125.968 113.577 125.688C113.089 125.408 112.705 125.012 112.425 124.5C112.145 123.98 112.005 123.38 112.005 122.7C112.005 122.02 112.141 121.424 112.413 120.912C112.685 120.4 113.065 120.008 113.553 119.736C114.049 119.456 114.617 119.316 115.257 119.316C115.881 119.316 116.433 119.452 116.913 119.724C117.393 119.996 117.761 120.372 118.017 120.852C118.281 121.324 118.413 121.86 118.413 122.46ZM117.285 122.232C117.285 121.816 117.193 121.46 117.009 121.164C116.825 120.86 116.573 120.632 116.253 120.48C115.941 120.32 115.593 120.24 115.209 120.24C114.657 120.24 114.185 120.416 113.793 120.768C113.409 121.12 113.189 121.608 113.133 122.232H117.285ZM123.407 126L121.847 123.552L120.347 126H119.207L121.331 122.736L119.207 119.424H120.443L122.003 121.86L123.491 119.424H124.631L122.519 122.676L124.643 126H123.407ZM126.929 120.636C127.145 120.26 127.465 119.948 127.889 119.7C128.321 119.444 128.821 119.316 129.389 119.316C129.973 119.316 130.501 119.456 130.973 119.736C131.453 120.016 131.829 120.412 132.101 120.924C132.373 121.428 132.509 122.016 132.509 122.688C132.509 123.352 132.373 123.944 132.101 124.464C131.829 124.984 131.453 125.388 130.973 125.676C130.501 125.964 129.973 126.108 129.389 126.108C128.829 126.108 128.333 125.984 127.901 125.736C127.477 125.48 127.153 125.164 126.929 124.788V129.12H125.837V119.424H126.929V120.636ZM131.393 122.688C131.393 122.192 131.293 121.76 131.093 121.392C130.893 121.024 130.621 120.744 130.277 120.552C129.941 120.36 129.569 120.264 129.161 120.264C128.761 120.264 128.389 120.364 128.045 120.564C127.709 120.756 127.437 121.04 127.229 121.416C127.029 121.784 126.929 122.212 126.929 122.7C126.929 123.196 127.029 123.632 127.229 124.008C127.437 124.376 127.709 124.66 128.045 124.86C128.389 125.052 128.761 125.148 129.161 125.148C129.569 125.148 129.941 125.052 130.277 124.86C130.621 124.66 130.893 124.376 131.093 124.008C131.293 123.632 131.393 123.192 131.393 122.688ZM133.658 122.688C133.658 122.016 133.794 121.428 134.066 120.924C134.338 120.412 134.71 120.016 135.182 119.736C135.662 119.456 136.194 119.316 136.778 119.316C137.354 119.316 137.854 119.44 138.278 119.688C138.702 119.936 139.018 120.248 139.226 120.624V119.424H140.33V126H139.226V124.776C139.01 125.16 138.686 125.48 138.254 125.736C137.83 125.984 137.334 126.108 136.766 126.108C136.182 126.108 135.654 125.964 135.182 125.676C134.71 125.388 134.338 124.984 134.066 124.464C133.794 123.944 133.658 123.352 133.658 122.688ZM139.226 122.7C139.226 122.204 139.126 121.772 138.926 121.404C138.726 121.036 138.454 120.756 138.11 120.564C137.774 120.364 137.402 120.264 136.994 120.264C136.586 120.264 136.214 120.36 135.878 120.552C135.542 120.744 135.274 121.024 135.074 121.392C134.874 121.76 134.774 122.192 134.774 122.688C134.774 123.192 134.874 123.632 135.074 124.008C135.274 124.376 135.542 124.66 135.878 124.86C136.214 125.052 136.586 125.148 136.994 125.148C137.402 125.148 137.774 125.052 138.11 124.86C138.454 124.66 138.726 124.376 138.926 124.008C139.126 123.632 139.226 123.196 139.226 122.7ZM145.5 119.304C146.3 119.304 146.948 119.548 147.444 120.036C147.94 120.516 148.188 121.212 148.188 122.124V126H147.108V122.28C147.108 121.624 146.944 121.124 146.616 120.78C146.288 120.428 145.84 120.252 145.272 120.252C144.696 120.252 144.236 120.432 143.892 120.792C143.556 121.152 143.388 121.676 143.388 122.364V126H142.296V119.424H143.388V120.36C143.604 120.024 143.896 119.764 144.264 119.58C144.64 119.396 145.052 119.304 145.5 119.304ZM149.684 122.688C149.684 122.016 149.82 121.428 150.092 120.924C150.364 120.412 150.736 120.016 151.208 119.736C151.688 119.456 152.224 119.316 152.816 119.316C153.328 119.316 153.804 119.436 154.244 119.676C154.684 119.908 155.02 120.216 155.252 120.6V117.12H156.356V126H155.252V124.764C155.036 125.156 154.716 125.48 154.292 125.736C153.868 125.984 153.372 126.108 152.804 126.108C152.22 126.108 151.688 125.964 151.208 125.676C150.736 125.388 150.364 124.984 150.092 124.464C149.82 123.944 149.684 123.352 149.684 122.688ZM155.252 122.7C155.252 122.204 155.152 121.772 154.952 121.404C154.752 121.036 154.48 120.756 154.136 120.564C153.8 120.364 153.428 120.264 153.02 120.264C152.612 120.264 152.24 120.36 151.904 120.552C151.568 120.744 151.3 121.024 151.1 121.392C150.9 121.76 150.8 122.192 150.8 122.688C150.8 123.192 150.9 123.632 151.1 124.008C151.3 124.376 151.568 124.66 151.904 124.86C152.24 125.052 152.612 125.148 153.02 125.148C153.428 125.148 153.8 125.052 154.136 124.86C154.48 124.66 154.752 124.376 154.952 124.008C155.152 123.632 155.252 123.196 155.252 122.7ZM49.9204 145.108C49.4164 145.108 48.9644 145.024 48.5644 144.856C48.1644 144.68 47.8484 144.44 47.6164 144.136C47.3844 143.824 47.2564 143.468 47.2324 143.068H48.3604C48.3924 143.396 48.5444 143.664 48.8164 143.872C49.0964 144.08 49.4604 144.184 49.9084 144.184C50.3244 144.184 50.6524 144.092 50.8924 143.908C51.1324 143.724 51.2524 143.492 51.2524 143.212C51.2524 142.924 51.1244 142.712 50.8684 142.576C50.6124 142.432 50.2164 142.292 49.6804 142.156C49.1924 142.028 48.7924 141.9 48.4804 141.772C48.1764 141.636 47.9124 141.44 47.6884 141.184C47.4724 140.92 47.3644 140.576 47.3644 140.152C47.3644 139.816 47.4644 139.508 47.6644 139.228C47.8644 138.948 48.1484 138.728 48.5164 138.568C48.8844 138.4 49.3044 138.316 49.7764 138.316C50.5044 138.316 51.0924 138.5 51.5404 138.868C51.9884 139.236 52.2284 139.74 52.2604 140.38H51.1684C51.1444 140.036 51.0044 139.76 50.7484 139.552C50.5004 139.344 50.1644 139.24 49.7404 139.24C49.3484 139.24 49.0364 139.324 48.8044 139.492C48.5724 139.66 48.4564 139.88 48.4564 140.152C48.4564 140.368 48.5244 140.548 48.6604 140.692C48.8044 140.828 48.9804 140.94 49.1884 141.028C49.4044 141.108 49.7004 141.2 50.0764 141.304C50.5484 141.432 50.9324 141.56 51.2284 141.688C51.5244 141.808 51.7764 141.992 51.9844 142.24C52.2004 142.488 52.3124 142.812 52.3204 143.212C52.3204 143.572 52.2204 143.896 52.0204 144.184C51.8204 144.472 51.5364 144.7 51.1684 144.868C50.8084 145.028 50.3924 145.108 49.9204 145.108ZM59.8139 138.424V145H58.7219V144.028C58.5139 144.364 58.2219 144.628 57.8459 144.82C57.4779 145.004 57.0699 145.096 56.6219 145.096C56.1099 145.096 55.6499 144.992 55.2419 144.784C54.8339 144.568 54.5099 144.248 54.2699 143.824C54.0379 143.4 53.9219 142.884 53.9219 142.276V138.424H55.0019V142.132C55.0019 142.78 55.1659 143.28 55.4939 143.632C55.8219 143.976 56.2699 144.148 56.8379 144.148C57.4219 144.148 57.8819 143.968 58.2179 143.608C58.5539 143.248 58.7219 142.724 58.7219 142.036V138.424H59.8139ZM61.3697 141.7C61.3697 141.02 61.5057 140.428 61.7777 139.924C62.0497 139.412 62.4257 139.016 62.9057 138.736C63.3937 138.456 63.9497 138.316 64.5737 138.316C65.3817 138.316 66.0457 138.512 66.5657 138.904C67.0937 139.296 67.4417 139.84 67.6097 140.536H66.4337C66.3217 140.136 66.1017 139.82 65.7737 139.588C65.4537 139.356 65.0537 139.24 64.5737 139.24C63.9497 139.24 63.4457 139.456 63.0617 139.888C62.6777 140.312 62.4857 140.916 62.4857 141.7C62.4857 142.492 62.6777 143.104 63.0617 143.536C63.4457 143.968 63.9497 144.184 64.5737 144.184C65.0537 144.184 65.4537 144.072 65.7737 143.848C66.0937 143.624 66.3137 143.304 66.4337 142.888H67.6097C67.4337 143.56 67.0817 144.1 66.5537 144.508C66.0257 144.908 65.3657 145.108 64.5737 145.108C63.9497 145.108 63.3937 144.968 62.9057 144.688C62.4257 144.408 62.0497 144.012 61.7777 143.5C61.5057 142.988 61.3697 142.388 61.3697 141.7ZM68.7787 141.7C68.7787 141.02 68.9147 140.428 69.1867 139.924C69.4587 139.412 69.8347 139.016 70.3147 138.736C70.8027 138.456 71.3587 138.316 71.9827 138.316C72.7907 138.316 73.4547 138.512 73.9747 138.904C74.5027 139.296 74.8507 139.84 75.0187 140.536H73.8427C73.7307 140.136 73.5107 139.82 73.1827 139.588C72.8627 139.356 72.4627 139.24 71.9827 139.24C71.3587 139.24 70.8547 139.456 70.4707 139.888C70.0867 140.312 69.8947 140.916 69.8947 141.7C69.8947 142.492 70.0867 143.104 70.4707 143.536C70.8547 143.968 71.3587 144.184 71.9827 144.184C72.4627 144.184 72.8627 144.072 73.1827 143.848C73.5027 143.624 73.7227 143.304 73.8427 142.888H75.0187C74.8427 143.56 74.4907 144.1 73.9627 144.508C73.4347 144.908 72.7747 145.108 71.9827 145.108C71.3587 145.108 70.8027 144.968 70.3147 144.688C69.8347 144.408 69.4587 144.012 69.1867 143.5C68.9147 142.988 68.7787 142.388 68.7787 141.7ZM82.5958 141.46C82.5958 141.668 82.5838 141.888 82.5598 142.12H77.3038C77.3438 142.768 77.5638 143.276 77.9638 143.644C78.3718 144.004 78.8638 144.184 79.4398 144.184C79.9118 144.184 80.3038 144.076 80.6158 143.86C80.9358 143.636 81.1598 143.34 81.2878 142.972H82.4638C82.2878 143.604 81.9358 144.12 81.4078 144.52C80.8798 144.912 80.2238 145.108 79.4398 145.108C78.8158 145.108 78.2558 144.968 77.7598 144.688C77.2718 144.408 76.8878 144.012 76.6078 143.5C76.3278 142.98 76.1878 142.38 76.1878 141.7C76.1878 141.02 76.3238 140.424 76.5958 139.912C76.8678 139.4 77.2478 139.008 77.7358 138.736C78.2318 138.456 78.7998 138.316 79.4398 138.316C80.0638 138.316 80.6158 138.452 81.0958 138.724C81.5758 138.996 81.9438 139.372 82.1998 139.852C82.4638 140.324 82.5958 140.86 82.5958 141.46ZM81.4678 141.232C81.4678 140.816 81.3758 140.46 81.1918 140.164C81.0078 139.86 80.7558 139.632 80.4358 139.48C80.1238 139.32 79.7758 139.24 79.3918 139.24C78.8398 139.24 78.3678 139.416 77.9758 139.768C77.5918 140.12 77.3718 140.608 77.3158 141.232H81.4678ZM86.4852 145.108C85.9812 145.108 85.5292 145.024 85.1292 144.856C84.7292 144.68 84.4132 144.44 84.1812 144.136C83.9492 143.824 83.8212 143.468 83.7972 143.068H84.9252C84.9572 143.396 85.1092 143.664 85.3812 143.872C85.6612 144.08 86.0252 144.184 86.4732 144.184C86.8892 144.184 87.2172 144.092 87.4572 143.908C87.6972 143.724 87.8172 143.492 87.8172 143.212C87.8172 142.924 87.6892 142.712 87.4332 142.576C87.1772 142.432 86.7812 142.292 86.2452 142.156C85.7572 142.028 85.3572 141.9 85.0452 141.772C84.7412 141.636 84.4772 141.44 84.2532 141.184C84.0372 140.92 83.9292 140.576 83.9292 140.152C83.9292 139.816 84.0292 139.508 84.2292 139.228C84.4292 138.948 84.7132 138.728 85.0812 138.568C85.4492 138.4 85.8692 138.316 86.3412 138.316C87.0692 138.316 87.6572 138.5 88.1052 138.868C88.5532 139.236 88.7932 139.74 88.8252 140.38H87.7332C87.7092 140.036 87.5692 139.76 87.3132 139.552C87.0652 139.344 86.7292 139.24 86.3052 139.24C85.9132 139.24 85.6012 139.324 85.3692 139.492C85.1372 139.66 85.0212 139.88 85.0212 140.152C85.0212 140.368 85.0892 140.548 85.2252 140.692C85.3692 140.828 85.5452 140.94 85.7532 141.028C85.9692 141.108 86.2652 141.2 86.6412 141.304C87.1132 141.432 87.4972 141.56 87.7932 141.688C88.0892 141.808 88.3412 141.992 88.5492 142.24C88.7652 142.488 88.8772 142.812 88.8852 143.212C88.8852 143.572 88.7852 143.896 88.5852 144.184C88.3852 144.472 88.1012 144.7 87.7332 144.868C87.3732 145.028 86.9572 145.108 86.4852 145.108ZM92.8747 145.108C92.3707 145.108 91.9187 145.024 91.5187 144.856C91.1187 144.68 90.8027 144.44 90.5707 144.136C90.3387 143.824 90.2107 143.468 90.1867 143.068H91.3147C91.3467 143.396 91.4987 143.664 91.7707 143.872C92.0507 144.08 92.4147 144.184 92.8627 144.184C93.2787 144.184 93.6067 144.092 93.8467 143.908C94.0867 143.724 94.2067 143.492 94.2067 143.212C94.2067 142.924 94.0787 142.712 93.8227 142.576C93.5667 142.432 93.1707 142.292 92.6347 142.156C92.1467 142.028 91.7467 141.9 91.4347 141.772C91.1307 141.636 90.8667 141.44 90.6427 141.184C90.4267 140.92 90.3187 140.576 90.3187 140.152C90.3187 139.816 90.4187 139.508 90.6187 139.228C90.8187 138.948 91.1027 138.728 91.4707 138.568C91.8387 138.4 92.2587 138.316 92.7307 138.316C93.4587 138.316 94.0467 138.5 94.4947 138.868C94.9427 139.236 95.1827 139.74 95.2147 140.38H94.1227C94.0987 140.036 93.9587 139.76 93.7027 139.552C93.4547 139.344 93.1187 139.24 92.6947 139.24C92.3027 139.24 91.9907 139.324 91.7587 139.492C91.5267 139.66 91.4107 139.88 91.4107 140.152C91.4107 140.368 91.4787 140.548 91.6147 140.692C91.7587 140.828 91.9347 140.94 92.1427 141.028C92.3587 141.108 92.6547 141.2 93.0307 141.304C93.5027 141.432 93.8867 141.56 94.1827 141.688C94.4787 141.808 94.7307 141.992 94.9387 142.24C95.1547 142.488 95.2667 142.812 95.2747 143.212C95.2747 143.572 95.1747 143.896 94.9747 144.184C94.7747 144.472 94.4907 144.7 94.1227 144.868C93.7627 145.028 93.3467 145.108 92.8747 145.108ZM99.6123 139.324H98.2323V145H97.1403V139.324H96.2883V138.424H97.1403V137.956C97.1403 137.22 97.3283 136.684 97.7043 136.348C98.0883 136.004 98.7003 135.832 99.5403 135.832V136.744C99.0603 136.744 98.7203 136.84 98.5203 137.032C98.3283 137.216 98.2323 137.524 98.2323 137.956V138.424H99.6123V139.324ZM106.837 138.424V145H105.745V144.028C105.537 144.364 105.245 144.628 104.869 144.82C104.501 145.004 104.093 145.096 103.645 145.096C103.133 145.096 102.673 144.992 102.265 144.784C101.857 144.568 101.533 144.248 101.293 143.824C101.061 143.4 100.945 142.884 100.945 142.276V138.424H102.025V142.132C102.025 142.78 102.189 143.28 102.517 143.632C102.845 143.976 103.293 144.148 103.861 144.148C104.445 144.148 104.905 143.968 105.241 143.608C105.577 143.248 105.745 142.724 105.745 142.036V138.424H106.837ZM109.893 136.12V145H108.801V136.12H109.893ZM118.062 145.108C117.446 145.108 116.886 144.968 116.382 144.688C115.886 144.408 115.494 144.012 115.206 143.5C114.926 142.98 114.786 142.38 114.786 141.7C114.786 141.028 114.93 140.436 115.218 139.924C115.514 139.404 115.914 139.008 116.418 138.736C116.922 138.456 117.486 138.316 118.11 138.316C118.734 138.316 119.298 138.456 119.802 138.736C120.306 139.008 120.702 139.4 120.99 139.912C121.286 140.424 121.434 141.02 121.434 141.7C121.434 142.38 121.282 142.98 120.978 143.5C120.682 144.012 120.278 144.408 119.766 144.688C119.254 144.968 118.686 145.108 118.062 145.108ZM118.062 144.148C118.454 144.148 118.822 144.056 119.166 143.872C119.51 143.688 119.786 143.412 119.994 143.044C120.21 142.676 120.318 142.228 120.318 141.7C120.318 141.172 120.214 140.724 120.006 140.356C119.798 139.988 119.526 139.716 119.19 139.54C118.854 139.356 118.49 139.264 118.098 139.264C117.698 139.264 117.33 139.356 116.994 139.54C116.666 139.716 116.402 139.988 116.202 140.356C116.002 140.724 115.902 141.172 115.902 141.7C115.902 142.236 115.998 142.688 116.19 143.056C116.39 143.424 116.654 143.7 116.982 143.884C117.31 144.06 117.67 144.148 118.062 144.148ZM126.193 138.304C126.993 138.304 127.641 138.548 128.137 139.036C128.633 139.516 128.881 140.212 128.881 141.124V145H127.801V141.28C127.801 140.624 127.637 140.124 127.309 139.78C126.981 139.428 126.533 139.252 125.965 139.252C125.389 139.252 124.929 139.432 124.585 139.792C124.249 140.152 124.081 140.676 124.081 141.364V145H122.989V138.424H124.081V139.36C124.297 139.024 124.589 138.764 124.957 138.58C125.333 138.396 125.745 138.304 126.193 138.304ZM136.785 141.46C136.785 141.668 136.773 141.888 136.749 142.12H131.493C131.533 142.768 131.753 143.276 132.153 143.644C132.561 144.004 133.053 144.184 133.629 144.184C134.101 144.184 134.493 144.076 134.805 143.86C135.125 143.636 135.349 143.34 135.477 142.972H136.653C136.477 143.604 136.125 144.12 135.597 144.52C135.069 144.912 134.413 145.108 133.629 145.108C133.005 145.108 132.445 144.968 131.949 144.688C131.461 144.408 131.077 144.012 130.797 143.5C130.517 142.98 130.377 142.38 130.377 141.7C130.377 141.02 130.513 140.424 130.785 139.912C131.057 139.4 131.437 139.008 131.925 138.736C132.421 138.456 132.989 138.316 133.629 138.316C134.253 138.316 134.805 138.452 135.285 138.724C135.765 138.996 136.133 139.372 136.389 139.852C136.653 140.324 136.785 140.86 136.785 141.46ZM135.657 141.232C135.657 140.816 135.565 140.46 135.381 140.164C135.197 139.86 134.945 139.632 134.625 139.48C134.313 139.32 133.965 139.24 133.581 139.24C133.029 139.24 132.557 139.416 132.165 139.768C131.781 140.12 131.561 140.608 131.505 141.232H135.657ZM140.675 145.108C140.171 145.108 139.719 145.024 139.319 144.856C138.919 144.68 138.603 144.44 138.371 144.136C138.139 143.824 138.011 143.468 137.987 143.068H139.115C139.147 143.396 139.299 143.664 139.571 143.872C139.851 144.08 140.215 144.184 140.663 144.184C141.079 144.184 141.407 144.092 141.647 143.908C141.887 143.724 142.007 143.492 142.007 143.212C142.007 142.924 141.879 142.712 141.623 142.576C141.367 142.432 140.971 142.292 140.435 142.156C139.947 142.028 139.547 141.9 139.235 141.772C138.931 141.636 138.667 141.44 138.443 141.184C138.227 140.92 138.119 140.576 138.119 140.152C138.119 139.816 138.219 139.508 138.419 139.228C138.619 138.948 138.903 138.728 139.271 138.568C139.639 138.4 140.059 138.316 140.531 138.316C141.259 138.316 141.847 138.5 142.295 138.868C142.743 139.236 142.983 139.74 143.015 140.38H141.923C141.899 140.036 141.759 139.76 141.503 139.552C141.255 139.344 140.919 139.24 140.495 139.24C140.103 139.24 139.791 139.324 139.559 139.492C139.327 139.66 139.211 139.88 139.211 140.152C139.211 140.368 139.279 140.548 139.415 140.692C139.559 140.828 139.735 140.94 139.943 141.028C140.159 141.108 140.455 141.2 140.831 141.304C141.303 141.432 141.687 141.56 141.983 141.688C142.279 141.808 142.531 141.992 142.739 142.24C142.955 142.488 143.067 142.812 143.075 143.212C143.075 143.572 142.975 143.896 142.775 144.184C142.575 144.472 142.291 144.7 141.923 144.868C141.563 145.028 141.147 145.108 140.675 145.108ZM145.084 145.072C144.876 145.072 144.7 145 144.556 144.856C144.412 144.712 144.34 144.536 144.34 144.328C144.34 144.12 144.412 143.944 144.556 143.8C144.7 143.656 144.876 143.584 145.084 143.584C145.284 143.584 145.452 143.656 145.588 143.8C145.732 143.944 145.804 144.12 145.804 144.328C145.804 144.536 145.732 144.712 145.588 144.856C145.452 145 145.284 145.072 145.084 145.072Z" fill="white" fill-opacity="0.7"/>
<path fill-rule="evenodd" clip-rule="evenodd" d="M93.4277 24C93.8477 24 94.1887 24.3344 94.1887 24.7472C94.1887 25.1591 93.8487 25.4935 93.4277 25.4935L91.7987 25.4944C90.4467 25.4964 89.3467 26.576 89.3467 27.9028V29.762C89.3467 30.1739 89.0047 30.5092 88.5847 30.5092C88.1647 30.5092 87.8237 30.1739 87.8237 29.762V27.9028C87.8237 25.7533 89.6067 24.0029 91.7977 24.001L93.4267 24H93.4277ZM100.601 24.0003H102.194C104.391 24.0003 106.177 25.7516 106.177 27.906V29.7623C106.177 30.1742 105.837 30.5095 105.416 30.5095C104.996 30.5095 104.655 30.1742 104.655 29.7623V27.906C104.655 26.5754 103.551 25.4928 102.194 25.4928H100.601C100.181 25.4928 99.8396 25.1594 99.8396 24.7475C99.8396 24.3347 100.181 24.0003 100.601 24.0003ZM99.7625 27.7427H94.2385C92.9745 27.7554 91.9585 28.7684 91.9695 30.0088V31.2542C91.9725 31.3993 92.0915 31.518 92.2395 31.5229H101.76C101.908 31.5189 102.028 31.4003 102.032 31.2542V30.0088C102.034 29.4097 101.797 28.8341 101.372 28.4055C100.948 27.9809 100.368 27.7427 99.7625 27.7427ZM86.762 33.0412H107.239C107.659 33.0412 108 33.3756 108 33.7885C108 34.2003 107.659 34.5337 107.239 34.5337H106.177V38.0933C106.177 40.2486 104.39 42 102.194 42H100.601C100.18 42 99.839 41.6656 99.839 41.2528C99.839 40.8409 100.18 40.5065 100.601 40.5065H102.194C103.551 40.5065 104.655 39.4249 104.655 38.0933V34.5337H102.032V35.5251C102.042 36.7656 101.027 37.7795 99.762 37.7913H94.238C92.974 37.7795 91.959 36.7656 91.969 35.5251V34.5337H89.346V38.0972C89.346 39.424 90.447 40.5036 91.8 40.5056L93.428 40.5065C93.848 40.5065 94.189 40.8409 94.189 41.2528C94.188 41.6656 93.848 42 93.427 42L91.798 41.999C89.607 41.9971 87.823 40.2467 87.823 38.0972V34.5337H86.762C86.342 34.5337 86 34.2003 86 33.7885C86 33.3756 86.342 33.0412 86.762 33.0412Z" fill="#00F6FF"/>
<defs>
<filter id="filter0_b_1_18" x="-10" y="-10" width="213" height="180" filterUnits="userSpaceOnUse" color-interpolation-filters="sRGB">
<feFlood flood-opacity="0" result="BackgroundImageFix"/>
<feGaussianBlur in="BackgroundImageFix" stdDeviation="5"/>
<feComposite in2="SourceAlpha" operator="in" result="effect1_backgroundBlur_1_18"/>
<feBlend mode="normal" in="SourceGraphic" in2="effect1_backgroundBlur_1_18" result="shape"/>
</filter>
<linearGradient id="paint0_linear_1_18" x1="-707" y1="-446" x2="185.238" y2="215.125" gradientUnits="userSpaceOnUse">
<stop offset="0.161458" stop-color="white"/>
<stop offset="0.578125" stop-color="#6D6D6D"/>
<stop offset="0.932292" stop-color="#1D1D1D"/>
</linearGradient>
</defs>
</svg>
