<svg width="256" height="238" viewBox="0 0 256 238" fill="none" xmlns="http://www.w3.org/2000/svg">
<rect x="0.5" y="0.500061" width="255" height="237" rx="19.5" fill="#C4C4C4" fill-opacity="0.4"/>
<rect x="0.5" y="0.500061" width="255" height="237" rx="19.5" fill="url(#paint0_linear_1_65)"/>
<rect x="0.5" y="0.500061" width="255" height="237" rx="19.5" stroke="#3D3D3D"/>
<rect x="85" y="197" width="28" height="21" rx="5" fill="url(#paint1_linear_1_65)"/>
<path d="M96.84 204.08V211H95.93V205.84L93.63 211H92.99L90.68 205.83V211H89.77V204.08H90.75L93.31 209.8L95.87 204.08H96.84ZM98.0433 208.24C98.0433 207.68 98.1566 207.19 98.3833 206.77C98.6099 206.343 98.9199 206.013 99.3133 205.78C99.7133 205.547 100.157 205.43 100.643 205.43C101.123 205.43 101.54 205.533 101.893 205.74C102.247 205.947 102.51 206.207 102.683 206.52V205.52H103.603V211H102.683V209.98C102.503 210.3 102.233 210.567 101.873 210.78C101.52 210.987 101.107 211.09 100.633 211.09C100.147 211.09 99.7066 210.97 99.3133 210.73C98.9199 210.49 98.6099 210.153 98.3833 209.72C98.1566 209.287 98.0433 208.793 98.0433 208.24ZM102.683 208.25C102.683 207.837 102.6 207.477 102.433 207.17C102.267 206.863 102.04 206.63 101.753 206.47C101.473 206.303 101.163 206.22 100.823 206.22C100.483 206.22 100.173 206.3 99.8933 206.46C99.6133 206.62 99.3899 206.853 99.2233 207.16C99.0566 207.467 98.9733 207.827 98.9733 208.24C98.9733 208.66 99.0566 209.027 99.2233 209.34C99.3899 209.647 99.6133 209.883 99.8933 210.05C100.173 210.21 100.483 210.29 100.823 210.29C101.163 210.29 101.473 210.21 101.753 210.05C102.04 209.883 102.267 209.647 102.433 209.34C102.6 209.027 102.683 208.663 102.683 208.25ZM106.051 206.41C106.211 206.097 106.438 205.853 106.731 205.68C107.031 205.507 107.394 205.42 107.821 205.42V206.36H107.581C106.561 206.36 106.051 206.913 106.051 208.02V211H105.141V205.52H106.051V206.41Z" fill="#14101D"/>
<path d="M34.28 204.03V209.18C34.28 209.753 34.1033 210.213 33.75 210.56C33.3967 210.9 32.93 211.07 32.35 211.07C31.7633 211.07 31.2933 210.897 30.94 210.55C30.5867 210.197 30.41 209.717 30.41 209.11H31.32C31.3267 209.45 31.4133 209.727 31.58 209.94C31.7533 210.153 32.01 210.26 32.35 210.26C32.69 210.26 32.9433 210.16 33.11 209.96C33.2767 209.753 33.36 209.493 33.36 209.18V204.03H34.28ZM35.7327 208.24C35.7327 207.68 35.8461 207.19 36.0727 206.77C36.2994 206.343 36.6094 206.013 37.0027 205.78C37.4027 205.547 37.8461 205.43 38.3327 205.43C38.8127 205.43 39.2294 205.533 39.5827 205.74C39.9361 205.947 40.1994 206.207 40.3727 206.52V205.52H41.2927V211H40.3727V209.98C40.1927 210.3 39.9227 210.567 39.5627 210.78C39.2094 210.987 38.7961 211.09 38.3227 211.09C37.8361 211.09 37.3961 210.97 37.0027 210.73C36.6094 210.49 36.2994 210.153 36.0727 209.72C35.8461 209.287 35.7327 208.793 35.7327 208.24ZM40.3727 208.25C40.3727 207.837 40.2894 207.477 40.1227 207.17C39.9561 206.863 39.7294 206.63 39.4427 206.47C39.1627 206.303 38.8527 206.22 38.5127 206.22C38.1727 206.22 37.8627 206.3 37.5827 206.46C37.3027 206.62 37.0794 206.853 36.9127 207.16C36.7461 207.467 36.6627 207.827 36.6627 208.24C36.6627 208.66 36.7461 209.027 36.9127 209.34C37.0794 209.647 37.3027 209.883 37.5827 210.05C37.8627 210.21 38.1727 210.29 38.5127 210.29C38.8527 210.29 39.1627 210.21 39.4427 210.05C39.7294 209.883 39.9561 209.647 40.1227 209.34C40.2894 209.027 40.3727 208.663 40.3727 208.25ZM45.5005 205.42C46.1672 205.42 46.7072 205.623 47.1205 206.03C47.5339 206.43 47.7405 207.01 47.7405 207.77V211H46.8405V207.9C46.8405 207.353 46.7039 206.937 46.4305 206.65C46.1572 206.357 45.7839 206.21 45.3105 206.21C44.8305 206.21 44.4472 206.36 44.1605 206.66C43.8805 206.96 43.7405 207.397 43.7405 207.97V211H42.8305V205.52H43.7405V206.3C43.9205 206.02 44.1639 205.803 44.4705 205.65C44.7839 205.497 45.1272 205.42 45.5005 205.42Z" fill="white" fill-opacity="0.7"/>
<path d="M64.71 204.03V204.77H61.68V207.12H64.14V207.86H61.68V211H60.77V204.03H64.71ZM70.8091 208.05C70.8091 208.223 70.7991 208.407 70.7791 208.6H66.3991C66.4324 209.14 66.6157 209.563 66.9491 209.87C67.2891 210.17 67.6991 210.32 68.1791 210.32C68.5724 210.32 68.8991 210.23 69.1591 210.05C69.4257 209.863 69.6124 209.617 69.7191 209.31H70.6991C70.5524 209.837 70.2591 210.267 69.8191 210.6C69.3791 210.927 68.8324 211.09 68.1791 211.09C67.6591 211.09 67.1924 210.973 66.7791 210.74C66.3724 210.507 66.0524 210.177 65.8191 209.75C65.5857 209.317 65.4691 208.817 65.4691 208.25C65.4691 207.683 65.5824 207.187 65.8091 206.76C66.0357 206.333 66.3524 206.007 66.7591 205.78C67.1724 205.547 67.6457 205.43 68.1791 205.43C68.6991 205.43 69.1591 205.543 69.5591 205.77C69.9591 205.997 70.2657 206.31 70.4791 206.71C70.6991 207.103 70.8091 207.55 70.8091 208.05ZM69.8691 207.86C69.8691 207.513 69.7924 207.217 69.6391 206.97C69.4857 206.717 69.2757 206.527 69.0091 206.4C68.7491 206.267 68.4591 206.2 68.1391 206.2C67.6791 206.2 67.2857 206.347 66.9591 206.64C66.6391 206.933 66.4557 207.34 66.4091 207.86H69.8691ZM72.9202 206.54C73.1069 206.213 73.3802 205.947 73.7402 205.74C74.1002 205.533 74.5102 205.43 74.9702 205.43C75.4636 205.43 75.9069 205.547 76.3002 205.78C76.6936 206.013 77.0036 206.343 77.2302 206.77C77.4569 207.19 77.5702 207.68 77.5702 208.24C77.5702 208.793 77.4569 209.287 77.2302 209.72C77.0036 210.153 76.6902 210.49 76.2902 210.73C75.8969 210.97 75.4569 211.09 74.9702 211.09C74.4969 211.09 74.0802 210.987 73.7202 210.78C73.3669 210.573 73.1002 210.31 72.9202 209.99V211H72.0102V203.6H72.9202V206.54ZM76.6402 208.24C76.6402 207.827 76.5569 207.467 76.3902 207.16C76.2236 206.853 75.9969 206.62 75.7102 206.46C75.4302 206.3 75.1202 206.22 74.7802 206.22C74.4469 206.22 74.1369 206.303 73.8502 206.47C73.5702 206.63 73.3436 206.867 73.1702 207.18C73.0036 207.487 72.9202 207.843 72.9202 208.25C72.9202 208.663 73.0036 209.027 73.1702 209.34C73.3436 209.647 73.5702 209.883 73.8502 210.05C74.1369 210.21 74.4469 210.29 74.7802 210.29C75.1202 210.29 75.4302 210.21 75.7102 210.05C75.9969 209.883 76.2236 209.647 76.3902 209.34C76.5569 209.027 76.6402 208.66 76.6402 208.24Z" fill="white" fill-opacity="0.7"/>
<path d="M124.89 209.45H121.85L121.29 211H120.33L122.85 204.07H123.9L126.41 211H125.45L124.89 209.45ZM124.63 208.71L123.37 205.19L122.11 208.71H124.63ZM128.418 206.53C128.598 206.217 128.865 205.957 129.218 205.75C129.578 205.537 129.995 205.43 130.468 205.43C130.955 205.43 131.395 205.547 131.788 205.78C132.188 206.013 132.502 206.343 132.728 206.77C132.955 207.19 133.068 207.68 133.068 208.24C133.068 208.793 132.955 209.287 132.728 209.72C132.502 210.153 132.188 210.49 131.788 210.73C131.395 210.97 130.955 211.09 130.468 211.09C130.002 211.09 129.588 210.987 129.228 210.78C128.875 210.567 128.605 210.303 128.418 209.99V213.6H127.508V205.52H128.418V206.53ZM132.138 208.24C132.138 207.827 132.055 207.467 131.888 207.16C131.722 206.853 131.495 206.62 131.208 206.46C130.928 206.3 130.618 206.22 130.278 206.22C129.945 206.22 129.635 206.303 129.348 206.47C129.068 206.63 128.842 206.867 128.668 207.18C128.502 207.487 128.418 207.843 128.418 208.25C128.418 208.663 128.502 209.027 128.668 209.34C128.842 209.647 129.068 209.883 129.348 210.05C129.635 210.21 129.945 210.29 130.278 210.29C130.618 210.29 130.928 210.21 131.208 210.05C131.495 209.883 131.722 209.647 131.888 209.34C132.055 209.027 132.138 208.66 132.138 208.24ZM135.176 206.41C135.336 206.097 135.563 205.853 135.856 205.68C136.156 205.507 136.519 205.42 136.946 205.42V206.36H136.706C135.686 206.36 135.176 206.913 135.176 208.02V211H134.266V205.52H135.176V206.41Z" fill="white" fill-opacity="0.7"/>
<path d="M155.84 204.08V211H154.93V205.84L152.63 211H151.99L149.68 205.83V211H148.77V204.08H149.75L152.31 209.8L154.87 204.08H155.84ZM157.043 208.24C157.043 207.68 157.157 207.19 157.383 206.77C157.61 206.343 157.92 206.013 158.313 205.78C158.713 205.547 159.157 205.43 159.643 205.43C160.123 205.43 160.54 205.533 160.893 205.74C161.247 205.947 161.51 206.207 161.683 206.52V205.52H162.603V211H161.683V209.98C161.503 210.3 161.233 210.567 160.873 210.78C160.52 210.987 160.107 211.09 159.633 211.09C159.147 211.09 158.707 210.97 158.313 210.73C157.92 210.49 157.61 210.153 157.383 209.72C157.157 209.287 157.043 208.793 157.043 208.24ZM161.683 208.25C161.683 207.837 161.6 207.477 161.433 207.17C161.267 206.863 161.04 206.63 160.753 206.47C160.473 206.303 160.163 206.22 159.823 206.22C159.483 206.22 159.173 206.3 158.893 206.46C158.613 206.62 158.39 206.853 158.223 207.16C158.057 207.467 157.973 207.827 157.973 208.24C157.973 208.66 158.057 209.027 158.223 209.34C158.39 209.647 158.613 209.883 158.893 210.05C159.173 210.21 159.483 210.29 159.823 210.29C160.163 210.29 160.473 210.21 160.753 210.05C161.04 209.883 161.267 209.647 161.433 209.34C161.6 209.027 161.683 208.663 161.683 208.25ZM168.861 205.52L165.561 213.58H164.621L165.701 210.94L163.491 205.52H164.501L166.221 209.96L167.921 205.52H168.861Z" fill="white" fill-opacity="0.7"/>
<path d="M185.28 204.03V209.18C185.28 209.753 185.103 210.213 184.75 210.56C184.397 210.9 183.93 211.07 183.35 211.07C182.763 211.07 182.293 210.897 181.94 210.55C181.587 210.197 181.41 209.717 181.41 209.11H182.32C182.327 209.45 182.413 209.727 182.58 209.94C182.753 210.153 183.01 210.26 183.35 210.26C183.69 210.26 183.943 210.16 184.11 209.96C184.277 209.753 184.36 209.493 184.36 209.18V204.03H185.28ZM191.933 205.52V211H191.023V210.19C190.849 210.47 190.606 210.69 190.293 210.85C189.986 211.003 189.646 211.08 189.273 211.08C188.846 211.08 188.463 210.993 188.123 210.82C187.783 210.64 187.513 210.373 187.313 210.02C187.119 209.667 187.023 209.237 187.023 208.73V205.52H187.923V208.61C187.923 209.15 188.059 209.567 188.333 209.86C188.606 210.147 188.979 210.29 189.453 210.29C189.939 210.29 190.323 210.14 190.603 209.84C190.883 209.54 191.023 209.103 191.023 208.53V205.52H191.933ZM196.139 205.42C196.806 205.42 197.346 205.623 197.759 206.03C198.173 206.43 198.379 207.01 198.379 207.77V211H197.479V207.9C197.479 207.353 197.343 206.937 197.069 206.65C196.796 206.357 196.423 206.21 195.949 206.21C195.469 206.21 195.086 206.36 194.799 206.66C194.519 206.96 194.379 207.397 194.379 207.97V211H193.469V205.52H194.379V206.3C194.559 206.02 194.803 205.803 195.109 205.65C195.423 205.497 195.766 205.42 196.139 205.42Z" fill="white" fill-opacity="0.7"/>
<path d="M216.28 204.03V209.18C216.28 209.753 216.103 210.213 215.75 210.56C215.397 210.9 214.93 211.07 214.35 211.07C213.763 211.07 213.293 210.897 212.94 210.55C212.587 210.197 212.41 209.717 212.41 209.11H213.32C213.327 209.45 213.413 209.727 213.58 209.94C213.753 210.153 214.01 210.26 214.35 210.26C214.69 210.26 214.943 210.16 215.11 209.96C215.277 209.753 215.36 209.493 215.36 209.18V204.03H216.28ZM222.933 205.52V211H222.023V210.19C221.849 210.47 221.606 210.69 221.293 210.85C220.986 211.003 220.646 211.08 220.273 211.08C219.846 211.08 219.463 210.993 219.123 210.82C218.783 210.64 218.513 210.373 218.313 210.02C218.119 209.667 218.023 209.237 218.023 208.73V205.52H218.923V208.61C218.923 209.15 219.059 209.567 219.333 209.86C219.606 210.147 219.979 210.29 220.453 210.29C220.939 210.29 221.323 210.14 221.603 209.84C221.883 209.54 222.023 209.103 222.023 208.53V205.52H222.933ZM225.379 203.6V211H224.469V203.6H225.379Z" fill="white" fill-opacity="0.7"/>
<path d="M20 110.408C23.7962 110.408 26.073 109.49 29.7207 110.408C36.0933 112.01 35.6016 118.673 41.7287 120.888C47.3029 122.903 51.3287 120.061 57.1676 121.387C70.3128 124.373 69.0392 139.89 82.3271 142.348C87.57 143.318 90.8512 141.214 96.0505 142.348C107.08 144.755 105.761 163.209 116.636 160.315C121.78 158.946 121.884 153.957 126.928 152.33C139.373 148.316 138.656 175.638 151.516 172.792C159.017 171.131 158.459 162.922 165.811 160.814C171.115 159.293 174.572 161.451 180.106 160.814C205.469 157.896 201.491 122.635 226.995 120.888C230.111 120.675 235 120.888 235 120.888" stroke="url(#paint2_linear_1_65)" stroke-opacity="0.2"/>
<path d="M96 142.058C107.022 144.487 105.704 163.116 116.571 160.195C121.712 158.813 121.816 153.776 126.857 152.134C139.294 148.081 138.577 175.663 151.429 172.79C158.925 171.113 158.367 162.827 165.714 160.698C171.014 159.163 174.469 161.341 180 160.698C193.164 159.169 198.419 148.831 204 139" stroke="url(#paint3_linear_1_65)" stroke-width="2" stroke-linecap="round"/>
<path d="M204.928 65.904C203.819 65.3493 203.264 64.4747 203.264 63.28C203.264 62.704 203.408 62.176 203.696 61.696C203.984 61.216 204.416 60.8373 204.992 60.56C205.568 60.272 206.272 60.128 207.104 60.128C207.925 60.128 208.624 60.272 209.2 60.56C209.787 60.8373 210.224 61.216 210.512 61.696C210.8 62.176 210.944 62.704 210.944 63.28C210.944 63.8773 210.789 64.4053 210.48 64.864C210.181 65.312 209.781 65.6587 209.28 65.904C209.888 66.128 210.368 66.496 210.72 67.008C211.072 67.5093 211.248 68.1013 211.248 68.784C211.248 69.4773 211.072 70.0907 210.72 70.624C210.368 71.1573 209.877 71.568 209.248 71.856C208.619 72.144 207.904 72.288 207.104 72.288C206.304 72.288 205.589 72.144 204.96 71.856C204.341 71.568 203.856 71.1573 203.504 70.624C203.152 70.0907 202.976 69.4773 202.976 68.784C202.976 68.0907 203.152 67.4933 203.504 66.992C203.856 66.4907 204.331 66.128 204.928 65.904ZM209.2 63.504C209.2 62.9067 209.013 62.448 208.64 62.128C208.267 61.808 207.755 61.648 207.104 61.648C206.464 61.648 205.957 61.808 205.584 62.128C205.211 62.448 205.024 62.912 205.024 63.52C205.024 64.0533 205.216 64.4907 205.6 64.832C205.995 65.1627 206.496 65.328 207.104 65.328C207.712 65.328 208.213 65.1573 208.608 64.816C209.003 64.4747 209.2 64.0373 209.2 63.504ZM207.104 66.704C206.4 66.704 205.824 66.88 205.376 67.232C204.939 67.5733 204.72 68.0693 204.72 68.72C204.72 69.328 204.933 69.824 205.36 70.208C205.787 70.5813 206.368 70.768 207.104 70.768C207.829 70.768 208.4 70.576 208.816 70.192C209.243 69.808 209.456 69.3173 209.456 68.72C209.456 68.08 209.237 67.584 208.8 67.232C208.373 66.88 207.808 66.704 207.104 66.704ZM214.139 72.112C213.808 72.112 213.531 72 213.307 71.776C213.083 71.552 212.971 71.2747 212.971 70.944C212.971 70.6133 213.083 70.336 213.307 70.112C213.531 69.888 213.808 69.776 214.139 69.776C214.459 69.776 214.731 69.888 214.955 70.112C215.179 70.336 215.291 70.6133 215.291 70.944C215.291 71.2747 215.179 71.552 214.955 71.776C214.731 72 214.459 72.112 214.139 72.112ZM224.415 61.744L219.967 72H218.127L222.623 61.936H216.703V60.384H224.415V61.744ZM207.328 89L205.336 85.58H204.016V89H202.924V80.636H205.624C206.256 80.636 206.788 80.744 207.22 80.96C207.66 81.176 207.988 81.468 208.204 81.836C208.42 82.204 208.528 82.624 208.528 83.096C208.528 83.672 208.36 84.18 208.024 84.62C207.696 85.06 207.2 85.352 206.536 85.496L208.636 89H207.328ZM204.016 84.704H205.624C206.216 84.704 206.66 84.56 206.956 84.272C207.252 83.976 207.4 83.584 207.4 83.096C207.4 82.6 207.252 82.216 206.956 81.944C206.668 81.672 206.224 81.536 205.624 81.536H204.016V84.704ZM216.225 85.46C216.225 85.668 216.213 85.888 216.189 86.12H210.933C210.973 86.768 211.193 87.276 211.593 87.644C212.001 88.004 212.493 88.184 213.069 88.184C213.541 88.184 213.933 88.076 214.245 87.86C214.565 87.636 214.789 87.34 214.917 86.972H216.093C215.917 87.604 215.565 88.12 215.037 88.52C214.509 88.912 213.853 89.108 213.069 89.108C212.445 89.108 211.885 88.968 211.389 88.688C210.901 88.408 210.517 88.012 210.237 87.5C209.957 86.98 209.817 86.38 209.817 85.7C209.817 85.02 209.953 84.424 210.225 83.912C210.497 83.4 210.877 83.008 211.365 82.736C211.861 82.456 212.429 82.316 213.069 82.316C213.693 82.316 214.245 82.452 214.725 82.724C215.205 82.996 215.573 83.372 215.829 83.852C216.093 84.324 216.225 84.86 216.225 85.46ZM215.097 85.232C215.097 84.816 215.005 84.46 214.821 84.164C214.637 83.86 214.385 83.632 214.065 83.48C213.753 83.32 213.405 83.24 213.021 83.24C212.469 83.24 211.997 83.416 211.605 83.768C211.221 84.12 211.001 84.608 210.945 85.232H215.097ZM218.758 83.636C218.974 83.26 219.294 82.948 219.718 82.7C220.15 82.444 220.65 82.316 221.218 82.316C221.802 82.316 222.33 82.456 222.802 82.736C223.282 83.016 223.658 83.412 223.93 83.924C224.202 84.428 224.338 85.016 224.338 85.688C224.338 86.352 224.202 86.944 223.93 87.464C223.658 87.984 223.282 88.388 222.802 88.676C222.33 88.964 221.802 89.108 221.218 89.108C220.658 89.108 220.162 88.984 219.73 88.736C219.306 88.48 218.982 88.164 218.758 87.788V92.12H217.666V82.424H218.758V83.636ZM223.222 85.688C223.222 85.192 223.122 84.76 222.922 84.392C222.722 84.024 222.45 83.744 222.106 83.552C221.77 83.36 221.398 83.264 220.99 83.264C220.59 83.264 220.218 83.364 219.874 83.564C219.538 83.756 219.266 84.04 219.058 84.416C218.858 84.784 218.758 85.212 218.758 85.7C218.758 86.196 218.858 86.632 219.058 87.008C219.266 87.376 219.538 87.66 219.874 87.86C220.218 88.052 220.59 88.148 220.99 88.148C221.398 88.148 221.77 88.052 222.106 87.86C222.45 87.66 222.722 87.376 222.922 87.008C223.122 86.632 223.222 86.192 223.222 85.688ZM226.868 80.12V89H225.776V80.12H226.868ZM234.393 82.424L230.433 92.096H229.305L230.601 88.928L227.949 82.424H229.161L231.225 87.752L233.265 82.424H234.393ZM207.328 106L205.336 102.58H204.016V106H202.924V97.636H205.624C206.256 97.636 206.788 97.744 207.22 97.96C207.66 98.176 207.988 98.468 208.204 98.836C208.42 99.204 208.528 99.624 208.528 100.096C208.528 100.672 208.36 101.18 208.024 101.62C207.696 102.06 207.2 102.352 206.536 102.496L208.636 106H207.328ZM204.016 101.704H205.624C206.216 101.704 206.66 101.56 206.956 101.272C207.252 100.976 207.4 100.584 207.4 100.096C207.4 99.6 207.252 99.216 206.956 98.944C206.668 98.672 206.224 98.536 205.624 98.536H204.016V101.704ZM209.817 102.688C209.817 102.016 209.953 101.428 210.225 100.924C210.497 100.412 210.869 100.016 211.341 99.736C211.821 99.456 212.353 99.316 212.937 99.316C213.513 99.316 214.013 99.44 214.437 99.688C214.861 99.936 215.177 100.248 215.385 100.624V99.424H216.489V106H215.385V104.776C215.169 105.16 214.845 105.48 214.413 105.736C213.989 105.984 213.493 106.108 212.925 106.108C212.341 106.108 211.813 105.964 211.341 105.676C210.869 105.388 210.497 104.984 210.225 104.464C209.953 103.944 209.817 103.352 209.817 102.688ZM215.385 102.7C215.385 102.204 215.285 101.772 215.085 101.404C214.885 101.036 214.613 100.756 214.269 100.564C213.933 100.364 213.561 100.264 213.153 100.264C212.745 100.264 212.373 100.36 212.037 100.552C211.701 100.744 211.433 101.024 211.233 101.392C211.033 101.76 210.933 102.192 210.933 102.688C210.933 103.192 211.033 103.632 211.233 104.008C211.433 104.376 211.701 104.66 212.037 104.86C212.373 105.052 212.745 105.148 213.153 105.148C213.561 105.148 213.933 105.052 214.269 104.86C214.613 104.66 214.885 104.376 215.085 104.008C215.285 103.632 215.385 103.196 215.385 102.7ZM219.666 100.324V104.2C219.666 104.52 219.734 104.748 219.87 104.884C220.006 105.012 220.242 105.076 220.578 105.076H221.382V106H220.398C219.79 106 219.334 105.86 219.03 105.58C218.726 105.3 218.574 104.84 218.574 104.2V100.324H217.722V99.424H218.574V97.768H219.666V99.424H221.382V100.324H219.666ZM228.705 102.46C228.705 102.668 228.693 102.888 228.669 103.12H223.413C223.453 103.768 223.673 104.276 224.073 104.644C224.481 105.004 224.973 105.184 225.549 105.184C226.021 105.184 226.413 105.076 226.725 104.86C227.045 104.636 227.269 104.34 227.397 103.972H228.573C228.397 104.604 228.045 105.12 227.517 105.52C226.989 105.912 226.333 106.108 225.549 106.108C224.925 106.108 224.365 105.968 223.869 105.688C223.381 105.408 222.997 105.012 222.717 104.5C222.437 103.98 222.297 103.38 222.297 102.7C222.297 102.02 222.433 101.424 222.705 100.912C222.977 100.4 223.357 100.008 223.845 99.736C224.341 99.456 224.909 99.316 225.549 99.316C226.173 99.316 226.725 99.452 227.205 99.724C227.685 99.996 228.053 100.372 228.309 100.852C228.573 101.324 228.705 101.86 228.705 102.46ZM227.577 102.232C227.577 101.816 227.485 101.46 227.301 101.164C227.117 100.86 226.865 100.632 226.545 100.48C226.233 100.32 225.885 100.24 225.501 100.24C224.949 100.24 224.477 100.416 224.085 100.768C223.701 101.12 223.481 101.608 223.425 102.232H227.577Z" fill="#793AFF"/>
<path d="M21.845 62V60.336H25.173V72H23.333V62H21.845ZM35.0708 61.744L30.6228 72H28.7828L33.2788 61.936H27.3588V60.384H35.0708V61.744ZM44.0239 61.744L39.5759 72H37.7359L42.2319 61.936H36.3119V60.384H44.0239V61.744ZM45.585 66.016C45.585 64.1707 45.8943 62.7307 46.513 61.696C47.1423 60.6507 48.2197 60.128 49.745 60.128C51.2703 60.128 52.3423 60.6507 52.961 61.696C53.5903 62.7307 53.905 64.1707 53.905 66.016C53.905 67.8827 53.5903 69.344 52.961 70.4C52.3423 71.4453 51.2703 71.968 49.745 71.968C48.2197 71.968 47.1423 71.4453 46.513 70.4C45.8943 69.344 45.585 67.8827 45.585 66.016ZM52.113 66.016C52.113 65.152 52.0543 64.4213 51.937 63.824C51.8303 63.2267 51.6063 62.7413 51.265 62.368C50.9237 61.984 50.417 61.792 49.745 61.792C49.073 61.792 48.5663 61.984 48.225 62.368C47.8837 62.7413 47.6543 63.2267 47.537 63.824C47.4303 64.4213 47.377 65.152 47.377 66.016C47.377 66.912 47.4303 67.664 47.537 68.272C47.6437 68.88 47.8677 69.3707 48.209 69.744C48.561 70.1173 49.073 70.304 49.745 70.304C50.417 70.304 50.9237 70.1173 51.265 69.744C51.617 69.3707 51.8463 68.88 51.953 68.272C52.0597 67.664 52.113 66.912 52.113 66.016ZM28.3104 89.084C27.7584 89.084 27.2624 88.988 26.8224 88.796C26.3904 88.596 26.0504 88.324 25.8024 87.98C25.5544 87.628 25.4264 87.224 25.4184 86.768H26.5824C26.6224 87.16 26.7824 87.492 27.0624 87.764C27.3504 88.028 27.7664 88.16 28.3104 88.16C28.8304 88.16 29.2384 88.032 29.5344 87.776C29.8384 87.512 29.9904 87.176 29.9904 86.768C29.9904 86.448 29.9024 86.188 29.7264 85.988C29.5504 85.788 29.3304 85.636 29.0664 85.532C28.8024 85.428 28.4464 85.316 27.9984 85.196C27.4464 85.052 27.0024 84.908 26.6664 84.764C26.3384 84.62 26.0544 84.396 25.8144 84.092C25.5824 83.78 25.4664 83.364 25.4664 82.844C25.4664 82.388 25.5824 81.984 25.8144 81.632C26.0464 81.28 26.3704 81.008 26.7864 80.816C27.2104 80.624 27.6944 80.528 28.2384 80.528C29.0224 80.528 29.6624 80.724 30.1584 81.116C30.6624 81.508 30.9464 82.028 31.0104 82.676H29.8104C29.7704 82.356 29.6024 82.076 29.3064 81.836C29.0104 81.588 28.6184 81.464 28.1304 81.464C27.6744 81.464 27.3024 81.584 27.0144 81.824C26.7264 82.056 26.5824 82.384 26.5824 82.808C26.5824 83.112 26.6664 83.36 26.8344 83.552C27.0104 83.744 27.2224 83.892 27.4704 83.996C27.7264 84.092 28.0824 84.204 28.5384 84.332C29.0904 84.484 29.5344 84.636 29.8704 84.788C30.2064 84.932 30.4944 85.16 30.7344 85.472C30.9744 85.776 31.0944 86.192 31.0944 86.72C31.0944 87.128 30.9864 87.512 30.7704 87.872C30.5544 88.232 30.2344 88.524 29.8104 88.748C29.3864 88.972 28.8864 89.084 28.3104 89.084ZM38.7013 85.46C38.7013 85.668 38.6893 85.888 38.6653 86.12H33.4093C33.4493 86.768 33.6693 87.276 34.0693 87.644C34.4773 88.004 34.9693 88.184 35.5453 88.184C36.0173 88.184 36.4093 88.076 36.7213 87.86C37.0413 87.636 37.2653 87.34 37.3933 86.972H38.5693C38.3933 87.604 38.0413 88.12 37.5133 88.52C36.9853 88.912 36.3293 89.108 35.5453 89.108C34.9213 89.108 34.3613 88.968 33.8653 88.688C33.3773 88.408 32.9933 88.012 32.7133 87.5C32.4333 86.98 32.2933 86.38 32.2933 85.7C32.2933 85.02 32.4293 84.424 32.7013 83.912C32.9733 83.4 33.3533 83.008 33.8413 82.736C34.3373 82.456 34.9053 82.316 35.5453 82.316C36.1693 82.316 36.7213 82.452 37.2013 82.724C37.6813 82.996 38.0493 83.372 38.3053 83.852C38.5693 84.324 38.7013 84.86 38.7013 85.46ZM37.5733 85.232C37.5733 84.816 37.4813 84.46 37.2973 84.164C37.1133 83.86 36.8613 83.632 36.5413 83.48C36.2293 83.32 35.8813 83.24 35.4973 83.24C34.9453 83.24 34.4733 83.416 34.0813 83.768C33.6973 84.12 33.4773 84.608 33.4213 85.232H37.5733ZM43.3468 82.304C44.1468 82.304 44.7948 82.548 45.2908 83.036C45.7868 83.516 46.0348 84.212 46.0348 85.124V89H44.9548V85.28C44.9548 84.624 44.7908 84.124 44.4628 83.78C44.1348 83.428 43.6868 83.252 43.1188 83.252C42.5428 83.252 42.0828 83.432 41.7388 83.792C41.4028 84.152 41.2348 84.676 41.2348 85.364V89H40.1428V82.424H41.2348V83.36C41.4508 83.024 41.7428 82.764 42.1108 82.58C42.4868 82.396 42.8988 82.304 43.3468 82.304ZM49.1505 83.324V87.2C49.1505 87.52 49.2185 87.748 49.3545 87.884C49.4905 88.012 49.7265 88.076 50.0625 88.076H50.8665V89H49.8825C49.2745 89 48.8185 88.86 48.5145 88.58C48.2105 88.3 48.0585 87.84 48.0585 87.2V83.324H47.2065V82.424H48.0585V80.768H49.1505V82.424H50.8665V83.324H49.1505Z" fill="#00D9F5"/>
<path d="M20.56 29.4C20.56 28.3013 20.8053 27.32 21.296 26.456C21.7973 25.5813 22.4747 24.904 23.328 24.424C24.192 23.9333 25.1573 23.688 26.224 23.688C27.472 23.688 28.5653 24.008 29.504 24.648C30.4427 25.288 31.0987 26.1733 31.472 27.304H28.896C28.64 26.7707 28.2773 26.3707 27.808 26.104C27.3493 25.8373 26.816 25.704 26.208 25.704C25.5573 25.704 24.976 25.8587 24.464 26.168C23.9627 26.4667 23.568 26.8933 23.28 27.448C23.0027 28.0027 22.864 28.6533 22.864 29.4C22.864 30.136 23.0027 30.7867 23.28 31.352C23.568 31.9067 23.9627 32.3387 24.464 32.648C24.976 32.9467 25.5573 33.096 26.208 33.096C26.816 33.096 27.3493 32.9627 27.808 32.696C28.2773 32.4187 28.64 32.0133 28.896 31.48H31.472C31.0987 32.6213 30.4427 33.512 29.504 34.152C28.576 34.7813 27.4827 35.096 26.224 35.096C25.1573 35.096 24.192 34.856 23.328 34.376C22.4747 33.8853 21.7973 33.208 21.296 32.344C20.8053 31.48 20.56 30.4987 20.56 29.4ZM32.8092 30.536C32.8092 29.64 32.9852 28.8453 33.3372 28.152C33.6999 27.4587 34.1853 26.9253 34.7933 26.552C35.4119 26.1787 36.0999 25.992 36.8573 25.992C37.5186 25.992 38.0946 26.1253 38.5853 26.392C39.0866 26.6587 39.4866 26.9947 39.7853 27.4V26.136H42.0413V35H39.7853V33.704C39.4973 34.12 39.0973 34.4667 38.5853 34.744C38.0839 35.0107 37.5026 35.144 36.8413 35.144C36.0946 35.144 35.4119 34.952 34.7933 34.568C34.1853 34.184 33.6999 33.6453 33.3372 32.952C32.9852 32.248 32.8092 31.4427 32.8092 30.536ZM39.7853 30.568C39.7853 30.024 39.6786 29.56 39.4653 29.176C39.2519 28.7813 38.9639 28.4827 38.6013 28.28C38.2386 28.0667 37.8493 27.96 37.4333 27.96C37.0173 27.96 36.6333 28.0613 36.2812 28.264C35.9293 28.4667 35.6413 28.7653 35.4173 29.16C35.2039 29.544 35.0973 30.0027 35.0973 30.536C35.0973 31.0693 35.2039 31.5387 35.4173 31.944C35.6413 32.3387 35.9293 32.6427 36.2812 32.856C36.6439 33.0693 37.0279 33.176 37.4333 33.176C37.8493 33.176 38.2386 33.0747 38.6013 32.872C38.9639 32.6587 39.2519 32.36 39.4653 31.976C39.6786 31.5813 39.7853 31.112 39.7853 30.568ZM55.237 26.008C56.325 26.008 57.1997 26.344 57.861 27.016C58.533 27.6773 58.869 28.6053 58.869 29.8V35H56.629V30.104C56.629 29.4107 56.453 28.8827 56.101 28.52C55.749 28.1467 55.269 27.96 54.661 27.96C54.053 27.96 53.5677 28.1467 53.205 28.52C52.853 28.8827 52.677 29.4107 52.677 30.104V35H50.437V30.104C50.437 29.4107 50.261 28.8827 49.909 28.52C49.557 28.1467 49.077 27.96 48.469 27.96C47.8503 27.96 47.3597 28.1467 46.997 28.52C46.645 28.8827 46.469 29.4107 46.469 30.104V35H44.229V26.136H46.469V27.208C46.757 26.8347 47.125 26.5413 47.573 26.328C48.0317 26.1147 48.533 26.008 49.077 26.008C49.7703 26.008 50.389 26.1573 50.933 26.456C51.477 26.744 51.8983 27.16 52.197 27.704C52.485 27.192 52.901 26.7813 53.445 26.472C53.9997 26.1627 54.597 26.008 55.237 26.008ZM63.2346 27.416C63.5226 27.0107 63.9173 26.6747 64.4186 26.408C64.9306 26.1307 65.512 25.992 66.1626 25.992C66.92 25.992 67.6026 26.1787 68.2106 26.552C68.8293 26.9253 69.3146 27.4587 69.6666 28.152C70.0293 28.8347 70.2106 29.6293 70.2106 30.536C70.2106 31.4427 70.0293 32.248 69.6666 32.952C69.3146 33.6453 68.8293 34.184 68.2106 34.568C67.6026 34.952 66.92 35.144 66.1626 35.144C65.512 35.144 64.936 35.0107 64.4346 34.744C63.944 34.4773 63.544 34.1413 63.2346 33.736V39.224H60.9946V26.136H63.2346V27.416ZM67.9226 30.536C67.9226 30.0027 67.8106 29.544 67.5866 29.16C67.3733 28.7653 67.0853 28.4667 66.7226 28.264C66.3706 28.0613 65.9866 27.96 65.5706 27.96C65.1653 27.96 64.7813 28.0667 64.4186 28.28C64.0666 28.4827 63.7786 28.7813 63.5546 29.176C63.3413 29.5707 63.2346 30.0347 63.2346 30.568C63.2346 31.1013 63.3413 31.5653 63.5546 31.96C63.7786 32.3547 64.0666 32.6587 64.4186 32.872C64.7813 33.0747 65.1653 33.176 65.5706 33.176C65.9866 33.176 66.3706 33.0693 66.7226 32.856C67.0853 32.6427 67.3733 32.3387 67.5866 31.944C67.8106 31.5493 67.9226 31.08 67.9226 30.536ZM71.2624 30.536C71.2624 29.64 71.4384 28.8453 71.7904 28.152C72.153 27.4587 72.6384 26.9253 73.2464 26.552C73.865 26.1787 74.553 25.992 75.3104 25.992C75.9717 25.992 76.5477 26.1253 77.0384 26.392C77.5397 26.6587 77.9397 26.9947 78.2384 27.4V26.136H80.4944V35H78.2384V33.704C77.9504 34.12 77.5504 34.4667 77.0384 34.744C76.537 35.0107 75.9557 35.144 75.2944 35.144C74.5477 35.144 73.865 34.952 73.2464 34.568C72.6384 34.184 72.153 33.6453 71.7904 32.952C71.4384 32.248 71.2624 31.4427 71.2624 30.536ZM78.2384 30.568C78.2384 30.024 78.1317 29.56 77.9184 29.176C77.705 28.7813 77.417 28.4827 77.0544 28.28C76.6917 28.0667 76.3024 27.96 75.8864 27.96C75.4704 27.96 75.0864 28.0613 74.7344 28.264C74.3824 28.4667 74.0944 28.7653 73.8704 29.16C73.657 29.544 73.5504 30.0027 73.5504 30.536C73.5504 31.0693 73.657 31.5387 73.8704 31.944C74.0944 32.3387 74.3824 32.6427 74.7344 32.856C75.097 33.0693 75.481 33.176 75.8864 33.176C76.3024 33.176 76.6917 33.0747 77.0544 32.872C77.417 32.6587 77.705 32.36 77.9184 31.976C78.1317 31.5813 78.2384 31.112 78.2384 30.568ZM83.8181 25.08C83.4235 25.08 83.0928 24.9573 82.8261 24.712C82.5701 24.456 82.4421 24.1413 82.4421 23.768C82.4421 23.3947 82.5701 23.0853 82.8261 22.84C83.0928 22.584 83.4235 22.456 83.8181 22.456C84.2128 22.456 84.5381 22.584 84.7941 22.84C85.0608 23.0853 85.1941 23.3947 85.1941 23.768C85.1941 24.1413 85.0608 24.456 84.7941 24.712C84.5381 24.9573 84.2128 25.08 83.8181 25.08ZM84.9221 26.136V35H82.6821V26.136H84.9221ZM90.6073 25.992C91.2686 25.992 91.8499 26.1253 92.3513 26.392C92.8526 26.648 93.2473 26.984 93.5353 27.4V26.136H95.7913V35.064C95.7913 35.8853 95.6259 36.616 95.2953 37.256C94.9646 37.9067 94.4686 38.4187 93.8073 38.792C93.1459 39.176 92.3459 39.368 91.4073 39.368C90.1486 39.368 89.1139 39.0747 88.3033 38.488C87.5033 37.9013 87.0499 37.1013 86.9433 36.088H89.1673C89.2846 36.4933 89.5353 36.8133 89.9193 37.048C90.3139 37.2933 90.7886 37.416 91.3433 37.416C91.9939 37.416 92.5219 37.2187 92.9273 36.824C93.3326 36.44 93.5353 35.8533 93.5353 35.064V33.688C93.2473 34.104 92.8473 34.4507 92.3353 34.728C91.8339 35.0053 91.2579 35.144 90.6073 35.144C89.8606 35.144 89.1779 34.952 88.5593 34.568C87.9406 34.184 87.4499 33.6453 87.0872 32.952C86.7352 32.248 86.5592 31.4427 86.5592 30.536C86.5592 29.64 86.7352 28.8453 87.0872 28.152C87.4499 27.4587 87.9353 26.9253 88.5433 26.552C89.1619 26.1787 89.8499 25.992 90.6073 25.992ZM93.5353 30.568C93.5353 30.024 93.4286 29.56 93.2153 29.176C93.0019 28.7813 92.7139 28.4827 92.3513 28.28C91.9886 28.0667 91.5993 27.96 91.1833 27.96C90.7673 27.96 90.3833 28.0613 90.0312 28.264C89.6793 28.4667 89.3913 28.7653 89.1673 29.16C88.9539 29.544 88.8473 30.0027 88.8473 30.536C88.8473 31.0693 88.9539 31.5387 89.1673 31.944C89.3913 32.3387 89.6793 32.6427 90.0312 32.856C90.3939 33.0693 90.7779 33.176 91.1833 33.176C91.5993 33.176 91.9886 33.0747 92.3513 32.872C92.7139 32.6587 93.0019 32.36 93.2153 31.976C93.4286 31.5813 93.5353 31.112 93.5353 30.568ZM102.891 26.008C103.947 26.008 104.8 26.344 105.451 27.016C106.102 27.6773 106.427 28.6053 106.427 29.8V35H104.187V30.104C104.187 29.4 104.011 28.8613 103.659 28.488C103.307 28.104 102.827 27.912 102.219 27.912C101.6 27.912 101.11 28.104 100.747 28.488C100.395 28.8613 100.219 29.4 100.219 30.104V35H97.979V26.136H100.219V27.24C100.518 26.856 100.896 26.5573 101.355 26.344C101.824 26.12 102.336 26.008 102.891 26.008ZM119.218 32.872H114.77L114.034 35H111.682L115.698 23.816H118.306L122.322 35H119.954L119.218 32.872ZM118.61 31.08L116.994 26.408L115.378 31.08H118.61ZM128.735 26.008C129.791 26.008 130.644 26.344 131.295 27.016C131.945 27.6773 132.271 28.6053 132.271 29.8V35H130.031V30.104C130.031 29.4 129.855 28.8613 129.503 28.488C129.151 28.104 128.671 27.912 128.063 27.912C127.444 27.912 126.953 28.104 126.591 28.488C126.239 28.8613 126.063 29.4 126.063 30.104V35H123.823V26.136H126.063V27.24C126.361 26.856 126.74 26.5573 127.199 26.344C127.668 26.12 128.18 26.008 128.735 26.008ZM133.825 30.536C133.825 29.64 134.001 28.8453 134.353 28.152C134.716 27.4587 135.201 26.9253 135.809 26.552C136.428 26.1787 137.116 25.992 137.873 25.992C138.534 25.992 139.11 26.1253 139.601 26.392C140.102 26.6587 140.502 26.9947 140.801 27.4V26.136H143.057V35H140.801V33.704C140.513 34.12 140.113 34.4667 139.601 34.744C139.1 35.0107 138.518 35.144 137.857 35.144C137.11 35.144 136.428 34.952 135.809 34.568C135.201 34.184 134.716 33.6453 134.353 32.952C134.001 32.248 133.825 31.4427 133.825 30.536ZM140.801 30.568C140.801 30.024 140.694 29.56 140.481 29.176C140.268 28.7813 139.98 28.4827 139.617 28.28C139.254 28.0667 138.865 27.96 138.449 27.96C138.033 27.96 137.649 28.0613 137.297 28.264C136.945 28.4667 136.657 28.7653 136.433 29.16C136.22 29.544 136.113 30.0027 136.113 30.536C136.113 31.0693 136.22 31.5387 136.433 31.944C136.657 32.3387 136.945 32.6427 137.297 32.856C137.66 33.0693 138.044 33.176 138.449 33.176C138.865 33.176 139.254 33.0747 139.617 32.872C139.98 32.6587 140.268 32.36 140.481 31.976C140.694 31.5813 140.801 31.112 140.801 30.568ZM147.485 23.16V35H145.245V23.16H147.485ZM158.178 26.136L152.69 39.192H150.306L152.226 34.776L148.674 26.136H151.186L153.474 32.328L155.794 26.136H158.178ZM161.993 27.976V32.264C161.993 32.5627 162.063 32.7813 162.201 32.92C162.351 33.048 162.596 33.112 162.937 33.112H163.977V35H162.569C160.681 35 159.737 34.0827 159.737 32.248V27.976H158.681V26.136H159.737V23.944H161.993V26.136H163.977V27.976H161.993ZM166.724 25.08C166.33 25.08 165.999 24.9573 165.732 24.712C165.476 24.456 165.348 24.1413 165.348 23.768C165.348 23.3947 165.476 23.0853 165.732 22.84C165.999 22.584 166.33 22.456 166.724 22.456C167.119 22.456 167.444 22.584 167.7 22.84C167.967 23.0853 168.1 23.3947 168.1 23.768C168.1 24.1413 167.967 24.456 167.7 24.712C167.444 24.9573 167.119 25.08 166.724 25.08ZM167.828 26.136V35H165.588V26.136H167.828ZM169.465 30.568C169.465 29.6507 169.652 28.8507 170.026 28.168C170.399 27.4747 170.916 26.9413 171.578 26.568C172.239 26.184 172.996 25.992 173.85 25.992C174.948 25.992 175.855 26.2693 176.57 26.824C177.295 27.368 177.78 28.136 178.026 29.128H175.61C175.482 28.744 175.263 28.4453 174.954 28.232C174.655 28.008 174.282 27.896 173.834 27.896C173.194 27.896 172.687 28.1307 172.314 28.6C171.94 29.0587 171.754 29.7147 171.754 30.568C171.754 31.4107 171.94 32.0667 172.314 32.536C172.687 32.9947 173.194 33.224 173.834 33.224C174.74 33.224 175.332 32.8187 175.61 32.008H178.026C177.78 32.968 177.295 33.7307 176.57 34.296C175.844 34.8613 174.938 35.144 173.85 35.144C172.996 35.144 172.239 34.9573 171.578 34.584C170.916 34.2 170.399 33.6667 170.026 32.984C169.652 32.2907 169.465 31.4853 169.465 30.568ZM183.059 35.144C182.333 35.144 181.683 35.016 181.107 34.76C180.531 34.4933 180.072 34.136 179.731 33.688C179.4 33.24 179.219 32.744 179.187 32.2H181.443C181.485 32.5413 181.651 32.824 181.939 33.048C182.237 33.272 182.605 33.384 183.043 33.384C183.469 33.384 183.8 33.2987 184.035 33.128C184.28 32.9573 184.403 32.7387 184.403 32.472C184.403 32.184 184.253 31.9707 183.955 31.832C183.667 31.6827 183.203 31.5227 182.562 31.352C181.901 31.192 181.357 31.0267 180.931 30.856C180.515 30.6853 180.152 30.424 179.843 30.072C179.544 29.72 179.395 29.2453 179.395 28.648C179.395 28.1573 179.533 27.7093 179.811 27.304C180.099 26.8987 180.504 26.5787 181.027 26.344C181.56 26.1093 182.184 25.992 182.899 25.992C183.955 25.992 184.797 26.2587 185.427 26.792C186.056 27.3147 186.403 28.024 186.467 28.92H184.323C184.291 28.568 184.141 28.2907 183.875 28.088C183.619 27.8747 183.272 27.768 182.835 27.768C182.429 27.768 182.115 27.8427 181.891 27.992C181.677 28.1413 181.571 28.3493 181.571 28.616C181.571 28.9147 181.72 29.144 182.019 29.304C182.317 29.4533 182.781 29.608 183.411 29.768C184.051 29.928 184.579 30.0933 184.995 30.264C185.411 30.4347 185.768 30.7013 186.067 31.064C186.376 31.416 186.536 31.8853 186.547 32.472C186.547 32.984 186.403 33.4427 186.115 33.848C185.837 34.2533 185.432 34.5733 184.899 34.808C184.376 35.032 183.763 35.144 183.059 35.144Z" fill="white"/>
<g clip-path="url(#clip0_1_65)">
<path d="M195.083 27.8333L198 30.75L200.917 27.8333H195.083Z" fill="white"/>
</g>
<path d="M122.352 61.744L117.904 72H116.064L120.56 61.936H114.64V60.384H122.352V61.744ZM124.889 72.112C124.558 72.112 124.281 72 124.057 71.776C123.833 71.552 123.721 71.2747 123.721 70.944C123.721 70.6133 123.833 70.336 124.057 70.112C124.281 69.888 124.558 69.776 124.889 69.776C125.209 69.776 125.481 69.888 125.705 70.112C125.929 70.336 126.041 70.6133 126.041 70.944C126.041 71.2747 125.929 71.552 125.705 71.776C125.481 72 125.209 72.112 124.889 72.112ZM128.781 69.52C129.805 68.6347 130.61 67.9093 131.197 67.344C131.794 66.768 132.29 66.1707 132.685 65.552C133.079 64.9333 133.277 64.3147 133.277 63.696C133.277 63.056 133.122 62.5547 132.813 62.192C132.514 61.8293 132.039 61.648 131.389 61.648C130.759 61.648 130.269 61.8507 129.917 62.256C129.575 62.6507 129.394 63.184 129.373 63.856H127.613C127.645 62.64 128.007 61.712 128.701 61.072C129.405 60.4213 130.295 60.096 131.373 60.096C132.535 60.096 133.442 60.416 134.093 61.056C134.754 61.696 135.085 62.5493 135.085 63.616C135.085 64.384 134.887 65.1253 134.493 65.84C134.109 66.544 133.645 67.1787 133.101 67.744C132.567 68.2987 131.885 68.944 131.053 69.68L130.333 70.32H135.405V71.84H127.629V70.512L128.781 69.52ZM118.716 89.084C117.94 89.084 117.232 88.904 116.592 88.544C115.952 88.176 115.444 87.668 115.068 87.02C114.7 86.364 114.516 85.628 114.516 84.812C114.516 83.996 114.7 83.264 115.068 82.616C115.444 81.96 115.952 81.452 116.592 81.092C117.232 80.724 117.94 80.54 118.716 80.54C119.5 80.54 120.212 80.724 120.852 81.092C121.492 81.452 121.996 81.956 122.364 82.604C122.732 83.252 122.916 83.988 122.916 84.812C122.916 85.636 122.732 86.372 122.364 87.02C121.996 87.668 121.492 88.176 120.852 88.544C120.212 88.904 119.5 89.084 118.716 89.084ZM118.716 88.136C119.3 88.136 119.824 88 120.288 87.728C120.76 87.456 121.128 87.068 121.392 86.564C121.664 86.06 121.8 85.476 121.8 84.812C121.8 84.14 121.664 83.556 121.392 83.06C121.128 82.556 120.764 82.168 120.3 81.896C119.836 81.624 119.308 81.488 118.716 81.488C118.124 81.488 117.596 81.624 117.132 81.896C116.668 82.168 116.3 82.556 116.028 83.06C115.764 83.556 115.632 84.14 115.632 84.812C115.632 85.476 115.764 86.06 116.028 86.564C116.3 87.068 116.668 87.456 117.132 87.728C117.604 88 118.132 88.136 118.716 88.136ZM125.45 83.636C125.666 83.26 125.986 82.948 126.41 82.7C126.842 82.444 127.342 82.316 127.91 82.316C128.494 82.316 129.022 82.456 129.494 82.736C129.974 83.016 130.35 83.412 130.622 83.924C130.894 84.428 131.03 85.016 131.03 85.688C131.03 86.352 130.894 86.944 130.622 87.464C130.35 87.984 129.974 88.388 129.494 88.676C129.022 88.964 128.494 89.108 127.91 89.108C127.35 89.108 126.854 88.984 126.422 88.736C125.998 88.48 125.674 88.164 125.45 87.788V92.12H124.358V82.424H125.45V83.636ZM129.914 85.688C129.914 85.192 129.814 84.76 129.614 84.392C129.414 84.024 129.142 83.744 128.798 83.552C128.462 83.36 128.09 83.264 127.682 83.264C127.282 83.264 126.91 83.364 126.566 83.564C126.23 83.756 125.958 84.04 125.75 84.416C125.55 84.784 125.45 85.212 125.45 85.7C125.45 86.196 125.55 86.632 125.75 87.008C125.958 87.376 126.23 87.66 126.566 87.86C126.91 88.052 127.282 88.148 127.682 88.148C128.09 88.148 128.462 88.052 128.798 87.86C129.142 87.66 129.414 87.376 129.614 87.008C129.814 86.632 129.914 86.192 129.914 85.688ZM138.467 85.46C138.467 85.668 138.455 85.888 138.431 86.12H133.175C133.215 86.768 133.435 87.276 133.835 87.644C134.243 88.004 134.735 88.184 135.311 88.184C135.783 88.184 136.175 88.076 136.487 87.86C136.807 87.636 137.031 87.34 137.159 86.972H138.335C138.159 87.604 137.807 88.12 137.279 88.52C136.751 88.912 136.095 89.108 135.311 89.108C134.687 89.108 134.127 88.968 133.631 88.688C133.143 88.408 132.759 88.012 132.479 87.5C132.199 86.98 132.059 86.38 132.059 85.7C132.059 85.02 132.195 84.424 132.467 83.912C132.739 83.4 133.119 83.008 133.607 82.736C134.103 82.456 134.671 82.316 135.311 82.316C135.935 82.316 136.487 82.452 136.967 82.724C137.447 82.996 137.815 83.372 138.071 83.852C138.335 84.324 138.467 84.86 138.467 85.46ZM137.339 85.232C137.339 84.816 137.247 84.46 137.063 84.164C136.879 83.86 136.627 83.632 136.307 83.48C135.995 83.32 135.647 83.24 135.263 83.24C134.711 83.24 134.239 83.416 133.847 83.768C133.463 84.12 133.243 84.608 133.187 85.232H137.339ZM143.112 82.304C143.912 82.304 144.56 82.548 145.056 83.036C145.552 83.516 145.8 84.212 145.8 85.124V89H144.72V85.28C144.72 84.624 144.556 84.124 144.228 83.78C143.9 83.428 143.452 83.252 142.884 83.252C142.308 83.252 141.848 83.432 141.504 83.792C141.168 84.152 141 84.676 141 85.364V89H139.908V82.424H141V83.36C141.216 83.024 141.508 82.764 141.876 82.58C142.252 82.396 142.664 82.304 143.112 82.304ZM119.328 106L117.336 102.58H116.016V106H114.924V97.636H117.624C118.256 97.636 118.788 97.744 119.22 97.96C119.66 98.176 119.988 98.468 120.204 98.836C120.42 99.204 120.528 99.624 120.528 100.096C120.528 100.672 120.36 101.18 120.024 101.62C119.696 102.06 119.2 102.352 118.536 102.496L120.636 106H119.328ZM116.016 101.704H117.624C118.216 101.704 118.66 101.56 118.956 101.272C119.252 100.976 119.4 100.584 119.4 100.096C119.4 99.6 119.252 99.216 118.956 98.944C118.668 98.672 118.224 98.536 117.624 98.536H116.016V101.704ZM121.817 102.688C121.817 102.016 121.953 101.428 122.225 100.924C122.497 100.412 122.869 100.016 123.341 99.736C123.821 99.456 124.353 99.316 124.937 99.316C125.513 99.316 126.013 99.44 126.437 99.688C126.861 99.936 127.177 100.248 127.385 100.624V99.424H128.489V106H127.385V104.776C127.169 105.16 126.845 105.48 126.413 105.736C125.989 105.984 125.493 106.108 124.925 106.108C124.341 106.108 123.813 105.964 123.341 105.676C122.869 105.388 122.497 104.984 122.225 104.464C121.953 103.944 121.817 103.352 121.817 102.688ZM127.385 102.7C127.385 102.204 127.285 101.772 127.085 101.404C126.885 101.036 126.613 100.756 126.269 100.564C125.933 100.364 125.561 100.264 125.153 100.264C124.745 100.264 124.373 100.36 124.037 100.552C123.701 100.744 123.433 101.024 123.233 101.392C123.033 101.76 122.933 102.192 122.933 102.688C122.933 103.192 123.033 103.632 123.233 104.008C123.433 104.376 123.701 104.66 124.037 104.86C124.373 105.052 124.745 105.148 125.153 105.148C125.561 105.148 125.933 105.052 126.269 104.86C126.613 104.66 126.885 104.376 127.085 104.008C127.285 103.632 127.385 103.196 127.385 102.7ZM131.666 100.324V104.2C131.666 104.52 131.734 104.748 131.87 104.884C132.006 105.012 132.242 105.076 132.578 105.076H133.382V106H132.398C131.79 106 131.334 105.86 131.03 105.58C130.726 105.3 130.574 104.84 130.574 104.2V100.324H129.722V99.424H130.574V97.768H131.666V99.424H133.382V100.324H131.666ZM140.705 102.46C140.705 102.668 140.693 102.888 140.669 103.12H135.413C135.453 103.768 135.673 104.276 136.073 104.644C136.481 105.004 136.973 105.184 137.549 105.184C138.021 105.184 138.413 105.076 138.725 104.86C139.045 104.636 139.269 104.34 139.397 103.972H140.573C140.397 104.604 140.045 105.12 139.517 105.52C138.989 105.912 138.333 106.108 137.549 106.108C136.925 106.108 136.365 105.968 135.869 105.688C135.381 105.408 134.997 105.012 134.717 104.5C134.437 103.98 134.297 103.38 134.297 102.7C134.297 102.02 134.433 101.424 134.705 100.912C134.977 100.4 135.357 100.008 135.845 99.736C136.341 99.456 136.909 99.316 137.549 99.316C138.173 99.316 138.725 99.452 139.205 99.724C139.685 99.996 140.053 100.372 140.309 100.852C140.573 101.324 140.705 101.86 140.705 102.46ZM139.577 102.232C139.577 101.816 139.485 101.46 139.301 101.164C139.117 100.86 138.865 100.632 138.545 100.48C138.233 100.32 137.885 100.24 137.501 100.24C136.949 100.24 136.477 100.416 136.085 100.768C135.701 101.12 135.481 101.608 135.425 102.232H139.577Z" fill="#3AA1FF"/>
<defs>
<linearGradient id="paint0_linear_1_65" x1="-466.326" y1="-738.792" x2="294.859" y2="139.786" gradientUnits="userSpaceOnUse">
<stop stop-color="white"/>
<stop offset="0.939091" stop-color="#1D1D1D"/>
</linearGradient>
<linearGradient id="paint1_linear_1_65" x1="85" y1="207.5" x2="113" y2="207.5" gradientUnits="userSpaceOnUse">
<stop stop-color="#00D9F5"/>
<stop offset="1" stop-color="#793AFF"/>
</linearGradient>
<linearGradient id="paint2_linear_1_65" x1="20" y1="141.5" x2="235" y2="141.5" gradientUnits="userSpaceOnUse">
<stop stop-color="#00D9F5"/>
<stop offset="1" stop-color="#793AFF"/>
</linearGradient>
<linearGradient id="paint3_linear_1_65" x1="96" y1="156" x2="204" y2="156" gradientUnits="userSpaceOnUse">
<stop stop-color="#00D9F5"/>
<stop offset="1" stop-color="#793AFF"/>
</linearGradient>
<clipPath id="clip0_1_65">
<rect width="14" height="14" fill="white" transform="translate(191 22)"/>
</clipPath>
</defs>
</svg>
