<svg width="262" height="140" viewBox="0 0 262 140" fill="none" xmlns="http://www.w3.org/2000/svg">
<g filter="url(#filter0_b_1_24)">
<rect y="6.10352e-05" width="262" height="140" rx="20" fill="url(#paint0_linear_1_24)"/>
<rect x="0.5" y="0.500061" width="261" height="139" rx="19.5" stroke="#373737"/>
</g>
<path d="M52.4678 82.272C53.0971 82.3893 53.6145 82.704 54.0198 83.216C54.4251 83.728 54.6278 84.3147 54.6278 84.976C54.6278 85.5733 54.4785 86.1013 54.1798 86.56C53.8918 87.008 53.4705 87.36 52.9158 87.616C52.3611 87.872 51.7051 88 50.9478 88H46.1318V76.832H50.7398C51.4971 76.832 52.1478 76.9547 52.6918 77.2C53.2465 77.4453 53.6625 77.7867 53.9398 78.224C54.2278 78.6613 54.3718 79.1573 54.3718 79.712C54.3718 80.3627 54.1958 80.9067 53.8438 81.344C53.5025 81.7813 53.0438 82.0907 52.4678 82.272ZM48.3718 81.44H50.4198C50.9531 81.44 51.3638 81.3227 51.6518 81.088C51.9398 80.8427 52.0838 80.496 52.0838 80.048C52.0838 79.6 51.9398 79.2533 51.6518 79.008C51.3638 78.7627 50.9531 78.64 50.4198 78.64H48.3718V81.44ZM50.6278 86.176C51.1718 86.176 51.5931 86.048 51.8918 85.792C52.2011 85.536 52.3558 85.1733 52.3558 84.704C52.3558 84.224 52.1958 83.8507 51.8758 83.584C51.5558 83.3067 51.1238 83.168 50.5798 83.168H48.3718V86.176H50.6278ZM60.5091 88.144C59.6557 88.144 58.8877 87.9573 58.2051 87.584C57.5224 87.2 56.9837 86.6613 56.5891 85.968C56.2051 85.2747 56.0131 84.4747 56.0131 83.568C56.0131 82.6613 56.2104 81.8613 56.6051 81.168C57.0104 80.4747 57.5597 79.9413 58.2531 79.568C58.9464 79.184 59.7197 78.992 60.5731 78.992C61.4264 78.992 62.1997 79.184 62.8931 79.568C63.5864 79.9413 64.1304 80.4747 64.5251 81.168C64.9304 81.8613 65.1331 82.6613 65.1331 83.568C65.1331 84.4747 64.9251 85.2747 64.5091 85.968C64.1037 86.6613 63.5491 87.2 62.8451 87.584C62.1517 87.9573 61.3731 88.144 60.5091 88.144ZM60.5091 86.192C60.9144 86.192 61.2931 86.096 61.6451 85.904C62.0077 85.7013 62.2957 85.4027 62.5091 85.008C62.7224 84.6133 62.8291 84.1333 62.8291 83.568C62.8291 82.7253 62.6051 82.08 62.1571 81.632C61.7197 81.1733 61.1811 80.944 60.5411 80.944C59.9011 80.944 59.3624 81.1733 58.9251 81.632C58.4984 82.08 58.2851 82.7253 58.2851 83.568C58.2851 84.4107 58.4931 85.0613 58.9091 85.52C59.3357 85.968 59.8691 86.192 60.5091 86.192ZM75.3042 79.136V88H73.0482V86.88C72.7602 87.264 72.3815 87.568 71.9122 87.792C71.4535 88.0053 70.9522 88.112 70.4082 88.112C69.7149 88.112 69.1015 87.968 68.5682 87.68C68.0349 87.3813 67.6135 86.9493 67.3042 86.384C67.0055 85.808 66.8562 85.1253 66.8562 84.336V79.136H69.0962V84.016C69.0962 84.72 69.2722 85.264 69.6242 85.648C69.9762 86.0213 70.4562 86.208 71.0642 86.208C71.6829 86.208 72.1682 86.0213 72.5202 85.648C72.8722 85.264 73.0482 84.72 73.0482 84.016V79.136H75.3042ZM82.5863 79.008C83.6423 79.008 84.4956 79.344 85.1463 80.016C85.797 80.6773 86.1223 81.6053 86.1223 82.8V88H83.8823V83.104C83.8823 82.4 83.7063 81.8613 83.3543 81.488C83.0023 81.104 82.5223 80.912 81.9143 80.912C81.2956 80.912 80.805 81.104 80.4423 81.488C80.0903 81.8613 79.9143 82.4 79.9143 83.104V88H77.6743V79.136H79.9143V80.24C80.213 79.856 80.5916 79.5573 81.0503 79.344C81.5196 79.12 82.0316 79.008 82.5863 79.008ZM87.8364 83.568C87.8364 82.6507 88.0231 81.8507 88.3964 81.168C88.7698 80.4747 89.2871 79.9413 89.9484 79.568C90.6098 79.184 91.3671 78.992 92.2204 78.992C93.3191 78.992 94.2258 79.2693 94.9404 79.824C95.6658 80.368 96.1511 81.136 96.3964 82.128H93.9804C93.8524 81.744 93.6338 81.4453 93.3244 81.232C93.0258 81.008 92.6524 80.896 92.2044 80.896C91.5644 80.896 91.0578 81.1307 90.6844 81.6C90.3111 82.0587 90.1244 82.7147 90.1244 83.568C90.1244 84.4107 90.3111 85.0667 90.6844 85.536C91.0578 85.9947 91.5644 86.224 92.2044 86.224C93.1111 86.224 93.7031 85.8187 93.9804 85.008H96.3964C96.1511 85.968 95.6658 86.7307 94.9404 87.296C94.2151 87.8613 93.3084 88.144 92.2204 88.144C91.3671 88.144 90.6098 87.9573 89.9484 87.584C89.2871 87.2 88.7698 86.6667 88.3964 85.984C88.0231 85.2907 87.8364 84.4853 87.8364 83.568ZM106.437 83.376C106.437 83.696 106.416 83.984 106.373 84.24H99.8934C99.9468 84.88 100.171 85.3813 100.565 85.744C100.96 86.1067 101.445 86.288 102.021 86.288C102.853 86.288 103.445 85.9307 103.797 85.216H106.213C105.957 86.0693 105.467 86.7733 104.741 87.328C104.016 87.872 103.125 88.144 102.069 88.144C101.216 88.144 100.448 87.9573 99.7654 87.584C99.0934 87.2 98.5654 86.6613 98.1814 85.968C97.8081 85.2747 97.6214 84.4747 97.6214 83.568C97.6214 82.6507 97.8081 81.8453 98.1814 81.152C98.5548 80.4587 99.0774 79.9253 99.7494 79.552C100.421 79.1787 101.195 78.992 102.069 78.992C102.912 78.992 103.664 79.1733 104.325 79.536C104.997 79.8987 105.515 80.416 105.877 81.088C106.251 81.7493 106.437 82.512 106.437 83.376ZM104.117 82.736C104.107 82.16 103.899 81.7013 103.493 81.36C103.088 81.008 102.592 80.832 102.005 80.832C101.451 80.832 100.981 81.0027 100.597 81.344C100.224 81.6747 99.9948 82.1387 99.9094 82.736H104.117ZM107.656 83.536C107.656 82.64 107.832 81.8453 108.184 81.152C108.547 80.4587 109.038 79.9253 109.656 79.552C110.275 79.1787 110.963 78.992 111.72 78.992C112.296 78.992 112.846 79.12 113.368 79.376C113.891 79.6213 114.307 79.952 114.616 80.368V76.16H116.888V88H114.616V86.688C114.339 87.1253 113.95 87.4773 113.448 87.744C112.947 88.0107 112.366 88.144 111.704 88.144C110.958 88.144 110.275 87.952 109.656 87.568C109.038 87.184 108.547 86.6453 108.184 85.952C107.832 85.248 107.656 84.4427 107.656 83.536ZM114.632 83.568C114.632 83.024 114.526 82.56 114.312 82.176C114.099 81.7813 113.811 81.4827 113.448 81.28C113.086 81.0667 112.696 80.96 112.28 80.96C111.864 80.96 111.48 81.0613 111.128 81.264C110.776 81.4667 110.488 81.7653 110.264 82.16C110.051 82.544 109.944 83.0027 109.944 83.536C109.944 84.0693 110.051 84.5387 110.264 84.944C110.488 85.3387 110.776 85.6427 111.128 85.856C111.491 86.0693 111.875 86.176 112.28 86.176C112.696 86.176 113.086 86.0747 113.448 85.872C113.811 85.6587 114.099 85.36 114.312 84.976C114.526 84.5813 114.632 84.112 114.632 83.568Z" fill="white"/>
<path d="M48.7115 30.224H52.3915V32H46.4715V20.832H48.7115V30.224ZM62.2153 27.376C62.2153 27.696 62.1939 27.984 62.1513 28.24H55.6713C55.7246 28.88 55.9486 29.3813 56.3433 29.744C56.7379 30.1067 57.2233 30.288 57.7993 30.288C58.6313 30.288 59.2233 29.9307 59.5753 29.216H61.9913C61.7353 30.0693 61.2446 30.7733 60.5193 31.328C59.7939 31.872 58.9033 32.144 57.8473 32.144C56.9939 32.144 56.2259 31.9573 55.5433 31.584C54.8713 31.2 54.3433 30.6613 53.9593 29.968C53.5859 29.2747 53.3993 28.4747 53.3993 27.568C53.3993 26.6507 53.5859 25.8453 53.9593 25.152C54.3326 24.4587 54.8553 23.9253 55.5273 23.552C56.1993 23.1787 56.9726 22.992 57.8473 22.992C58.6899 22.992 59.4419 23.1733 60.1033 23.536C60.7753 23.8987 61.2926 24.416 61.6553 25.088C62.0286 25.7493 62.2153 26.512 62.2153 27.376ZM59.8953 26.736C59.8846 26.16 59.6766 25.7013 59.2713 25.36C58.8659 25.008 58.3699 24.832 57.7833 24.832C57.2286 24.832 56.7593 25.0027 56.3753 25.344C56.0019 25.6747 55.7726 26.1387 55.6873 26.736H59.8953ZM63.4342 27.536C63.4342 26.64 63.6102 25.8453 63.9622 25.152C64.3249 24.4587 64.8103 23.9253 65.4183 23.552C66.0369 23.1787 66.7249 22.992 67.4823 22.992C68.1436 22.992 68.7196 23.1253 69.2103 23.392C69.7116 23.6587 70.1116 23.9947 70.4103 24.4V23.136H72.6663V32H70.4103V30.704C70.1223 31.12 69.7223 31.4667 69.2103 31.744C68.7089 32.0107 68.1276 32.144 67.4663 32.144C66.7196 32.144 66.0369 31.952 65.4183 31.568C64.8103 31.184 64.3249 30.6453 63.9622 29.952C63.6102 29.248 63.4342 28.4427 63.4342 27.536ZM70.4103 27.568C70.4103 27.024 70.3036 26.56 70.0903 26.176C69.8769 25.7813 69.5889 25.4827 69.2263 25.28C68.8636 25.0667 68.4743 24.96 68.0583 24.96C67.6423 24.96 67.2583 25.0613 66.9062 25.264C66.5543 25.4667 66.2663 25.7653 66.0423 26.16C65.8289 26.544 65.7223 27.0027 65.7223 27.536C65.7223 28.0693 65.8289 28.5387 66.0423 28.944C66.2663 29.3387 66.5543 29.6427 66.9062 29.856C67.2689 30.0693 67.6529 30.176 68.0583 30.176C68.4743 30.176 68.8636 30.0747 69.2263 29.872C69.5889 29.6587 69.8769 29.36 70.0903 28.976C70.3036 28.5813 70.4103 28.112 70.4103 27.568ZM74.438 27.536C74.438 26.64 74.614 25.8453 74.966 25.152C75.3287 24.4587 75.8193 23.9253 76.438 23.552C77.0567 23.1787 77.7447 22.992 78.502 22.992C79.078 22.992 79.6273 23.12 80.15 23.376C80.6727 23.6213 81.0887 23.952 81.398 24.368V20.16H83.67V32H81.398V30.688C81.1207 31.1253 80.7313 31.4773 80.23 31.744C79.7287 32.0107 79.1473 32.144 78.486 32.144C77.7393 32.144 77.0567 31.952 76.438 31.568C75.8193 31.184 75.3287 30.6453 74.966 29.952C74.614 29.248 74.438 28.4427 74.438 27.536ZM81.414 27.568C81.414 27.024 81.3073 26.56 81.094 26.176C80.8807 25.7813 80.5927 25.4827 80.23 25.28C79.8673 25.0667 79.478 24.96 79.062 24.96C78.646 24.96 78.262 25.0613 77.91 25.264C77.558 25.4667 77.27 25.7653 77.046 26.16C76.8327 26.544 76.726 27.0027 76.726 27.536C76.726 28.0693 76.8327 28.5387 77.046 28.944C77.27 29.3387 77.558 29.6427 77.91 29.856C78.2727 30.0693 78.6567 30.176 79.062 30.176C79.478 30.176 79.8673 30.0747 80.23 29.872C80.5927 29.6587 80.8807 29.36 81.094 28.976C81.3073 28.5813 81.414 28.112 81.414 27.568ZM89.4097 32.144C88.6844 32.144 88.0337 32.016 87.4577 31.76C86.8817 31.4933 86.4231 31.136 86.0817 30.688C85.7511 30.24 85.5697 29.744 85.5377 29.2H87.7937C87.8364 29.5413 88.0017 29.824 88.2897 30.048C88.5884 30.272 88.9564 30.384 89.3937 30.384C89.8204 30.384 90.1511 30.2987 90.3857 30.128C90.6311 29.9573 90.7537 29.7387 90.7537 29.472C90.7537 29.184 90.6044 28.9707 90.3057 28.832C90.0177 28.6827 89.5537 28.5227 88.9137 28.352C88.2524 28.192 87.7084 28.0267 87.2817 27.856C86.8657 27.6853 86.5031 27.424 86.1937 27.072C85.8951 26.72 85.7457 26.2453 85.7457 25.648C85.7457 25.1573 85.8844 24.7093 86.1617 24.304C86.4497 23.8987 86.8551 23.5787 87.3777 23.344C87.9111 23.1093 88.5351 22.992 89.2498 22.992C90.3057 22.992 91.1484 23.2587 91.7778 23.792C92.4071 24.3147 92.7538 25.024 92.8177 25.92H90.6737C90.6418 25.568 90.4924 25.2907 90.2257 25.088C89.9698 24.8747 89.6231 24.768 89.1858 24.768C88.7804 24.768 88.4657 24.8427 88.2417 24.992C88.0284 25.1413 87.9217 25.3493 87.9217 25.616C87.9217 25.9147 88.0711 26.144 88.3697 26.304C88.6684 26.4533 89.1324 26.608 89.7617 26.768C90.4017 26.928 90.9297 27.0933 91.3457 27.264C91.7617 27.4347 92.1191 27.7013 92.4177 28.064C92.7271 28.416 92.8871 28.8853 92.8977 29.472C92.8977 29.984 92.7538 30.4427 92.4658 30.848C92.1884 31.2533 91.7831 31.5733 91.2498 31.808C90.7271 32.032 90.1137 32.144 89.4097 32.144Z" fill="white"/>
<path d="M45.7481 54.4C45.7481 53.3013 45.9935 52.32 46.4841 51.456C46.9855 50.5813 47.6628 49.904 48.5161 49.424C49.3801 48.9333 50.3455 48.688 51.4121 48.688C52.6601 48.688 53.7535 49.008 54.6921 49.648C55.6308 50.288 56.2868 51.1733 56.6601 52.304H54.0841C53.8281 51.7707 53.4655 51.3707 52.9961 51.104C52.5375 50.8373 52.0041 50.704 51.3961 50.704C50.7455 50.704 50.1641 50.8587 49.6521 51.168C49.1508 51.4667 48.7561 51.8933 48.4681 52.448C48.1908 53.0027 48.0521 53.6533 48.0521 54.4C48.0521 55.136 48.1908 55.7867 48.4681 56.352C48.7561 56.9067 49.1508 57.3387 49.6521 57.648C50.1641 57.9467 50.7455 58.096 51.3961 58.096C52.0041 58.096 52.5375 57.9627 52.9961 57.696C53.4655 57.4187 53.8281 57.0133 54.0841 56.48H56.6601C56.2868 57.6213 55.6308 58.512 54.6921 59.152C53.7641 59.7813 52.6708 60.096 51.4121 60.096C50.3455 60.096 49.3801 59.856 48.5161 59.376C47.6628 58.8853 46.9855 58.208 46.4841 57.344C45.9935 56.48 45.7481 55.4987 45.7481 54.4ZM62.6694 60.144C61.816 60.144 61.048 59.9573 60.3654 59.584C59.6827 59.2 59.144 58.6613 58.7494 57.968C58.3654 57.2747 58.1734 56.4747 58.1734 55.568C58.1734 54.6613 58.3707 53.8613 58.7654 53.168C59.1707 52.4747 59.72 51.9413 60.4134 51.568C61.1067 51.184 61.88 50.992 62.7334 50.992C63.5867 50.992 64.36 51.184 65.0534 51.568C65.7467 51.9413 66.2907 52.4747 66.6854 53.168C67.0907 53.8613 67.2934 54.6613 67.2934 55.568C67.2934 56.4747 67.0854 57.2747 66.6694 57.968C66.264 58.6613 65.7094 59.2 65.0054 59.584C64.312 59.9573 63.5334 60.144 62.6694 60.144ZM62.6694 58.192C63.0747 58.192 63.4534 58.096 63.8054 57.904C64.168 57.7013 64.456 57.4027 64.6694 57.008C64.8827 56.6133 64.9894 56.1333 64.9894 55.568C64.9894 54.7253 64.7654 54.08 64.3174 53.632C63.88 53.1733 63.3414 52.944 62.7014 52.944C62.0614 52.944 61.5227 53.1733 61.0854 53.632C60.6587 54.08 60.4454 54.7253 60.4454 55.568C60.4454 56.4107 60.6534 57.0613 61.0694 57.52C61.496 57.968 62.0294 58.192 62.6694 58.192ZM80.1045 51.008C81.1925 51.008 82.0672 51.344 82.7285 52.016C83.4005 52.6773 83.7365 53.6053 83.7365 54.8V60H81.4965V55.104C81.4965 54.4107 81.3205 53.8827 80.9685 53.52C80.6165 53.1467 80.1365 52.96 79.5285 52.96C78.9205 52.96 78.4352 53.1467 78.0725 53.52C77.7205 53.8827 77.5445 54.4107 77.5445 55.104V60H75.3045V55.104C75.3045 54.4107 75.1285 53.8827 74.7765 53.52C74.4245 53.1467 73.9445 52.96 73.3365 52.96C72.7178 52.96 72.2272 53.1467 71.8645 53.52C71.5125 53.8827 71.3365 54.4107 71.3365 55.104V60H69.0965V51.136H71.3365V52.208C71.6245 51.8347 71.9925 51.5413 72.4405 51.328C72.8992 51.1147 73.4005 51.008 73.9445 51.008C74.6378 51.008 75.2565 51.1573 75.8005 51.456C76.3445 51.744 76.7658 52.16 77.0645 52.704C77.3525 52.192 77.7685 51.7813 78.3125 51.472C78.8672 51.1627 79.4645 51.008 80.1045 51.008ZM88.2621 52.416C88.5501 52.0107 88.9448 51.6747 89.4461 51.408C89.9581 51.1307 90.5395 50.992 91.1901 50.992C91.9475 50.992 92.6301 51.1787 93.2381 51.552C93.8568 51.9253 94.3421 52.4587 94.6941 53.152C95.0568 53.8347 95.2381 54.6293 95.2381 55.536C95.2381 56.4427 95.0568 57.248 94.6941 57.952C94.3421 58.6453 93.8568 59.184 93.2381 59.568C92.6301 59.952 91.9475 60.144 91.1901 60.144C90.5395 60.144 89.9635 60.0107 89.4621 59.744C88.9715 59.4773 88.5715 59.1413 88.2621 58.736V64.224H86.0221V51.136H88.2621V52.416ZM92.9501 55.536C92.9501 55.0027 92.8381 54.544 92.6141 54.16C92.4008 53.7653 92.1128 53.4667 91.7501 53.264C91.3981 53.0613 91.0141 52.96 90.5981 52.96C90.1928 52.96 89.8088 53.0667 89.4461 53.28C89.0941 53.4827 88.8061 53.7813 88.5821 54.176C88.3688 54.5707 88.2621 55.0347 88.2621 55.568C88.2621 56.1013 88.3688 56.5653 88.5821 56.96C88.8061 57.3547 89.0941 57.6587 89.4461 57.872C89.8088 58.0747 90.1928 58.176 90.5981 58.176C91.0141 58.176 91.3981 58.0693 91.7501 57.856C92.1128 57.6427 92.4008 57.3387 92.6141 56.944C92.8381 56.5493 92.9501 56.08 92.9501 55.536ZM99.2659 48.16V60H97.0259V48.16H99.2659ZM109.879 55.376C109.879 55.696 109.858 55.984 109.815 56.24H103.335C103.388 56.88 103.612 57.3813 104.007 57.744C104.402 58.1067 104.887 58.288 105.463 58.288C106.295 58.288 106.887 57.9307 107.239 57.216H109.655C109.399 58.0693 108.908 58.7733 108.183 59.328C107.458 59.872 106.567 60.144 105.511 60.144C104.658 60.144 103.89 59.9573 103.207 59.584C102.535 59.2 102.007 58.6613 101.623 57.968C101.25 57.2747 101.063 56.4747 101.063 55.568C101.063 54.6507 101.25 53.8453 101.623 53.152C101.996 52.4587 102.519 51.9253 103.191 51.552C103.863 51.1787 104.636 50.992 105.511 50.992C106.354 50.992 107.106 51.1733 107.767 51.536C108.439 51.8987 108.956 52.416 109.319 53.088C109.692 53.7493 109.879 54.512 109.879 55.376ZM107.559 54.736C107.548 54.16 107.34 53.7013 106.935 53.36C106.53 53.008 106.034 52.832 105.447 52.832C104.892 52.832 104.423 53.0027 104.039 53.344C103.666 53.6747 103.436 54.1387 103.351 54.736H107.559ZM114.282 52.976V57.264C114.282 57.5627 114.351 57.7813 114.49 57.92C114.639 58.048 114.885 58.112 115.226 58.112H116.266V60H114.858C112.97 60 112.026 59.0827 112.026 57.248V52.976H110.97V51.136H112.026V48.944H114.282V51.136H116.266V52.976H114.282ZM126.277 55.376C126.277 55.696 126.256 55.984 126.213 56.24H119.733C119.786 56.88 120.01 57.3813 120.405 57.744C120.8 58.1067 121.285 58.288 121.861 58.288C122.693 58.288 123.285 57.9307 123.637 57.216H126.053C125.797 58.0693 125.306 58.7733 124.581 59.328C123.856 59.872 122.965 60.144 121.909 60.144C121.056 60.144 120.288 59.9573 119.605 59.584C118.933 59.2 118.405 58.6613 118.021 57.968C117.648 57.2747 117.461 56.4747 117.461 55.568C117.461 54.6507 117.648 53.8453 118.021 53.152C118.394 52.4587 118.917 51.9253 119.589 51.552C120.261 51.1787 121.034 50.992 121.909 50.992C122.752 50.992 123.504 51.1733 124.165 51.536C124.837 51.8987 125.354 52.416 125.717 53.088C126.09 53.7493 126.277 54.512 126.277 55.376ZM123.957 54.736C123.946 54.16 123.738 53.7013 123.333 53.36C122.928 53.008 122.432 52.832 121.845 52.832C121.29 52.832 120.821 53.0027 120.437 53.344C120.064 53.6747 119.834 54.1387 119.749 54.736H123.957ZM127.496 55.536C127.496 54.64 127.672 53.8453 128.024 53.152C128.387 52.4587 128.877 51.9253 129.496 51.552C130.115 51.1787 130.803 50.992 131.56 50.992C132.136 50.992 132.685 51.12 133.208 51.376C133.731 51.6213 134.147 51.952 134.456 52.368V48.16H136.728V60H134.456V58.688C134.179 59.1253 133.789 59.4773 133.288 59.744C132.787 60.0107 132.205 60.144 131.544 60.144C130.797 60.144 130.115 59.952 129.496 59.568C128.877 59.184 128.387 58.6453 128.024 57.952C127.672 57.248 127.496 56.4427 127.496 55.536ZM134.472 55.568C134.472 55.024 134.365 54.56 134.152 54.176C133.939 53.7813 133.651 53.4827 133.288 53.28C132.925 53.0667 132.536 52.96 132.12 52.96C131.704 52.96 131.32 53.0613 130.968 53.264C130.616 53.4667 130.328 53.7653 130.104 54.16C129.891 54.544 129.784 55.0027 129.784 55.536C129.784 56.0693 129.891 56.5387 130.104 56.944C130.328 57.3387 130.616 57.6427 130.968 57.856C131.331 58.0693 131.715 58.176 132.12 58.176C132.536 58.176 132.925 58.0747 133.288 57.872C133.651 57.6587 133.939 57.36 134.152 56.976C134.365 56.5813 134.472 56.112 134.472 55.568Z" fill="white"/>
<path d="M48.5804 103.832V110.744C48.5804 111.501 48.7778 112.083 49.1724 112.488C49.5671 112.883 50.1218 113.08 50.8364 113.08C51.5618 113.08 52.1218 112.883 52.5164 112.488C52.9111 112.083 53.1084 111.501 53.1084 110.744V103.832H55.3644V110.728C55.3644 111.677 55.1564 112.483 54.7404 113.144C54.3351 113.795 53.7858 114.285 53.0924 114.616C52.4098 114.947 51.6471 115.112 50.8044 115.112C49.9724 115.112 49.2151 114.947 48.5324 114.616C47.8604 114.285 47.3271 113.795 46.9324 113.144C46.5378 112.483 46.3404 111.677 46.3404 110.728V103.832H48.5804ZM62.6007 106.008C63.6567 106.008 64.51 106.344 65.1607 107.016C65.8114 107.677 66.1367 108.605 66.1367 109.8V115H63.8967V110.104C63.8967 109.4 63.7207 108.861 63.3687 108.488C63.0167 108.104 62.5367 107.912 61.9287 107.912C61.31 107.912 60.8194 108.104 60.4567 108.488C60.1047 108.861 59.9287 109.4 59.9287 110.104V115H57.6887V106.136H59.9287V107.24C60.2274 106.856 60.606 106.557 61.0647 106.344C61.534 106.12 62.046 106.008 62.6007 106.008ZM71.8188 115.144C71.0935 115.144 70.4428 115.016 69.8668 114.76C69.2908 114.493 68.8321 114.136 68.4908 113.688C68.1601 113.24 67.9788 112.744 67.9468 112.2H70.2028C70.2455 112.541 70.4108 112.824 70.6988 113.048C70.9975 113.272 71.3655 113.384 71.8028 113.384C72.2295 113.384 72.5601 113.299 72.7948 113.128C73.0401 112.957 73.1628 112.739 73.1628 112.472C73.1628 112.184 73.0135 111.971 72.7148 111.832C72.4268 111.683 71.9628 111.523 71.3228 111.352C70.6615 111.192 70.1175 111.027 69.6908 110.856C69.2748 110.685 68.9121 110.424 68.6028 110.072C68.3041 109.72 68.1548 109.245 68.1548 108.648C68.1548 108.157 68.2935 107.709 68.5708 107.304C68.8588 106.899 69.2641 106.579 69.7868 106.344C70.3201 106.109 70.9441 105.992 71.6588 105.992C72.7148 105.992 73.5575 106.259 74.1868 106.792C74.8161 107.315 75.1628 108.024 75.2268 108.92H73.0828C73.0508 108.568 72.9015 108.291 72.6348 108.088C72.3788 107.875 72.0321 107.768 71.5948 107.768C71.1895 107.768 70.8748 107.843 70.6508 107.992C70.4375 108.141 70.3308 108.349 70.3308 108.616C70.3308 108.915 70.4801 109.144 70.7788 109.304C71.0775 109.453 71.5415 109.608 72.1708 109.768C72.8108 109.928 73.3388 110.093 73.7548 110.264C74.1708 110.435 74.5281 110.701 74.8268 111.064C75.1361 111.416 75.2961 111.885 75.3068 112.472C75.3068 112.984 75.1628 113.443 74.8748 113.848C74.5975 114.253 74.1921 114.573 73.6588 114.808C73.1361 115.032 72.5228 115.144 71.8188 115.144ZM85.6736 106.136V115H83.4176V113.88C83.1296 114.264 82.7509 114.568 82.2816 114.792C81.8229 115.005 81.3216 115.112 80.7776 115.112C80.0842 115.112 79.4709 114.968 78.9376 114.68C78.4042 114.381 77.9829 113.949 77.6736 113.384C77.3749 112.808 77.2256 112.125 77.2256 111.336V106.136H79.4656V111.016C79.4656 111.72 79.6416 112.264 79.9936 112.648C80.3456 113.021 80.8256 113.208 81.4336 113.208C82.0522 113.208 82.5376 113.021 82.8896 112.648C83.2416 112.264 83.4176 111.72 83.4176 111.016V106.136H85.6736ZM90.2837 107.432C90.5717 107.005 90.9664 106.659 91.4677 106.392C91.9797 106.125 92.561 105.992 93.2117 105.992C93.969 105.992 94.6517 106.179 95.2597 106.552C95.8784 106.925 96.3637 107.459 96.7157 108.152C97.0784 108.835 97.2597 109.629 97.2597 110.536C97.2597 111.443 97.0784 112.248 96.7157 112.952C96.3637 113.645 95.8784 114.184 95.2597 114.568C94.6517 114.952 93.969 115.144 93.2117 115.144C92.5504 115.144 91.969 115.016 91.4677 114.76C90.977 114.493 90.5824 114.152 90.2837 113.736V115H88.0437V103.16H90.2837V107.432ZM94.9717 110.536C94.9717 110.003 94.8597 109.544 94.6357 109.16C94.4224 108.765 94.1344 108.467 93.7717 108.264C93.4197 108.061 93.0357 107.96 92.6197 107.96C92.2144 107.96 91.8304 108.067 91.4677 108.28C91.1157 108.483 90.8277 108.781 90.6037 109.176C90.3904 109.571 90.2837 110.035 90.2837 110.568C90.2837 111.101 90.3904 111.565 90.6037 111.96C90.8277 112.355 91.1157 112.659 91.4677 112.872C91.8304 113.075 92.2144 113.176 92.6197 113.176C93.0357 113.176 93.4197 113.069 93.7717 112.856C94.1344 112.643 94.4224 112.339 94.6357 111.944C94.8597 111.549 94.9717 111.08 94.9717 110.536ZM102.439 115.144C101.714 115.144 101.063 115.016 100.487 114.76C99.9114 114.493 99.4528 114.136 99.1114 113.688C98.7808 113.24 98.5994 112.744 98.5674 112.2H100.823C100.866 112.541 101.031 112.824 101.319 113.048C101.618 113.272 101.986 113.384 102.423 113.384C102.85 113.384 103.181 113.299 103.415 113.128C103.661 112.957 103.783 112.739 103.783 112.472C103.783 112.184 103.634 111.971 103.335 111.832C103.047 111.683 102.583 111.523 101.943 111.352C101.282 111.192 100.738 111.027 100.311 110.856C99.8954 110.685 99.5328 110.424 99.2234 110.072C98.9248 109.72 98.7754 109.245 98.7754 108.648C98.7754 108.157 98.9141 107.709 99.1914 107.304C99.4794 106.899 99.8848 106.579 100.407 106.344C100.941 106.109 101.565 105.992 102.279 105.992C103.335 105.992 104.178 106.259 104.807 106.792C105.437 107.315 105.783 108.024 105.847 108.92H103.703C103.671 108.568 103.522 108.291 103.255 108.088C102.999 107.875 102.653 107.768 102.215 107.768C101.81 107.768 101.495 107.843 101.271 107.992C101.058 108.141 100.951 108.349 100.951 108.616C100.951 108.915 101.101 109.144 101.399 109.304C101.698 109.453 102.162 109.608 102.791 109.768C103.431 109.928 103.959 110.093 104.375 110.264C104.791 110.435 105.149 110.701 105.447 111.064C105.757 111.416 105.917 111.885 105.927 112.472C105.927 112.984 105.783 113.443 105.495 113.848C105.218 114.253 104.813 114.573 104.279 114.808C103.757 115.032 103.143 115.144 102.439 115.144ZM107.35 110.568C107.35 109.651 107.537 108.851 107.91 108.168C108.284 107.475 108.801 106.941 109.462 106.568C110.124 106.184 110.881 105.992 111.734 105.992C112.833 105.992 113.74 106.269 114.454 106.824C115.18 107.368 115.665 108.136 115.91 109.128H113.494C113.366 108.744 113.148 108.445 112.838 108.232C112.54 108.008 112.166 107.896 111.718 107.896C111.078 107.896 110.572 108.131 110.198 108.6C109.825 109.059 109.638 109.715 109.638 110.568C109.638 111.411 109.825 112.067 110.198 112.536C110.572 112.995 111.078 113.224 111.718 113.224C112.625 113.224 113.217 112.819 113.494 112.008H115.91C115.665 112.968 115.18 113.731 114.454 114.296C113.729 114.861 112.822 115.144 111.734 115.144C110.881 115.144 110.124 114.957 109.462 114.584C108.801 114.2 108.284 113.667 107.91 112.984C107.537 112.291 107.35 111.485 107.35 110.568ZM119.951 107.512C120.239 107.043 120.613 106.675 121.071 106.408C121.541 106.141 122.074 106.008 122.671 106.008V108.36H122.079C121.375 108.36 120.842 108.525 120.479 108.856C120.127 109.187 119.951 109.763 119.951 110.584V115H117.711V106.136H119.951V107.512ZM125.476 105.08C125.081 105.08 124.751 104.957 124.484 104.712C124.228 104.456 124.1 104.141 124.1 103.768C124.1 103.395 124.228 103.085 124.484 102.84C124.751 102.584 125.081 102.456 125.476 102.456C125.871 102.456 126.196 102.584 126.452 102.84C126.719 103.085 126.852 103.395 126.852 103.768C126.852 104.141 126.719 104.456 126.452 104.712C126.196 104.957 125.871 105.08 125.476 105.08ZM126.58 106.136V115H124.34V106.136H126.58ZM131.193 107.432C131.481 107.005 131.876 106.659 132.377 106.392C132.889 106.125 133.47 105.992 134.121 105.992C134.878 105.992 135.561 106.179 136.169 106.552C136.788 106.925 137.273 107.459 137.625 108.152C137.988 108.835 138.169 109.629 138.169 110.536C138.169 111.443 137.988 112.248 137.625 112.952C137.273 113.645 136.788 114.184 136.169 114.568C135.561 114.952 134.878 115.144 134.121 115.144C133.46 115.144 132.878 115.016 132.377 114.76C131.886 114.493 131.492 114.152 131.193 113.736V115H128.953V103.16H131.193V107.432ZM135.881 110.536C135.881 110.003 135.769 109.544 135.545 109.16C135.332 108.765 135.044 108.467 134.681 108.264C134.329 108.061 133.945 107.96 133.529 107.96C133.124 107.96 132.74 108.067 132.377 108.28C132.025 108.483 131.737 108.781 131.513 109.176C131.3 109.571 131.193 110.035 131.193 110.568C131.193 111.101 131.3 111.565 131.513 111.96C131.737 112.355 132.025 112.659 132.377 112.872C132.74 113.075 133.124 113.176 133.529 113.176C133.945 113.176 134.329 113.069 134.681 112.856C135.044 112.643 135.332 112.339 135.545 111.944C135.769 111.549 135.881 111.08 135.881 110.536ZM148.197 110.376C148.197 110.696 148.175 110.984 148.133 111.24H141.653C141.706 111.88 141.93 112.381 142.325 112.744C142.719 113.107 143.205 113.288 143.781 113.288C144.613 113.288 145.205 112.931 145.557 112.216H147.973C147.717 113.069 147.226 113.773 146.501 114.328C145.775 114.872 144.885 115.144 143.829 115.144C142.975 115.144 142.207 114.957 141.525 114.584C140.853 114.2 140.325 113.661 139.941 112.968C139.567 112.275 139.381 111.475 139.381 110.568C139.381 109.651 139.567 108.845 139.941 108.152C140.314 107.459 140.837 106.925 141.509 106.552C142.181 106.179 142.954 105.992 143.829 105.992C144.671 105.992 145.423 106.173 146.085 106.536C146.757 106.899 147.274 107.416 147.637 108.088C148.01 108.749 148.197 109.512 148.197 110.376ZM145.877 109.736C145.866 109.16 145.658 108.701 145.253 108.36C144.847 108.008 144.351 107.832 143.765 107.832C143.21 107.832 142.741 108.003 142.357 108.344C141.983 108.675 141.754 109.139 141.669 109.736H145.877ZM149.416 110.536C149.416 109.64 149.592 108.845 149.944 108.152C150.306 107.459 150.797 106.925 151.416 106.552C152.034 106.179 152.722 105.992 153.48 105.992C154.056 105.992 154.605 106.12 155.128 106.376C155.65 106.621 156.066 106.952 156.376 107.368V103.16H158.648V115H156.376V113.688C156.098 114.125 155.709 114.477 155.208 114.744C154.706 115.011 154.125 115.144 153.464 115.144C152.717 115.144 152.034 114.952 151.416 114.568C150.797 114.184 150.306 113.645 149.944 112.952C149.592 112.248 149.416 111.443 149.416 110.536ZM156.392 110.568C156.392 110.024 156.285 109.56 156.072 109.176C155.858 108.781 155.57 108.483 155.208 108.28C154.845 108.067 154.456 107.96 154.04 107.96C153.624 107.96 153.24 108.061 152.888 108.264C152.536 108.467 152.248 108.765 152.024 109.16C151.81 109.544 151.704 110.003 151.704 110.536C151.704 111.069 151.81 111.539 152.024 111.944C152.248 112.339 152.536 112.643 152.888 112.856C153.25 113.069 153.634 113.176 154.04 113.176C154.456 113.176 154.845 113.075 155.208 112.872C155.57 112.659 155.858 112.36 156.072 111.976C156.285 111.581 156.392 111.112 156.392 110.568Z" fill="white"/>
<g clip-path="url(#clip0_1_24)">
<path d="M42 29C42 22.3726 36.6274 17 30 17C23.3726 17 18 22.3726 18 29C18 35.6274 23.3726 41 30 41C36.6274 41 42 35.6274 42 29Z" fill="black"/>
<path fill-rule="evenodd" clip-rule="evenodd" d="M32.8156 25.291C32.8156 27.3677 31.6081 29.15 30.0003 29.15C28.3912 29.15 27.1849 27.3677 27.1849 25.2903C27.1849 23.2142 28.2235 22 30.0003 22C31.7771 22 32.8156 23.2136 32.8156 25.291ZM25.0591 33.7923C25.2999 34.09 26.3372 35 30.0003 35C33.6633 35 34.7 34.09 34.9415 33.7929C34.9639 33.7644 34.9804 33.7314 34.9901 33.696C34.9998 33.6605 35.0024 33.6234 34.9978 33.5869C34.9427 33.0136 34.446 30.45 30.0003 30.45C25.5546 30.45 25.0578 33.0136 25.0021 33.5869C24.9976 33.6235 25.0003 33.6606 25.0101 33.696C25.0199 33.7315 25.0366 33.7638 25.0591 33.7923Z" fill="#0094FF"/>
</g>
<g clip-path="url(#clip1_1_24)">
<path d="M42 55C42 48.3726 36.6274 43 30 43C23.3726 43 18 48.3726 18 55C18 61.6274 23.3726 67 30 67C36.6274 67 42 61.6274 42 55Z" fill="black"/>
<path fill-rule="evenodd" clip-rule="evenodd" d="M31.9333 50.6667C31.9333 49.6667 30.9453 49 30.1733 49C29.636 49 29.594 49.408 29.5113 50.2133C29.4747 50.5667 29.4307 50.996 29.3333 51.5C29.076 52.8347 28.1867 54.54 27.336 55.05V59C27.3333 60.5 27.8333 61 30 61H32.5153C33.966 61 34.3173 60.0447 34.448 59.6907L34.4567 59.6667C34.5327 59.4627 34.6953 59.302 34.882 59.12C35.0887 58.916 35.3247 58.6847 35.5 58.3333C35.7073 57.918 35.68 57.5487 35.6553 57.22C35.64 57.0207 35.626 56.8367 35.6667 56.6667C35.7093 56.4867 35.764 56.35 35.8167 56.2193C35.912 55.982 36 55.762 36 55.3333C36 54.3333 35.5013 53.668 34.4567 53.668H31.6667C31.6667 53.668 31.9333 51.6667 31.9333 50.6667ZM25 54.3333C24.7348 54.3333 24.4804 54.4387 24.2929 54.6262C24.1054 54.8138 24 55.0681 24 55.3333V60C24 60.2652 24.1054 60.5196 24.2929 60.7071C24.4804 60.8946 24.7348 61 25 61C25.2652 61 25.5196 60.8946 25.7071 60.7071C25.8946 60.5196 26 60.2652 26 60V55.3333C26 55.0681 25.8946 54.8138 25.7071 54.6262C25.5196 54.4387 25.2652 54.3333 25 54.3333Z" fill="#8626FF"/>
</g>
<g clip-path="url(#clip2_1_24)">
<path d="M42 82C42 75.3726 36.6274 70 30 70C23.3726 70 18 75.3726 18 82C18 88.6274 23.3726 94 30 94C36.6274 94 42 88.6274 42 82Z" fill="black"/>
<path d="M30.8 77H28.2C25.7487 77 24.5231 77 23.7615 77.7322C23.2132 78.2594 23.0597 79.018 23.0167 80.2812H35.9833C35.9403 79.018 35.7868 78.2594 35.2385 77.7322C34.477 77 33.2513 77 30.8 77Z" fill="#FC56FF"/>
<path d="M28.2 87H30.8C33.2513 87 34.477 87 35.2385 86.2677C36 85.5356 36 84.357 36 82C36 81.7238 36 81.4637 35.9988 81.2188H23.0012C23 81.4637 23 81.7238 23 82C23 84.357 23 85.5356 23.7615 86.2677C24.523 87 25.7487 87 28.2 87Z" fill="#FC56FF"/>
<path fill-rule="evenodd" clip-rule="evenodd" d="M25.1125 84.5C25.1125 84.2411 25.3308 84.0312 25.6 84.0312H28.2C28.4692 84.0312 28.6875 84.2411 28.6875 84.5C28.6875 84.7589 28.4692 84.9688 28.2 84.9688H25.6C25.3308 84.9688 25.1125 84.7589 25.1125 84.5Z" fill="white"/>
<path fill-rule="evenodd" clip-rule="evenodd" d="M29.3375 84.5C29.3375 84.2411 29.5558 84.0312 29.825 84.0312H30.8C31.0692 84.0312 31.2875 84.2411 31.2875 84.5C31.2875 84.7589 31.0692 84.9688 30.8 84.9688H29.825C29.5558 84.9688 29.3375 84.7589 29.3375 84.5Z" fill="white"/>
</g>
<path d="M193.657 21.76V20.432H196.665V32H195.193V21.76H193.657ZM206.702 21.696H201.086V25.344C201.331 25.0027 201.694 24.7253 202.174 24.512C202.654 24.288 203.171 24.176 203.726 24.176C204.611 24.176 205.331 24.3627 205.886 24.736C206.441 25.0987 206.835 25.5733 207.07 26.16C207.315 26.736 207.438 27.3493 207.438 28C207.438 28.768 207.294 29.456 207.006 30.064C206.718 30.672 206.275 31.152 205.678 31.504C205.091 31.856 204.361 32.032 203.486 32.032C202.366 32.032 201.459 31.744 200.766 31.168C200.073 30.592 199.651 29.824 199.502 28.864H200.926C201.065 29.472 201.358 29.9467 201.806 30.288C202.254 30.6293 202.819 30.8 203.502 30.8C204.345 30.8 204.979 30.5493 205.406 30.048C205.833 29.536 206.046 28.864 206.046 28.032C206.046 27.2 205.833 26.56 205.406 26.112C204.979 25.6533 204.35 25.424 203.518 25.424C202.953 25.424 202.457 25.5627 202.03 25.84C201.614 26.1067 201.31 26.4747 201.118 26.944H199.742V20.416H206.702V21.696ZM215.981 23.184C215.746 22 215.016 21.408 213.789 21.408C212.84 21.408 212.13 21.776 211.661 22.512C211.192 23.2373 210.962 24.4373 210.973 26.112C211.218 25.5573 211.624 25.1253 212.189 24.816C212.765 24.496 213.405 24.336 214.109 24.336C215.208 24.336 216.082 24.6773 216.733 25.36C217.394 26.0427 217.725 26.9867 217.725 28.192C217.725 28.9173 217.581 29.568 217.293 30.144C217.016 30.72 216.589 31.1787 216.013 31.52C215.448 31.8613 214.76 32.032 213.949 32.032C212.85 32.032 211.992 31.7867 211.373 31.296C210.754 30.8053 210.322 30.128 210.077 29.264C209.832 28.4 209.709 27.3333 209.709 26.064C209.709 22.1493 211.074 20.192 213.805 20.192C214.85 20.192 215.672 20.4747 216.269 21.04C216.866 21.6053 217.218 22.32 217.325 23.184H215.981ZM213.805 25.568C213.346 25.568 212.914 25.664 212.509 25.856C212.104 26.0373 211.773 26.32 211.517 26.704C211.272 27.0773 211.149 27.536 211.149 28.08C211.149 28.8907 211.384 29.552 211.853 30.064C212.322 30.5653 212.994 30.816 213.869 30.816C214.616 30.816 215.208 30.5867 215.645 30.128C216.093 29.6587 216.317 29.0293 216.317 28.24C216.317 27.408 216.104 26.7573 215.677 26.288C215.25 25.808 214.626 25.568 213.805 25.568ZM221.961 25.984C221.364 25.7493 220.905 25.408 220.585 24.96C220.265 24.512 220.105 23.968 220.105 23.328C220.105 22.752 220.249 22.2347 220.537 21.776C220.825 21.3067 221.252 20.9387 221.817 20.672C222.393 20.3947 223.087 20.256 223.897 20.256C224.708 20.256 225.396 20.3947 225.961 20.672C226.537 20.9387 226.969 21.3067 227.257 21.776C227.556 22.2347 227.705 22.752 227.705 23.328C227.705 23.9467 227.54 24.4907 227.209 24.96C226.879 25.4187 226.425 25.76 225.849 25.984C226.511 26.1867 227.033 26.544 227.417 27.056C227.812 27.5573 228.009 28.1653 228.009 28.88C228.009 29.5733 227.839 30.1813 227.497 30.704C227.156 31.216 226.671 31.616 226.041 31.904C225.423 32.1813 224.708 32.32 223.897 32.32C223.087 32.32 222.372 32.1813 221.753 31.904C221.145 31.616 220.671 31.216 220.329 30.704C219.988 30.1813 219.817 29.5733 219.817 28.88C219.817 28.1653 220.009 27.552 220.393 27.04C220.777 26.528 221.3 26.176 221.961 25.984ZM226.297 23.504C226.297 22.8533 226.084 22.352 225.657 22C225.231 21.648 224.644 21.472 223.897 21.472C223.161 21.472 222.58 21.648 222.153 22C221.727 22.352 221.513 22.8587 221.513 23.52C221.513 24.1173 221.732 24.5973 222.169 24.96C222.617 25.3227 223.193 25.504 223.897 25.504C224.612 25.504 225.188 25.3227 225.625 24.96C226.073 24.5867 226.297 24.1013 226.297 23.504ZM223.897 26.624C223.108 26.624 222.463 26.8107 221.961 27.184C221.46 27.5467 221.209 28.096 221.209 28.832C221.209 29.5147 221.449 30.064 221.929 30.48C222.42 30.896 223.076 31.104 223.897 31.104C224.719 31.104 225.369 30.896 225.849 30.48C226.329 30.064 226.569 29.5147 226.569 28.832C226.569 28.1173 226.324 27.5733 225.833 27.2C225.343 26.816 224.697 26.624 223.897 26.624Z" fill="white"/>
<path d="M216.107 79.344C216.181 78.3627 216.56 77.5947 217.243 77.04C217.925 76.4853 218.811 76.208 219.899 76.208C220.624 76.208 221.248 76.3413 221.771 76.608C222.304 76.864 222.704 77.216 222.971 77.664C223.248 78.112 223.387 78.6187 223.387 79.184C223.387 79.8453 223.195 80.416 222.811 80.896C222.437 81.376 221.947 81.6853 221.339 81.824V81.904C222.032 82.0747 222.581 82.4107 222.987 82.912C223.392 83.4133 223.595 84.0693 223.595 84.88C223.595 85.488 223.456 86.0373 223.179 86.528C222.901 87.008 222.485 87.3867 221.931 87.664C221.376 87.9413 220.709 88.08 219.931 88.08C218.8 88.08 217.872 87.7867 217.147 87.2C216.421 86.6027 216.016 85.76 215.931 84.672H217.339C217.413 85.312 217.675 85.8347 218.123 86.24C218.571 86.6453 219.168 86.848 219.915 86.848C220.661 86.848 221.227 86.656 221.611 86.272C222.005 85.8773 222.203 85.3707 222.203 84.752C222.203 83.952 221.936 83.376 221.403 83.024C220.869 82.672 220.064 82.496 218.987 82.496H218.619V81.28H219.003C219.984 81.2693 220.725 81.1093 221.227 80.8C221.728 80.48 221.979 79.9893 221.979 79.328C221.979 78.7627 221.792 78.3093 221.419 77.968C221.056 77.6267 220.533 77.456 219.851 77.456C219.189 77.456 218.656 77.6267 218.251 77.968C217.845 78.3093 217.605 78.768 217.531 79.344H216.107ZM225.336 77.76V76.432H228.344V88H226.872V77.76H225.336Z" fill="white"/>
<path d="M195.86 49.76V48.432H198.868V60H197.396V49.76H195.86ZM201.177 57.424V56.32L206.793 48.544H208.537V56.16H210.137V57.424H208.537V60H207.097V57.424H201.177ZM207.161 50.064L202.857 56.16H207.161V50.064ZM218.872 49.568L214.424 60H212.952L217.464 49.712H211.288V48.464H218.872V49.568ZM222.758 53.984C222.161 53.7493 221.702 53.408 221.382 52.96C221.062 52.512 220.902 51.968 220.902 51.328C220.902 50.752 221.046 50.2347 221.334 49.776C221.622 49.3067 222.049 48.9387 222.614 48.672C223.19 48.3947 223.883 48.256 224.694 48.256C225.505 48.256 226.193 48.3947 226.758 48.672C227.334 48.9387 227.766 49.3067 228.054 49.776C228.353 50.2347 228.502 50.752 228.502 51.328C228.502 51.9467 228.337 52.4907 228.006 52.96C227.675 53.4187 227.222 53.76 226.646 53.984C227.307 54.1867 227.83 54.544 228.214 55.056C228.609 55.5573 228.806 56.1653 228.806 56.88C228.806 57.5733 228.635 58.1813 228.294 58.704C227.953 59.216 227.467 59.616 226.838 59.904C226.219 60.1813 225.505 60.32 224.694 60.32C223.883 60.32 223.169 60.1813 222.55 59.904C221.942 59.616 221.467 59.216 221.126 58.704C220.785 58.1813 220.614 57.5733 220.614 56.88C220.614 56.1653 220.806 55.552 221.19 55.04C221.574 54.528 222.097 54.176 222.758 53.984ZM227.094 51.504C227.094 50.8533 226.881 50.352 226.454 50C226.027 49.648 225.441 49.472 224.694 49.472C223.958 49.472 223.377 49.648 222.95 50C222.523 50.352 222.31 50.8587 222.31 51.52C222.31 52.1173 222.529 52.5973 222.966 52.96C223.414 53.3227 223.99 53.504 224.694 53.504C225.409 53.504 225.985 53.3227 226.422 52.96C226.87 52.5867 227.094 52.1013 227.094 51.504ZM224.694 54.624C223.905 54.624 223.259 54.8107 222.758 55.184C222.257 55.5467 222.006 56.096 222.006 56.832C222.006 57.5147 222.246 58.064 222.726 58.48C223.217 58.896 223.873 59.104 224.694 59.104C225.515 59.104 226.166 58.896 226.646 58.48C227.126 58.064 227.366 57.5147 227.366 56.832C227.366 56.1173 227.121 55.5733 226.63 55.2C226.139 54.816 225.494 54.624 224.694 54.624Z" fill="white"/>
<path d="M220.469 109.096C220.469 107.261 220.767 105.832 221.365 104.808C221.962 103.773 223.007 103.256 224.501 103.256C225.983 103.256 227.023 103.773 227.621 104.808C228.218 105.832 228.517 107.261 228.517 109.096C228.517 110.963 228.218 112.413 227.621 113.448C227.023 114.483 225.983 115 224.501 115C223.007 115 221.962 114.483 221.365 113.448C220.767 112.413 220.469 110.963 220.469 109.096ZM227.077 109.096C227.077 108.168 227.013 107.384 226.885 106.744C226.767 106.093 226.517 105.571 226.133 105.176C225.759 104.781 225.215 104.584 224.501 104.584C223.775 104.584 223.221 104.781 222.837 105.176C222.463 105.571 222.213 106.093 222.085 106.744C221.967 107.384 221.909 108.168 221.909 109.096C221.909 110.056 221.967 110.861 222.085 111.512C222.213 112.163 222.463 112.685 222.837 113.08C223.221 113.475 223.775 113.672 224.501 113.672C225.215 113.672 225.759 113.475 226.133 113.08C226.517 112.685 226.767 112.163 226.885 111.512C227.013 110.861 227.077 110.056 227.077 109.096Z" fill="white"/>
<path d="M42 109C42 102.373 36.6274 97 30 97C23.3726 97 18 102.373 18 109C18 115.627 23.3726 121 30 121C36.6274 121 42 115.627 42 109Z" fill="black"/>
<path fill-rule="evenodd" clip-rule="evenodd" d="M28.0667 113.333C28.0667 114.333 29.0547 115 29.8267 115C30.364 115 30.406 114.592 30.4887 113.787C30.5253 113.433 30.5693 113.004 30.6667 112.5C30.924 111.165 31.8133 109.46 32.664 108.95V105C32.6667 103.5 32.1667 103 30 103H27.4847C26.034 103 25.6827 103.955 25.552 104.309L25.5433 104.333C25.4673 104.537 25.3047 104.698 25.118 104.88C24.9113 105.084 24.6753 105.315 24.5 105.667C24.2927 106.082 24.32 106.451 24.3447 106.78C24.36 106.979 24.374 107.163 24.3333 107.333C24.2907 107.513 24.236 107.65 24.1833 107.781C24.088 108.018 24 108.238 24 108.667C24 109.667 24.4987 110.332 25.5433 110.332H28.3333C28.3333 110.332 28.0667 112.333 28.0667 113.333ZM35 109.667C35.2652 109.667 35.5196 109.561 35.7071 109.374C35.8946 109.186 36 108.932 36 108.667V104C36 103.735 35.8946 103.48 35.7071 103.293C35.5196 103.105 35.2652 103 35 103C34.7348 103 34.4804 103.105 34.2929 103.293C34.1054 103.48 34 103.735 34 104V108.667C34 108.932 34.1054 109.186 34.2929 109.374C34.4804 109.561 34.7348 109.667 35 109.667Z" fill="#FF9B26"/>
<defs>
<filter id="filter0_b_1_24" x="-10" y="-9.99994" width="282" height="160" filterUnits="userSpaceOnUse" color-interpolation-filters="sRGB">
<feFlood flood-opacity="0" result="BackgroundImageFix"/>
<feGaussianBlur in="BackgroundImageFix" stdDeviation="5"/>
<feComposite in2="SourceAlpha" operator="in" result="effect1_backgroundBlur_1_24"/>
<feBlend mode="normal" in="SourceGraphic" in2="effect1_backgroundBlur_1_24" result="shape"/>
</filter>
<linearGradient id="paint0_linear_1_24" x1="-481.5" y1="-496.5" x2="-121.712" y2="314.987" gradientUnits="userSpaceOnUse">
<stop stop-color="white"/>
<stop offset="0.906032" stop-color="#202020"/>
</linearGradient>
<clipPath id="clip0_1_24">
<rect width="24" height="24" fill="white" transform="translate(18 17)"/>
</clipPath>
<clipPath id="clip1_1_24">
<rect width="24" height="24" fill="white" transform="translate(18 43)"/>
</clipPath>
<clipPath id="clip2_1_24">
<rect width="24" height="24" fill="white" transform="translate(18 70)"/>
</clipPath>
</defs>
</svg>
