<svg width="800" height="800" viewBox="0 0 800 800" fill="none" xmlns="http://www.w3.org/2000/svg">
<g clip-path="url(#clip0_124_48)">
<path d="M640 0H160C71.6344 0 0 71.6344 0 160V640C0 728.366 71.6344 800 160 800H640C728.366 800 800 728.366 800 640V160C800 71.6344 728.366 0 640 0Z" fill="black"/>
<path d="M535 322H512.5V302.5C512.5 276.641 500.647 251.842 479.55 233.557C458.452 215.272 429.837 205 400 205C370.163 205 341.548 215.272 320.45 233.557C299.353 251.842 287.5 276.641 287.5 302.5V322H265C253.065 322 241.619 326.109 233.18 333.423C224.741 340.737 220 350.657 220 361V556C220 566.343 224.741 576.263 233.18 583.577C241.619 590.891 253.065 595 265 595H535C546.935 595 558.381 590.891 566.82 583.577C575.259 576.263 580 566.343 580 556V361C580 350.657 575.259 340.737 566.82 333.423C558.381 326.109 546.935 322 535 322ZM332.5 302.5C332.5 286.985 339.612 272.105 352.27 261.134C364.929 250.163 382.098 244 400 244C417.902 244 435.071 250.163 447.73 261.134C460.388 272.105 467.5 286.985 467.5 302.5V322H332.5V302.5Z" fill="#D426FF"/>
</g>
<defs>
<clipPath id="clip0_124_48">
<rect width="800" height="800" fill="white"/>
</clipPath>
</defs>
</svg>
