<svg width="800" height="800" viewBox="0 0 800 800" fill="none" xmlns="http://www.w3.org/2000/svg">
<g clip-path="url(#clip0_124_34)">
<path d="M640 0H160C71.6344 0 0 71.6344 0 160V640C0 728.366 71.6344 800 160 800H640C728.366 800 800 728.366 800 640V160C800 71.6344 728.366 0 640 0Z" fill="black"/>
<path d="M302.5 585C282.052 585 263.898 574.525 252.496 558.333H477.5C525.825 558.333 565 516.547 565 465V305C580.18 317.163 590 336.522 590 358.333V465C590 531.275 539.633 585 477.5 585H302.5Z" fill="#00FBFF"/>
<path d="M370.926 186.594C367.226 184.469 362.773 184.469 359.074 186.594L216.295 268.6C208.456 273.102 202.045 279.651 197.517 287.435L207.915 292.981L365 370.314L521.882 293.08L532.255 287.045C527.74 279.432 521.412 273.027 513.705 268.6L370.926 186.594Z" fill="#00FBFF"/>
<path d="M539.94 312.949L533.485 316.704C533.24 316.847 532.99 316.981 532.738 317.105L370.238 397.105C366.914 398.741 363.085 398.741 359.761 397.105L197.262 317.105L196.91 316.925L190.046 313.264C190.016 314.026 190 314.791 190 315.558V465C190 501.819 217.982 531.667 252.5 531.667H477.5C512.017 531.667 540 501.819 540 465V315.558C540 314.685 539.98 313.815 539.94 312.949Z" fill="#00FBFF"/>
</g>
<defs>
<clipPath id="clip0_124_34">
<rect width="800" height="800" fill="white"/>
</clipPath>
</defs>
</svg>
