<svg width="800" height="800" viewBox="0 0 800 800" fill="none" xmlns="http://www.w3.org/2000/svg">
<g clip-path="url(#clip0_124_54)">
<path d="M640 0H160C71.6344 0 0 71.6344 0 160V640C0 728.366 71.6344 800 160 800H640C728.366 800 800 728.366 800 640V160C800 71.6344 728.366 0 640 0Z" fill="black"/>
<path d="M597.02 255.118L484.228 573.038C481.53 580.934 476.439 587.78 469.672 592.616C462.904 597.452 454.8 600.033 446.498 599.997C438.292 600.091 430.259 597.626 423.502 592.942C416.746 588.257 411.599 581.583 408.768 573.837L366.669 463.603L397.251 432.85L446.697 383.125C450.436 379.364 452.537 374.264 452.537 368.946C452.537 363.628 450.436 358.528 446.697 354.767C442.957 351.007 437.886 348.894 432.598 348.894C427.309 348.894 422.238 351.007 418.498 354.767L369.052 404.492L337.677 435.446L228.26 392.91C220.089 390.435 212.929 385.379 207.839 378.491C202.749 371.603 200 363.249 200 354.668C200 346.086 202.749 337.732 207.839 330.844C212.929 323.957 220.089 318.901 228.26 316.425L545.191 202.996C552.439 200.002 560.406 199.23 568.089 200.779C575.771 202.327 582.827 206.126 588.368 211.698C593.908 217.27 597.686 224.365 599.226 232.092C600.765 239.818 599.998 247.829 597.02 255.118Z" fill="#7000FF"/>
</g>
<defs>
<clipPath id="clip0_124_54">
<rect width="800" height="800" fill="white"/>
</clipPath>
</defs>
</svg>
