<svg width="71" height="71" viewBox="0 0 71 71" fill="none" xmlns="http://www.w3.org/2000/svg">
<path d="M21.9334 27.5243C21.2173 28.2567 20.8592 29.1438 20.8592 30.1854C20.8592 31.2271 21.2173 32.1141 21.9334 32.8466C22.6658 33.5627 23.5529 33.9208 24.5945 33.9208C25.685 33.9208 26.6128 33.5627 27.3777 32.8466C28.1427 32.1141 28.5252 31.2271 28.5252 30.1854C28.5252 29.1275 28.1427 28.2404 27.3777 27.5243C26.6128 26.7919 25.685 26.4257 24.5945 26.4257C23.5529 26.4257 22.6658 26.7919 21.9334 27.5243ZM18.8817 30.1854C18.8817 28.6229 19.435 27.3046 20.5418 26.2303C21.6649 25.1399 23.0158 24.5946 24.5945 24.5946C26.3035 24.5946 27.744 25.2538 28.9158 26.5721C30.0877 27.8742 30.6736 29.4286 30.6736 31.2352V33.3837C30.6736 36.118 30.104 38.3072 28.9647 39.951C27.8253 41.5787 26.3198 42.3925 24.4481 42.3925C23.0483 42.3925 21.8602 41.896 20.8836 40.9032C19.9233 39.9104 19.4432 38.7222 19.4432 37.3387H21.3719C21.3719 38.1851 21.673 38.9094 22.2752 39.5116C22.8774 40.0975 23.6017 40.3905 24.4481 40.3905C25.685 40.3905 26.6697 39.8046 27.4022 38.6327C28.1509 37.4445 28.5252 35.8739 28.5252 33.9208C28.0044 34.4416 27.4022 34.8404 26.7186 35.1171C26.0512 35.3938 25.3432 35.5321 24.5945 35.5321C23.032 35.5321 21.6893 35.0194 20.5662 33.994C19.4432 32.9524 18.8817 31.6828 18.8817 30.1854ZM34.2205 42.0262V39.5848H36.1736V42.0262H34.2205ZM39.5008 36.6307H41.2586C41.2586 37.6236 41.6655 38.4455 42.4793 39.0966C43.3094 39.7313 44.2778 40.0487 45.3846 40.0487C46.5565 40.0487 47.5656 39.6662 48.4119 38.9012C49.2746 38.1363 49.7059 37.1923 49.7059 36.0692C49.7059 34.9299 49.2746 33.9615 48.4119 33.1639C47.5656 32.3664 46.5565 31.9677 45.3846 31.9677C44.6196 31.9677 43.8872 32.1304 43.1873 32.4559C42.5037 32.7652 41.9259 33.2046 41.4539 33.7743H39.5008L41.2586 24.8387H50.4139V26.5721H42.8699L42.1619 31.0643C42.5037 30.6574 42.9432 30.3807 43.4803 30.2343C44.0337 30.0715 44.6684 29.9901 45.3846 29.9901C47.1098 29.9901 48.591 30.5842 49.8279 31.7723C51.0649 32.9442 51.6834 34.3765 51.6834 36.0692C51.6834 37.7456 51.0568 39.1617 49.8035 40.3173C48.5665 41.4566 47.0936 42.0262 45.3846 42.0262C43.7733 42.0262 42.3898 41.5054 41.2342 40.4637C40.0786 39.4221 39.5008 38.1444 39.5008 36.6307Z" fill="#CC00FF"/>
<circle cx="35.0262" cy="35.0262" r="32.5" transform="rotate(-179.95 35.0262 35.0262)" stroke="url(#paint0_linear_2_11)" stroke-width="5"/>
<defs>
<linearGradient id="paint0_linear_2_11" x1="35.0262" y1="5.0262" x2="-0.933673" y2="81.0576" gradientUnits="userSpaceOnUse">
<stop stop-color="#CC00FF"/>
<stop offset="1" stop-opacity="0"/>
</linearGradient>
</defs>
</svg>
