<svg width="70" height="70" viewBox="0 0 70 70" fill="none" xmlns="http://www.w3.org/2000/svg">
<path d="M21.9072 27.498C21.1911 28.2305 20.833 29.1175 20.833 30.1592C20.833 31.2008 21.1911 32.0879 21.9072 32.8203C22.6396 33.5365 23.5267 33.8945 24.5684 33.8945C25.6589 33.8945 26.5866 33.5365 27.3516 32.8203C28.1165 32.0879 28.499 31.2008 28.499 30.1592C28.499 29.1012 28.1165 28.2142 27.3516 27.498C26.5866 26.7656 25.6589 26.3994 24.5684 26.3994C23.5267 26.3994 22.6396 26.7656 21.9072 27.498ZM18.8555 30.1592C18.8555 28.5967 19.4089 27.2783 20.5156 26.2041C21.6387 25.1136 22.9896 24.5684 24.5684 24.5684C26.2773 24.5684 27.7178 25.2275 28.8896 26.5459C30.0615 27.848 30.6475 29.4023 30.6475 31.209V33.3574C30.6475 36.0918 30.0778 38.2809 28.9385 39.9248C27.7992 41.5524 26.2936 42.3662 24.4219 42.3662C23.0221 42.3662 21.834 41.8698 20.8574 40.877C19.8971 39.8841 19.417 38.696 19.417 37.3125H21.3457C21.3457 38.1589 21.6468 38.8831 22.249 39.4854C22.8512 40.0713 23.5755 40.3643 24.4219 40.3643C25.6589 40.3643 26.6436 39.7783 27.376 38.6064C28.1247 37.4183 28.499 35.8477 28.499 33.8945C27.9782 34.4154 27.376 34.8141 26.6924 35.0908C26.0251 35.3675 25.3171 35.5059 24.5684 35.5059C23.0059 35.5059 21.6631 34.9932 20.54 33.9678C19.417 32.9261 18.8555 31.6566 18.8555 30.1592ZM34.1943 42V39.5586H36.1475V42H34.1943ZM39.1084 26.5459V24.8125H52.0234V26.5459C49.7448 28.1572 48.0684 30.3301 46.9941 33.0645C45.9199 35.7988 45.3828 38.7773 45.3828 42H43.0879C43.0879 38.9076 43.5924 36.0104 44.6016 33.3086C45.627 30.5905 47.1976 28.3363 49.3135 26.5459H39.1084Z" fill="#FFC700"/>
<circle cx="35" cy="35" r="32.5" transform="rotate(-179.95 35 35)" stroke="url(#paint0_linear_2_7)" stroke-width="5"/>
<defs>
<linearGradient id="paint0_linear_2_7" x1="35" y1="4.99995" x2="-0.959826" y2="81.0313" gradientUnits="userSpaceOnUse">
<stop stop-color="#FFC700"/>
<stop offset="1" stop-opacity="0"/>
</linearGradient>
</defs>
</svg>
