<svg width="71" height="71" viewBox="0 0 71 71" fill="none" xmlns="http://www.w3.org/2000/svg">
<path d="M21.9334 27.5243C21.2173 28.2567 20.8592 29.1438 20.8592 30.1854C20.8592 31.2271 21.2173 32.1141 21.9334 32.8466C22.6658 33.5627 23.5529 33.9208 24.5945 33.9208C25.685 33.9208 26.6128 33.5627 27.3777 32.8466C28.1427 32.1141 28.5252 31.2271 28.5252 30.1854C28.5252 29.1275 28.1427 28.2404 27.3777 27.5243C26.6128 26.7919 25.685 26.4257 24.5945 26.4257C23.5529 26.4257 22.6658 26.7919 21.9334 27.5243ZM18.8817 30.1854C18.8817 28.6229 19.435 27.3046 20.5418 26.2303C21.6649 25.1399 23.0158 24.5946 24.5945 24.5946C26.3035 24.5946 27.744 25.2538 28.9158 26.5721C30.0877 27.8742 30.6736 29.4286 30.6736 31.2352V33.3837C30.6736 36.118 30.104 38.3072 28.9647 39.951C27.8253 41.5787 26.3198 42.3925 24.4481 42.3925C23.0483 42.3925 21.8602 41.896 20.8836 40.9032C19.9233 39.9104 19.4432 38.7222 19.4432 37.3387H21.3719C21.3719 38.1851 21.673 38.9094 22.2752 39.5116C22.8774 40.0975 23.6017 40.3905 24.4481 40.3905C25.685 40.3905 26.6697 39.8046 27.4022 38.6327C28.1509 37.4445 28.5252 35.8739 28.5252 33.9208C28.0044 34.4416 27.4022 34.8404 26.7186 35.1171C26.0512 35.3938 25.3432 35.5321 24.5945 35.5321C23.032 35.5321 21.6893 35.0194 20.5662 33.994C19.4432 32.9524 18.8817 31.6828 18.8817 30.1854ZM34.2205 42.0262V39.5848H36.1736V42.0262H34.2205ZM42.9188 27.1337C42.2026 27.6057 41.8445 28.2567 41.8445 29.0868C41.8445 29.9169 42.2026 30.576 42.9188 31.0643C43.6349 31.5526 44.465 31.7968 45.409 31.7968C46.4344 31.7968 47.3214 31.5608 48.0701 31.0887C48.8188 30.6005 49.1932 29.9331 49.1932 29.0868C49.1932 28.2404 48.8188 27.5894 48.0701 27.1337C47.3214 26.6617 46.4344 26.4257 45.409 26.4257C44.465 26.4257 43.6349 26.6617 42.9188 27.1337ZM40.9656 36.8016C40.9656 37.8596 41.4051 38.7222 42.284 39.3895C43.1792 40.0568 44.2208 40.3905 45.409 40.3905C46.646 40.3905 47.7283 40.065 48.6561 39.4139C49.6001 38.7466 50.0721 37.8759 50.0721 36.8016C50.0721 35.7762 49.6082 34.9869 48.6805 34.4335C47.7527 33.8801 46.6623 33.6034 45.409 33.6034C44.2208 33.6034 43.1792 33.8882 42.284 34.4579C41.4051 35.0113 40.9656 35.7925 40.9656 36.8016ZM39.1346 36.8016C39.1346 35.8576 39.4438 35.0194 40.0623 34.287C40.6971 33.5546 41.5027 33.0093 42.4793 32.6512C41.6981 32.2118 41.0633 31.691 40.575 31.0887C40.103 30.4865 39.867 29.8192 39.867 29.0868C39.867 27.7684 40.4123 26.6942 41.5027 25.8641C42.6095 25.0178 43.9116 24.5946 45.409 24.5946C46.9552 24.5946 48.298 25.0096 49.4373 25.8397C50.5929 26.6535 51.1707 27.7359 51.1707 29.0868C51.1707 29.8192 50.9429 30.4947 50.4871 31.1132C50.0314 31.7154 49.4373 32.2281 48.7049 32.6512C49.6815 33.0093 50.479 33.5546 51.0975 34.287C51.7322 35.0194 52.0496 35.8576 52.0496 36.8016C52.0496 38.413 51.3823 39.7476 50.0477 40.8055C48.7293 41.8635 47.1831 42.3925 45.409 42.3925C43.7163 42.3925 42.2433 41.8635 40.9901 40.8055C39.7531 39.7313 39.1346 38.3967 39.1346 36.8016Z" fill="#00F0FF"/>
<circle cx="35.0262" cy="35.0262" r="32.5" transform="rotate(-179.95 35.0262 35.0262)" stroke="url(#paint0_linear_2_8)" stroke-width="5"/>
<defs>
<linearGradient id="paint0_linear_2_8" x1="35.0262" y1="5.0262" x2="-0.933673" y2="81.0576" gradientUnits="userSpaceOnUse">
<stop stop-color="#00F0FF"/>
<stop offset="1" stop-opacity="0"/>
</linearGradient>
</defs>
</svg>
